<svg width="158" height="26" viewBox="0 0 158 26" fill="none" xmlns="http://www.w3.org/2000/svg">
<path d="M10.816 0.766602V1.35878C9.28877 1.35878 7.82779 1.91591 7.82779 4.45218V20.9555C7.82779 23.3203 8.94204 24.6411 10.4342 24.6411V25.2293H0.304688V24.6411C1.76178 24.6411 2.77082 23.3203 2.77082 20.9555V4.45218C2.77082 2.29771 1.79684 1.35878 0.304688 1.35878V0.766602H10.816ZM26.9725 24.6411V25.2293H21.4831C17.8015 25.2293 16.9677 24.2242 13.3016 18.9413C11.2874 16.0933 9.79525 14.1103 9.79525 14.1103L14.5873 8.30918C14.5873 8.30918 20.5637 1.49904 14.3808 1.35878V0.766602H25.8466V1.35878C23.509 1.35878 21.0857 1.42891 13.5821 11.0519C21.713 21.9295 22.0597 22.3814 22.0597 22.3814C22.6241 23.1352 23.3674 23.7365 24.2224 24.131C25.0774 24.5255 26.0172 24.7008 26.957 24.6411H26.9725Z" fill="#515151"/>
<path d="M56.0093 0.766602V1.35878C50.7653 1.32372 50.8316 9.59484 50.8316 9.59484V25.2293H48.9966L33.8023 6.13913V16.3816C33.8023 16.3816 33.7672 24.6528 38.5632 24.6528V25.241H28.0012V24.6411C33.2452 24.6411 33.214 16.3699 33.214 16.3699V5.52747L31.8582 3.82492C29.6336 1.0471 28.6246 1.42891 27.7207 1.35878V0.766602H36.2334L50.2588 18.0374V9.59484C50.2588 9.59484 50.2939 1.32372 45.498 1.35878V0.766602H56.0093Z" fill="#515151"/>
<path d="M81.9953 13.1715C81.9953 20.0868 77.6513 25.5451 70.0074 25.5451C62.3635 25.5451 58.0195 20.0907 58.0195 13.1715C58.0195 6.25228 62.3635 0.455078 70.0074 0.455078C77.6513 0.455078 81.9953 6.29513 81.9953 13.1715ZM75.9838 13.1715C75.9838 3.65367 74.1099 1.04727 70.0074 1.04727C65.905 1.04727 63.9609 3.65367 63.9609 13.1715C63.9609 22.6893 65.8738 24.9529 70.0074 24.9529C74.141 24.9529 75.9838 22.7283 75.9838 13.1715Z" fill="#515151"/>
<path d="M120.113 0.766602V1.35878C118.515 1.35878 116.217 2.19252 113.026 9.66498L107.014 25.2293H106.422L100.189 10.2182L94.6291 25.2293H94.0369L85.3138 4.19114C84.2035 1.37826 83.023 1.37826 82.1191 1.37826V0.786077H93.2031V1.37826C90.1448 1.37826 91.6448 5.41058 91.6448 5.41058L96.6511 18.0919L99.8808 9.36888L97.9017 4.19114C96.8225 1.37826 95.607 1.37826 94.7031 1.37826V0.786077H105.787V1.37826C102.67 1.37826 104.229 5.41058 104.229 5.41058L109.165 18.2322L112.465 9.50913C112.465 9.50913 115.765 1.37826 109.858 1.37826V0.786077L120.113 0.766602Z" fill="#515151"/>
<path d="M132.936 0.766602V1.35878C131.44 1.35878 129.983 2.29771 129.983 4.45218V21.0256C129.983 23.3905 131.475 24.6411 132.936 24.6411V25.2293H121.988V24.6411C123.484 24.6411 124.941 23.3905 124.941 21.0256V4.45218C124.941 2.29771 123.519 1.35878 121.988 1.35878V0.766602H132.936Z" fill="#515151"/>
<path d="M157.694 0.766602V7.75206H157.101C156.825 1.51852 149.422 1.35878 149.422 1.35878H148.764V21.0256C148.764 23.3905 150.256 24.6411 151.717 24.6411V25.2293H140.769V24.6411C142.23 24.6411 143.723 23.3905 143.723 21.0256V1.35878H143.064C143.064 1.35878 135.697 1.5341 135.42 7.75206H134.828V0.766602H157.694Z" fill="#515151"/>
</svg>
