<svg width="22" height="22" viewBox="0 0 22 22" fill="none" xmlns="http://www.w3.org/2000/svg">
<path d="M15.3981 4.60423e-06C16.6828 -0.000303844 17.9397 0.374374 19.0145 1.07807C20.0893 1.78177 20.9353 2.78389 21.4488 3.9615C21.9623 5.1391 22.1209 6.44097 21.9051 7.7074C21.6894 8.97384 21.1086 10.1498 20.2342 11.0909L20.0252 11.3043L10.4268 20.9027L10.3685 20.9577L10.3069 21.0072C9.52503 21.6812 8.51727 22.0349 7.48562 21.9973C6.45396 21.9597 5.47463 21.5336 4.74389 20.8043C4.01315 20.0751 3.58499 19.0967 3.54522 18.0651C3.50544 17.0336 3.85699 16.0251 4.52941 15.2417L4.69329 15.0614L4.70979 15.0493L12.7277 7.01596C12.9338 6.80944 13.2135 6.69324 13.5052 6.69293C13.797 6.69262 14.0769 6.80822 14.2834 7.01431C14.49 7.22039 14.6062 7.50008 14.6065 7.79184C14.6068 8.08359 14.4912 8.36353 14.2851 8.57005L6.26718 16.6034L6.25398 16.6122C5.93037 16.9577 5.74801 17.4121 5.74288 17.8855C5.73776 18.3589 5.91024 18.8171 6.22629 19.1696C6.54235 19.5221 6.97903 19.7433 7.4502 19.7897C7.92138 19.8361 8.39282 19.7042 8.77154 19.4201L8.90572 19.3101L8.90682 19.3112L18.4777 9.74249L18.6526 9.56101C19.4226 8.71463 19.8326 7.60154 19.7955 6.4579C19.7585 5.31425 19.2773 4.23005 18.4541 3.4353C17.6308 2.64056 16.5304 2.19783 15.3861 2.20103C14.2419 2.20422 13.1439 2.65311 12.3252 3.45244L12.1547 3.62841L12.1349 3.64161L1.87767 13.9032C1.77548 14.0053 1.65418 14.0863 1.5207 14.1416C1.38721 14.1968 1.24415 14.2252 1.09969 14.2252C0.955222 14.2251 0.812183 14.1966 0.678735 14.1413C0.545287 14.0859 0.424045 14.0049 0.321929 13.9027C0.219814 13.8005 0.138826 13.6792 0.0835894 13.5457C0.0283527 13.4122 -5.09966e-05 13.2692 6.87332e-08 13.1247C0.0001032 12.8329 0.116102 12.5532 0.322479 12.3469L10.561 2.10402L10.6116 2.05673C11.2276 1.40612 11.97 0.888122 12.7932 0.534467C13.6165 0.180812 14.5022 -0.00105507 15.3981 4.60423e-06Z" fill="black"/>
</svg>
