<?xml version="1.0" encoding="utf-8"?>
<!-- Generator: Adobe Illustrator 22.0.1, SVG Export Plug-In . SVG Version: 6.00 Build 0)  -->
<svg version="1.1" id="Layer_1" xmlns="http://www.w3.org/2000/svg" xmlns:xlink="http://www.w3.org/1999/xlink" x="0px" y="0px"
	 width="22px" height="22px" viewBox="0 0 22 22" style="enable-background:new 0 0 22 22;" xml:space="preserve">
<style type="text/css">
	.st0{fill:#FFFFFF;}
</style>
<path class="st0" d="M15.4,0c1.3,0,2.5,0.4,3.6,1.1c1.1,0.7,1.9,1.7,2.4,2.9c0.5,1.2,0.7,2.5,0.5,3.7c-0.2,1.3-0.8,2.4-1.7,3.4
	L20,11.3l-9.6,9.6L10.4,21l-0.1,0c-0.8,0.7-1.8,1-2.8,1c-1,0-2-0.5-2.7-1.2c-0.7-0.7-1.2-1.7-1.2-2.7c0-1,0.3-2,1-2.8l0.2-0.2l0,0
	l8-8c0.2-0.2,0.5-0.3,0.8-0.3c0.3,0,0.6,0.1,0.8,0.3c0.2,0.2,0.3,0.5,0.3,0.8c0,0.3-0.1,0.6-0.3,0.8l-8,8l0,0
	c-0.3,0.3-0.5,0.8-0.5,1.3c0,0.5,0.2,0.9,0.5,1.3c0.3,0.4,0.8,0.6,1.2,0.6c0.5,0,0.9-0.1,1.3-0.4l0.1-0.1l0,0l9.6-9.6l0.2-0.2
	c0.8-0.8,1.2-2,1.1-3.1c0-1.1-0.5-2.2-1.3-3c-0.8-0.8-1.9-1.2-3.1-1.2c-1.1,0-2.2,0.5-3.1,1.3l-0.2,0.2l0,0L1.9,13.9
	c-0.1,0.1-0.2,0.2-0.4,0.2c-0.1,0.1-0.3,0.1-0.4,0.1c-0.1,0-0.3,0-0.4-0.1c-0.1-0.1-0.3-0.1-0.4-0.2c-0.1-0.1-0.2-0.2-0.2-0.4
	C0,13.4,0,13.3,0,13.1c0-0.3,0.1-0.6,0.3-0.8L10.6,2.1l0.1,0c0.6-0.7,1.4-1.2,2.2-1.5C13.6,0.2,14.5,0,15.4,0z"/>
</svg>
