<?xml version="1.0" encoding="utf-8"?>
<!-- Generator: Adobe Illustrator 22.0.1, SVG Export Plug-In . SVG Version: 6.00 Build 0)  -->
<svg version="1.1" xmlns="http://www.w3.org/2000/svg" xmlns:xlink="http://www.w3.org/1999/xlink" x="0px" y="0px" width="664px"
	 height="721px" viewBox="0 0 664 721" style="enable-background:new 0 0 664 721;" xml:space="preserve">
<style type="text/css">
	.st0{display:none;}
	.st1{fill:#121212;}
	.st2{fill:#222222;}
</style>
<g id="Layer_2" class="st0">
</g>
<g id="Layer_1">
	<path class="st1" d="M0.6,0v721H664V0H0.6z M662.1,569c-82.8,0-150,67.2-150,150h-360c0-82.8-67.2-150-150-150V153.5h0
		c82.8,0,150-67.2,150-150c0-0.5,0-1,0-1.5h360c0,0.5,0,1,0,1.5c0,82.8,67.2,150,150,150V569z"/>
	<path class="st2" d="M2.1,153.5V152H0.6v1.5H2.1z M2.1,569H0.6v1.5h1.5V569z M152.1,719h-1.5v1.5h1.5V719z M512.1,719v1.5h1.5V719
		H512.1z M662.1,569v1.5h1.5V569H662.1z M662.1,153.5h1.5V152h-1.5V153.5z M512.1,2l1.5,0l0-1.5h-1.5V2z M152.1,2V0.5h-1.5l0,1.5
		L152.1,2z M2.1,155c83.7,0,151.5-67.8,151.5-151.5h-3c0,82-66.5,148.5-148.5,148.5V155z M2.1,155L2.1,155L2.1,155L2.1,155L2.1,155
		L2.1,155L2.1,155L2.1,155L2.1,155L2.1,155L2.1,155L2.1,155L2.1,155L2.1,155L2.1,155L2.1,155L2.1,155L2.1,155L2.1,155L2.1,155
		L2.1,155L2.1,155L2.1,155L2.1,155L2.1,155L2.1,155L2.1,155L2.1,155L2.1,155L2.1,155L2.1,155L2.1,155L2.1,155L2.1,155L2.1,155
		L2.1,155L2.1,155L2.1,155L2.1,155L2.1,155L2.1,155L2.1,155L2.1,155L2.1,155L2.1,155L2.1,155L2.1,155L2.1,155L2.1,155L2.1,155
		L2.1,155L2.1,155L2.1,155L2.1,155L2.1,155L2.1,155L2.1,155L2.1,155L2.1,155L2.1,155L2.1,155L2.1,155L2.1,155L2.1,155L2.1,155
		L2.1,155L2.1,155L2.1,155L2.1,155L2.1,155L2.1,155L2.1,155L2.1,155L2.1,155L2.1,155L2.1,155L2.1,155L2.1,155L2.1,155L2.1,155
		L2.1,155L2.1,155L2.1,155L2.1,155L2.1,155L2.1,155L2.1,155L2.1,155L2.1,155L2.1,155L2.1,155L2.1,155L2.1,155L2.1,155L2.1,155
		L2.1,155L2.1,155L2.1,155L2.1,155L2.1,155L2.1,155L2.1,155L2.1,155L2.1,155L2.1,155L2.1,155L2.1,155L2.1,155L2.1,155L2.1,155
		L2.1,155L2.1,155L2.1,155L2.1,155L2.1,155L2.1,155L2.1,155L2.1,155L2.1,155L2.1,155L2.1,155L2.1,155L2.1,155L2.1,155L2.1,155
		L2.1,155L2.1,155L2.1,155L2.1,155L2.1,155L2.1,155L2.1,155L2.1,155L2.1,155L2.1,155L2.1,155L2.1,155L2.1,155L2.1,155L2.1,155
		L2.1,155L2.1,155L2.1,155L2.1,155L2.1,155L2.1,155L2.1,155L2.1,155L2.1,155L2.1,155L2.1,155L2.1,155L2.1,155L2.1,155L2.1,155
		L2.1,155L2.1,155L2.1,155L2.1,155L2.1,155L2.1,155L2.1,155L2.1,155L2.1,155L2.1,155L2.1,155L2.1,155L2.1,155L2.1,155L2.1,155
		L2.1,155L2.1,155L2.1,155L2.1,155L2.1,155L2.1,155L2.1,155L2.1,155L2.1,155L2.1,155L2.1,155L2.1,155L2.1,155L2.1,155L2.1,155
		L2.1,155L2.1,155L2.1,155L2.1,155L2.1,155L2.1,155L2.1,155L2.1,155L2.1,155L2.1,155L2.1,155L2.1,155L2.1,155L2.1,155L2.1,155
		L2.1,155L2.1,155L2.1,155L2.1,155L2.1,155L2.1,155L2.1,155L2.1,155L2.1,155L2.1,155L2.1,155L2.1,155L2.1,155L2.1,155L2.1,155
		L2.1,155L2.1,155L2.1,155L2.1,155L2.1,155L2.1,155L2.1,155L2.1,155L2.1,155L2.1,155L2.1,155L2.1,155L2.1,155L2.1,155L2.1,155
		L2.1,155L2.1,155L2.1,155L2.1,155L2.1,155L2.1,155L2.1,155L2.1,155L2.1,155L2.1,155L2.1,155L2.1,155L2.1,155L2.1,155L2.1,155
		L2.1,155L2.1,155L2.1,155L2.1,155L2.1,155L2.1,155L2.1,155L2.1,155L2.1,155L2.1,155L2.1,155L2.1,155L2.1,155L2.1,155L2.1,155
		L2.1,155L2.1,155L2.1,155L2.1,155L2.1,155L2.1,155L2.1,155L2.1,155L2.1,155L2.1,155L2.1,155L2.1,155L2.1,155L2.1,155L2.1,155
		L2.1,155C2.1,155,2.1,155,2.1,155L2.1,155L2.1,155L2.1,155L2.1,155L2.1,155L2.1,155L2.1,155L2.1,155L2.1,155L2.1,155L2.1,155
		L2.1,155L2.1,155L2.1,155L2.1,155L2.1,155L2.1,155L2.1,155L2.1,155L2.1,155L2.1,155L2.1,155L2.1,155L2.1,155L2.1,155L2.1,155
		L2.1,155L2.1,155L2.1,155L2.1,155L2.1,155L2.1,155L2.1,155L2.1,155L2.1,155L2.1,155L2.1,155L2.1,155L2.1,155L2.1,155L2.1,155
		L2.1,155L2.1,155L2.1,155L2.1,155L2.1,155L2.1,155L2.1,155L2.1,155L2.1,155L2.1,155L2.1,155L2.1,155L2.1,155L2.1,155L2.1,155
		L2.1,155L2.1,155L2.1,155L2.1,155L2.1,155L2.1,155L2.1,155L2.1,155L2.1,155L2.1,155C2.1,155,2.1,155,2.1,155L2.1,155L2.1,155
		L2.1,155L2.1,155L2.1,155L2.1,155L2.1,155L2.1,155L2.1,155L2.1,155L2.1,155L2.1,155L2.1,155L2.1,155L2.1,155L2.1,155L2.1,155
		L2.1,155L2.1,155L2.1,155L2.1,155L2.1,155L2.1,155L2.1,155L2.1,155L2.1,155L2.1,155L2.1,155L2.1,155L2.1,155L2.1,155L2.1,155
		L2.1,155L2.1,155L2.1,155L2.1,155L2.1,155L2.1,155L2.1,155L2.1,155L2.1,155L2.1,155L2.1,155L2.1,155L2.1,155L2.1,155L2.1,155
		L2.1,155L2.1,155L2.1,155L2.1,155L2.1,155L2.1,155L2.1,155L2.1,155L2.1,155L2.1,155L2.1,155L2.1,155L2.1,155L2.1,155L2.1,155
		L2.1,155L2.1,155L2.1,155L2.1,155C2.1,155,2.1,155,2.1,155L2.1,155L2.1,155L2.1,155L2.1,155L2.1,155L2.1,155L2.1,155L2.1,155
		L2.1,155L2.1,155L2.1,155L2.1,155L2.1,155L2.1,155L2.1,155L2.1,155L2.1,155L2.1,155L2.1,155L2.1,155L2.1,155L2.1,155L2.1,155
		L2.1,155L2.1,155L2.1,155L2.1,155L2.1,155L2.1,155L2.1,155L2.1,155L2.1,155L2.1,155L2.1,155L2.1,155L2.1,155L2.1,155L2.1,155
		L2.1,155L2.1,155L2.1,155L2.1,155L2.1,155L2.1,155L2.1,155L2.1,155L2.1,155L2.1,155L2.1,155L2.1,155L2.1,155L2.1,155L2.1,155
		L2.1,155L2.1,155L2.1,155L2.1,155L2.1,155L2.1,155L2.1,155L2.1,155L2.1,155L2.1,155L2.1,155L2.1,155L2.1,155L2.1,155
		C2.1,155,2.1,155,2.1,155L2.1,155L2.1,155L2.1,155L2.1,155L2.1,155L2.1,155L2.1,155L2.1,155L2.1,155L2.1,155L2.1,155L2.1,155
		L2.1,155L2.1,155L2.1,155L2.1,155L2.1,155L2.1,155L2.1,155L2.1,155L2.1,155L2.1,155L2.1,155L2.1,155L2.1,155L2.1,155L2.1,155
		L2.1,155L2.1,155L2.1,155L2.1,155L2.1,155L2.1,155L2.1,155l0-3l0,0l0,0l0,0l0,0l0,0l0,0l0,0l0,0l0,0l0,0l0,0l0,0l0,0l0,0l0,0l0,0
		l0,0l0,0l0,0l0,0l0,0l0,0l0,0l0,0l0,0l0,0l0,0l0,0l0,0l0,0l0,0l0,0l0,0l0,0c0,0,0,0,0,0l0,0l0,0l0,0l0,0l0,0l0,0l0,0l0,0l0,0l0,0
		l0,0l0,0l0,0l0,0l0,0l0,0l0,0l0,0l0,0l0,0l0,0l0,0l0,0l0,0l0,0l0,0l0,0l0,0l0,0l0,0l0,0l0,0l0,0l0,0l0,0l0,0l0,0l0,0l0,0l0,0l0,0
		l0,0l0,0l0,0l0,0l0,0l0,0l0,0l0,0l0,0l0,0l0,0l0,0l0,0l0,0l0,0l0,0l0,0l0,0l0,0l0,0l0,0l0,0l0,0l0,0l0,0l0,0c0,0,0,0,0,0l0,0l0,0
		l0,0l0,0l0,0l0,0l0,0l0,0l0,0l0,0l0,0l0,0l0,0l0,0l0,0l0,0l0,0l0,0l0,0l0,0l0,0l0,0l0,0l0,0l0,0l0,0l0,0l0,0l0,0l0,0l0,0l0,0l0,0
		l0,0l0,0l0,0l0,0l0,0l0,0l0,0l0,0l0,0l0,0l0,0l0,0l0,0l0,0l0,0l0,0l0,0l0,0l0,0l0,0l0,0l0,0l0,0l0,0l0,0l0,0l0,0l0,0l0,0l0,0l0,0
		l0,0l0,0c0,0,0,0,0,0l0,0l0,0l0,0l0,0l0,0l0,0l0,0l0,0l0,0l0,0l0,0l0,0l0,0l0,0l0,0l0,0l0,0l0,0l0,0l0,0l0,0l0,0l0,0l0,0l0,0l0,0
		l0,0l0,0l0,0l0,0l0,0l0,0l0,0l0,0l0,0l0,0l0,0l0,0l0,0l0,0l0,0l0,0l0,0l0,0l0,0l0,0l0,0l0,0l0,0l0,0l0,0l0,0l0,0l0,0l0,0l0,0l0,0
		l0,0l0,0l0,0l0,0l0,0l0,0l0,0l0,0l0,0c0,0,0,0,0,0l0,0l0,0l0,0l0,0l0,0l0,0l0,0l0,0l0,0l0,0l0,0l0,0l0,0l0,0l0,0l0,0l0,0l0,0l0,0
		l0,0l0,0l0,0l0,0l0,0l0,0l0,0l0,0l0,0l0,0l0,0l0,0l0,0l0,0l0,0l0,0l0,0l0,0l0,0l0,0l0,0l0,0l0,0l0,0l0,0l0,0l0,0l0,0l0,0l0,0l0,0
		l0,0l0,0l0,0l0,0l0,0l0,0l0,0l0,0l0,0l0,0l0,0l0,0l0,0l0,0l0,0l0,0h0l0,0l0,0l0,0l0,0l0,0l0,0l0,0l0,0l0,0l0,0l0,0l0,0l0,0l0,0l0,0
		l0,0l0,0l0,0l0,0l0,0l0,0l0,0l0,0l0,0l0,0l0,0l0,0l0,0l0,0l0,0l0,0l0,0l0,0l0,0l0,0l0,0l0,0l0,0l0,0l0,0l0,0l0,0l0,0l0,0l0,0l0,0
		l0,0l0,0l0,0l0,0l0,0l0,0l0,0l0,0l0,0l0,0l0,0l0,0l0,0l0,0l0,0l0,0l0,0l0,0l0,0l0,0h0l0,0l0,0l0,0l0,0l0,0l0,0l0,0l0,0l0,0l0,0l0,0
		l0,0l0,0l0,0l0,0l0,0l0,0l0,0l0,0l0,0l0,0l0,0l0,0l0,0l0,0l0,0l0,0l0,0l0,0l0,0l0,0l0,0l0,0l0,0l0,0l0,0l0,0l0,0l0,0l0,0l0,0l0,0
		l0,0l0,0l0,0l0,0l0,0l0,0l0,0l0,0l0,0l0,0l0,0l0,0l0,0l0,0l0,0l0,0l0,0l0,0l0,0l0,0l0,0l0,0l0,0l0,0h0l0,0l0,0l0,0l0,0l0,0l0,0l0,0
		l0,0l0,0l0,0l0,0l0,0l0,0l0,0l0,0l0,0l0,0l0,0l0,0l0,0l0,0l0,0l0,0l0,0l0,0l0,0l0,0l0,0l0,0l0,0l0,0l0,0l0,0l0,0l0,0l0,0l0,0l0,0
		l0,0l0,0l0,0l0,0l0,0l0,0l0,0l0,0l0,0l0,0l0,0l0,0l0,0l0,0l0,0l0,0l0,0l0,0l0,0l0,0l0,0l0,0l0,0l0,0l0,0l0,0l0,0l0,0h0l0,0l0,0l0,0
		l0,0l0,0l0,0l0,0V155z M3.6,569V153.5h-3V569H3.6z M153.6,719c0-83.7-67.8-151.5-151.5-151.5v3c82,0,148.5,66.5,148.5,148.5H153.6z
		 M512.1,717.5h-360v3h360V717.5z M662.1,567.5c-83.7,0-151.5,67.8-151.5,151.5h3c0-82,66.5-148.5,148.5-148.5V567.5z M660.6,153.5
		V569h3V153.5H660.6z M662.1,152c-82,0-148.5-66.5-148.5-148.5h-3c0,83.7,67.8,151.5,151.5,151.5V152z M513.6,3.5c0-0.5,0-1,0-1.5
		l-3,0c0,0.5,0,1,0,1.5H513.6z M152.1,3.5h360v-3h-360V3.5z M153.6,3.5c0-0.5,0-1,0-1.5l-3,0c0,0.5,0,1,0,1.5H153.6z"/>
</g>
</svg>
