<svg width="106" height="91" viewBox="0 0 106 91" fill="none" xmlns="http://www.w3.org/2000/svg">
<path d="M35.7332 45.0991C35.7332 28.4431 42.7712 13.8991 53.2332 6.11912C58.3812 2.29112 64.3592 0.0991211 70.7332 0.0991211H35.7332C16.4032 0.0991211 0.733215 20.2471 0.733215 45.0991C0.733215 69.9511 16.4032 90.0991 35.7332 90.0991H70.7332C64.3592 90.0991 58.3812 87.8991 53.2332 84.0791C42.7772 76.2971 35.7332 61.7551 35.7332 45.0991Z" fill="white"/>
<path d="M70.7332 45.0991C70.7332 28.4431 63.6952 13.8991 53.2332 6.11912C48.0852 2.29112 42.1072 0.0991211 35.7332 0.0991211H70.7332C90.0632 0.0991211 105.733 20.2471 105.733 45.0991C105.733 69.9511 90.0632 90.0991 70.7332 90.0991H35.7332C42.1072 90.0991 48.0852 87.8991 53.2332 84.0791C63.6952 76.2971 70.7332 61.7551 70.7332 45.0991Z" fill="#555555"/>
<path d="M53.179 6.15391C48.0524 2.30394 42.0993 0.0993652 35.7518 0.0993652H70.6063C64.2588 0.0993652 58.3056 2.30394 53.179 6.15391Z" fill="white"/>
</svg>
