<svg width="364" height="371" viewBox="0 0 364 371" fill="none" xmlns="http://www.w3.org/2000/svg">
<path d="M163.815 22.3329L165.116 22.1703C166.6 22.0458 167.03 21.6439 167.03 20.2562L166.839 2.75178C166.629 2.4803 166.357 2.26363 166.045 2.1203C165.734 1.97697 165.392 1.91126 165.049 1.92874L163.595 1.85216L163.47 1.33537L169.806 1.07695L177.194 18.3038H177.319L183.425 0.512298L189.655 0.253906L189.569 0.78027L187.578 0.962111C186.688 1.0961 186.42 1.38321 186.401 1.59377L187.502 19.8351C187.578 20.8687 187.798 21.1367 189.109 21.1845L190.526 21.2323L190.65 21.7396L181.836 22.1033L181.922 21.5769L183.769 21.3663C184.726 21.2611 184.927 20.8687 184.851 19.8734L183.712 2.06271H183.606L176.63 22.0937H176.084L168.112 3.45044C167.941 3.1779 167.746 2.92159 167.528 2.68478L167.834 20.1892C167.834 21.529 168.485 21.9214 170.313 21.9119L171.452 21.9693L171.576 22.4861L163.729 22.8019L163.815 22.3329Z" fill="#555555"/>
<path d="M199.809 20.8486H199.742C198.364 22.0449 196.823 23.0881 195.177 22.9541C194.707 22.9359 194.246 22.824 193.82 22.625C193.394 22.4261 193.012 22.1441 192.696 21.7955C192.381 21.447 192.138 21.0389 191.982 20.5953C191.826 20.1517 191.761 19.6814 191.789 19.2121C192 16.7716 194.086 15.3265 200.565 14.312L200.699 13.1444C201.101 9.68949 199.637 8.56018 197.675 8.3592C196.306 8.24435 194.804 8.91428 194.727 9.31624C194.651 9.7182 195.455 10.168 195.378 11.0293C195.357 11.2187 195.298 11.4018 195.204 11.5678C195.111 11.7338 194.985 11.8792 194.834 11.9954C194.683 12.1115 194.51 12.196 194.326 12.2438C194.141 12.2916 193.949 12.3017 193.761 12.2735C193.57 12.2779 193.38 12.2425 193.204 12.1697C193.027 12.0969 192.868 11.9882 192.735 11.8505C192.603 11.7129 192.501 11.5492 192.435 11.37C192.37 11.1907 192.342 10.9998 192.354 10.8092C192.497 9.12483 196.488 7.32558 199.168 7.5457C202.259 7.8041 203.637 9.13439 203.073 13.3358L202.116 20.619C201.991 21.6526 202.336 22.0545 203.025 22.1119C203.668 22.0426 204.267 21.7516 204.719 21.2889L204.968 21.6238C204.173 22.4565 203.054 23.6336 201.762 23.5379C200.47 23.4422 199.742 22.466 199.809 20.8486ZM199.867 20.1979L200.489 14.8193C195.617 15.5849 194.402 16.9056 194.249 18.724C194.197 19.0527 194.216 19.3885 194.302 19.7098C194.388 20.0311 194.541 20.3308 194.75 20.5896C194.959 20.8483 195.22 21.0604 195.516 21.2121C195.812 21.3639 196.137 21.452 196.469 21.4707C197.725 21.5088 198.945 21.0517 199.867 20.1979Z" fill="#555555"/>
<path d="M216.902 23.145H216.806C216.054 23.8405 215.159 24.3628 214.184 24.6753C213.208 24.9878 212.176 25.0829 211.16 24.9539C207.734 24.3318 205.59 20.8673 206.375 16.5988C206.515 15.5518 206.865 14.5438 207.404 13.6351C207.943 12.7264 208.659 11.9358 209.511 11.3104C210.362 10.685 211.331 10.2377 212.359 9.99528C213.388 9.75287 214.454 9.72029 215.495 9.89951C216.756 10.1092 217.95 10.6142 218.979 11.3734H219.046L220.118 5.43967C220.3 4.4252 220.194 4.05195 219.333 3.79355L217.754 3.22889L217.888 2.86521L222.979 2.76953L219.151 23.9681C219.036 24.6093 219.151 24.8677 219.658 25.04L221.304 25.6142L221.199 25.9779H216.414L216.902 23.145ZM217.046 22.3315L218.577 13.8904C218.31 13.0404 217.828 12.2738 217.177 11.6651C216.526 11.0563 215.73 10.6262 214.864 10.4163C212.05 9.90909 209.81 12.407 209.121 16.1586C208.471 19.7858 209.849 22.9728 212.768 23.5087C213.523 23.6306 214.297 23.5886 215.035 23.3855C215.773 23.1824 216.459 22.8229 217.046 22.3315Z" fill="#555555"/>
<path d="M223.467 19.6914C224.721 15.2794 228.702 12.5805 232.885 13.7577C236.158 14.7147 237.478 17.2413 236.761 19.7966C236.674 20.0839 236.568 20.3653 236.445 20.6388L226.788 17.8347C226.559 18.341 226.364 18.8621 226.204 19.3947C225.113 23.2229 226.626 26.496 229.612 27.3382C230.512 27.6351 231.478 27.676 232.401 27.4563C233.323 27.2367 234.167 26.765 234.837 26.094L235.143 26.3907C233.038 28.5153 230.683 29.5011 228.061 28.7642C224.29 27.6923 222.3 23.7684 223.467 19.6914ZM234.167 19.3468C234.856 17.0403 234.416 14.8009 232.387 14.2266C230.569 13.7194 228.243 15.0976 226.989 17.3562L234.167 19.3468Z" fill="#555555"/>
<path d="M241.575 31.95C241.709 31.6246 249.901 22.3795 250.571 21.6521L249.078 20.8578L245.518 23.1356L245.298 22.7527C247.738 20.5802 249.978 19.6232 251.193 20.1208C251.618 20.3576 251.949 20.7325 252.132 21.1833C252.315 21.6341 252.338 22.1338 252.198 22.5996C251.911 23.3078 244.369 31.5576 243.709 32.2849L245.144 33.1367L248.714 31.012L248.915 31.347C246.484 33.4908 244.254 34.333 243.326 33.9598C242.685 33.7014 241.374 32.3519 241.575 31.95ZM253.882 16.1587C254.019 15.7012 254.321 15.3112 254.73 15.065C255.139 14.8189 255.625 14.7345 256.093 14.8284C256.285 14.8926 256.461 14.9969 256.61 15.1344C256.758 15.272 256.876 15.4396 256.955 15.6261C257.033 15.8126 257.072 16.0137 257.067 16.2161C257.062 16.4185 257.014 16.6175 256.926 16.7999C256.787 17.2616 256.48 17.654 256.065 17.8988C255.649 18.1437 255.157 18.2229 254.686 18.1206C254.497 18.0545 254.324 17.949 254.179 17.8111C254.033 17.6732 253.919 17.506 253.843 17.3205C253.767 17.1351 253.731 16.9357 253.738 16.7354C253.745 16.5351 253.794 16.3385 253.882 16.1587Z" fill="#555555"/>
<path d="M256.313 38.4205C256.562 37.9324 259.184 35.4823 261.347 33.4534C262.672 32.3014 263.907 31.0505 265.041 29.7113C265.161 29.3559 265.145 28.9688 264.997 28.6244C264.848 28.2799 264.578 28.0024 264.237 27.8451C263.28 27.3857 258.792 29.8453 253.337 34.1042L250.839 36.7552L248.839 35.5685L252.829 31.3957L258.447 25.0984L257.222 24.304L253.499 26.3043L253.346 25.9214C255.93 23.8925 258.132 23.0503 259.347 23.6628C259.722 23.9541 259.998 24.3536 260.139 24.8073C260.279 25.2609 260.277 25.7468 260.132 26.199C259.749 26.9742 257.06 29.8357 254.389 32.4198L254.543 32.5729C257.309 30.4107 260.311 28.5679 263.491 27.0795C264.344 26.7336 265.298 26.7336 266.152 27.0795C266.684 27.36 267.097 27.8234 267.315 28.3843C267.533 28.9452 267.541 29.566 267.338 30.1324C266.159 31.716 264.8 33.1579 263.29 34.4296C261.682 35.98 258.706 38.7363 258.409 39.0138L259.711 39.8847L263.443 37.9707L263.615 38.3248C261.022 40.3154 258.83 41.014 257.921 40.5834C257.28 40.2867 256.103 38.8511 256.313 38.4205Z" fill="#555555"/>
<path d="M268.965 45.7329L270.458 46.5464C271.349 47.0058 271.731 47.0536 271.865 46.8526L282.45 30.7264C282.584 30.5254 282.45 30.3723 281.378 29.4822L280.249 28.6209L280.45 28.1328L287.934 33.052L287.561 33.4253L286.106 32.6309C285.149 32.1524 284.805 32.1045 284.671 32.3055L274.086 48.4318C273.952 48.6327 274.086 48.805 275.186 49.6951L276.287 50.5372L276.086 51.0253L268.602 46.1061L268.965 45.7329Z" fill="#555555"/>
<path d="M277.407 51.1593L278.134 51.6857C278.88 52.1834 279.196 52.3365 279.435 52.0398L285.656 44.0963C286.805 42.6321 286.824 42.1822 286.144 41.4645L285.388 40.6414L285.628 40.3926L290.04 42.3641L288.221 44.5749L288.279 44.661C290.193 44.6036 292.796 44.4791 294.614 45.9051C295.017 46.1882 295.357 46.5509 295.614 46.9706C295.87 47.3904 296.038 47.8584 296.107 48.3456C296.141 48.9739 296.048 49.6025 295.834 50.1942C295.62 50.786 295.29 51.329 294.863 51.791L288.843 59.4474C288.7 59.6388 288.69 59.7632 289.685 60.7202L290.346 61.2753L290.107 61.7443L284.632 57.4567L285.034 57.1122L285.752 57.6385C286.613 58.2223 286.853 58.1936 287.025 57.9735L292.547 50.9201C294.059 49.006 293.81 47.5321 292.202 46.2784C290.931 45.3715 289.373 44.9598 287.819 45.1204L281.235 53.5233C281.062 53.7434 281.187 53.9252 282.096 54.7674L282.776 55.3512L282.546 55.8202L277.014 51.4847L277.407 51.1593Z" fill="#555555"/>
<path d="M300.443 68.5581V68.4624C299.424 68.6281 298.381 68.5674 297.389 68.2845C296.396 68.0017 295.479 67.5036 294.7 66.8258C292.193 64.4141 292.346 60.337 295.361 57.2554C296.282 56.2305 297.454 55.463 298.762 55.0283C300.07 54.5936 301.469 54.5067 302.82 54.776C304.172 55.0454 305.43 55.6618 306.471 56.5646C307.513 57.4675 308.301 58.6257 308.759 59.9255H308.807L312.999 55.5805C313.717 54.8436 313.832 54.4703 313.257 53.7813L312.3 52.4318L312.616 52.2021L316.904 54.9584L301.945 70.4434C301.486 70.9124 301.419 71.1899 301.773 71.6206L302.816 73.0083L302.529 73.2572L298.538 70.6061L300.443 68.5581ZM301.017 67.9647L306.979 61.7917C307.228 60.9355 307.252 60.0297 307.049 59.1615C306.846 58.2933 306.423 57.4918 305.821 56.8342C303.764 54.8532 300.51 55.6858 297.83 58.4612C295.15 61.2366 294.653 64.5385 296.777 66.5961C297.345 67.1144 298.017 67.5048 298.748 67.7409C299.48 67.977 300.253 68.0533 301.017 67.9647Z" fill="#555555"/>
<path d="M302.778 73.5923L303.438 74.2909C304.07 74.8939 304.395 75.1044 304.625 74.846L312.166 68.1467C313.554 66.9121 313.659 66.5006 313.124 65.6105L312.54 64.7013L312.846 64.5195L316.818 67.2184L306.185 76.6835C305.984 76.8654 306.041 77.0376 306.788 78.033L307.343 78.7029L307.018 79.124L302.347 73.8698L302.778 73.5923ZM318.263 61.5622C318.43 61.4018 318.627 61.2768 318.844 61.1945C319.06 61.1122 319.291 61.0744 319.523 61.0833C319.754 61.0922 319.981 61.1477 320.191 61.2465C320.4 61.3452 320.587 61.4851 320.742 61.6579C320.893 61.8269 321.009 62.025 321.082 62.2402C321.155 62.4554 321.184 62.6832 321.166 62.9097C321.148 63.1362 321.084 63.3567 320.978 63.5577C320.872 63.7588 320.727 63.9363 320.55 64.0793C320.388 64.2454 320.193 64.3765 319.979 64.4647C319.764 64.5528 319.533 64.5961 319.301 64.5919C319.069 64.5877 318.84 64.5361 318.628 64.4402C318.417 64.3444 318.227 64.2063 318.071 64.0344C317.915 63.8625 317.795 63.6605 317.72 63.4409C317.645 63.2212 317.615 62.9884 317.633 62.7569C317.651 62.5254 317.716 62.3 317.825 62.0945C317.933 61.8891 318.082 61.7079 318.263 61.5622Z" fill="#555555"/>
<path d="M314.463 85.1627V85.0861C312.645 84.8852 310.836 84.4641 309.822 83.1721C309.517 82.814 309.288 82.3989 309.146 81.9509C309.004 81.503 308.953 81.0312 308.996 80.5633C309.038 80.0953 309.174 79.6407 309.395 79.2258C309.616 78.811 309.917 78.4445 310.281 78.1476C312.195 76.6546 314.693 77.1905 319.852 81.2867L320.809 80.5976C323.622 78.5495 323.46 76.712 322.254 75.1616C321.412 74.0705 319.88 73.3815 319.574 73.6208C319.268 73.86 319.44 74.7309 318.76 75.2573C318.606 75.3711 318.431 75.4524 318.244 75.4963C318.057 75.5401 317.864 75.5457 317.675 75.5126C317.486 75.4795 317.306 75.4084 317.146 75.3036C316.985 75.1989 316.847 75.0627 316.741 74.9032C316.609 74.7659 316.507 74.6025 316.442 74.4236C316.377 74.2446 316.349 74.054 316.362 73.8639C316.375 73.6738 316.427 73.4885 316.515 73.3197C316.603 73.1509 316.726 73.0025 316.875 72.8838C318.205 71.8502 322.235 73.5633 323.881 75.6784C325.795 78.1284 325.747 80.0425 322.273 82.4734L316.263 86.7036C315.43 87.3065 315.363 87.8425 315.784 88.388C316.274 88.8079 316.891 89.0507 317.536 89.077L317.459 89.479C316.31 89.479 314.664 89.4216 313.889 88.4167C313.114 87.4118 313.219 86.2155 314.463 85.1627ZM314.98 84.7608L319.363 81.5834C315.535 78.5208 313.707 78.5112 312.262 79.6693C311.985 79.8549 311.75 80.0967 311.572 80.379C311.394 80.6612 311.277 80.9777 311.23 81.3079C311.182 81.6381 311.204 81.9746 311.294 82.2957C311.385 82.6169 311.542 82.9154 311.755 83.1721C312.578 84.1074 313.737 84.6786 314.98 84.7608Z" fill="#555555"/>
<path d="M327.192 91.5176L331.595 98.7146L330.494 99.3462L326.053 92.0918L327.192 91.5176Z" fill="#555555"/>
<path d="M342.582 101.27H342.802L349.903 116.735L348.754 118.142H348.534L347.261 115.376L333.289 121.884L333.049 121.808L332.714 119.894L338.849 117.157L336.188 111.414L335.499 111.73C335.014 112.022 334.444 112.14 333.882 112.065C333.673 112.046 333.473 111.969 333.305 111.845C333.136 111.72 333.005 111.551 332.925 111.357C332.542 110.524 333.537 107.777 334.628 107.28C334.83 107.211 335.043 107.186 335.255 107.208C335.466 107.229 335.67 107.296 335.853 107.404C336.392 107.782 336.842 108.272 337.174 108.84L342.917 106.17L341.347 102.743L342.582 101.27ZM346.458 113.625L343.778 107.787L337.873 110.495L340.562 116.343L346.458 113.625Z" fill="#555555"/>
<path d="M348.161 113.855C349.013 112.965 349.874 112.075 350.707 111.127C352.133 109.52 352.678 108.687 351.96 106.878C351.57 105.941 351.059 105.059 350.439 104.256V104.093L352.257 102.438C352.931 103.314 353.479 104.28 353.884 105.309C355.061 108.256 353.386 109.635 348.764 115.013L348.563 114.965L348.161 113.855Z" fill="#555555"/>
<path d="M349.903 117.281L350.123 117.348L355.234 132.001L353.951 133.293L353.731 133.226L352.669 130.182L348.773 131.56L348.525 131.465C348.247 130.565 347.922 129.627 347.568 128.546C346.41 125.206 345.338 124.641 344.275 125.005C343.653 125.225 343.471 125.789 343.759 126.593C344.122 127.665 345.213 128.938 345.749 130.479C345.995 131.084 346.035 131.753 345.862 132.383C345.689 133.013 345.313 133.568 344.792 133.963C344.247 134.489 343.594 134.89 342.878 135.14C341.155 135.733 338.667 134.412 337.815 131.962C336.734 128.871 338.035 125.579 340.993 122.114H341.098L342.055 122.803C339.758 125.598 338.744 128.201 339.576 130.594C340.237 132.508 342.323 133.762 343.596 133.312C344.103 133.14 344.247 132.68 343.998 131.981C343.577 130.776 342.4 129.292 341.988 128.096C341.653 127.139 341.911 125.99 342.84 124.612C343.286 123.86 343.955 123.264 344.754 122.909C345.247 122.71 345.794 122.693 346.298 122.859C346.803 123.026 347.232 123.365 347.51 123.818C348.183 124.795 348.703 125.87 349.051 127.005L349.692 128.852C349.706 128.909 349.732 128.963 349.77 129.008C349.807 129.053 349.855 129.089 349.908 129.114C349.962 129.138 350.02 129.149 350.079 129.147C350.138 129.145 350.196 129.129 350.247 129.101L352.104 128.45L348.63 118.583L349.903 117.281Z" fill="#555555"/>
<path d="M341.567 144.862C341.902 144.785 354.171 146.259 355.157 146.393L354.946 144.709L351.051 143.082L351.243 142.68C354.42 143.455 356.478 144.756 356.765 146.029C356.816 146.51 356.702 146.994 356.441 147.402C356.18 147.809 355.788 148.115 355.329 148.269C354.592 148.441 343.519 146.939 342.534 146.805L342.658 148.47L346.438 150.202L346.276 150.556C343.136 149.781 341.165 148.422 340.945 147.446C340.753 146.776 341.117 144.929 341.567 144.862ZM361.569 146.01C362.032 145.859 362.535 145.889 362.976 146.096C363.417 146.302 363.762 146.668 363.943 147.12C364 147.315 364.014 147.52 363.986 147.72C363.957 147.921 363.886 148.114 363.778 148.285C363.669 148.456 363.525 148.602 363.355 148.713C363.186 148.824 362.995 148.898 362.794 148.929C362.335 149.079 361.837 149.05 361.398 148.848C360.96 148.645 360.614 148.285 360.43 147.838C360.37 147.643 360.353 147.437 360.379 147.235C360.405 147.032 360.475 146.838 360.583 146.664C360.691 146.491 360.835 146.343 361.005 146.23C361.175 146.117 361.368 146.042 361.569 146.01Z" fill="#555555"/>
<path d="M344.629 160.674C346.97 160.987 349.293 161.425 351.587 161.986C353.287 162.419 355.018 162.719 356.765 162.885C357.125 162.782 357.434 162.549 357.632 162.23C357.831 161.912 357.903 161.531 357.837 161.162C357.683 160.138 353.051 157.822 346.486 155.765L342.888 155.219L342.725 152.913L348.467 153.812L356.841 154.836V153.382L353.08 151.468L353.31 151.123C356.439 152.08 358.392 153.468 358.583 154.76C358.555 155.235 358.383 155.691 358.088 156.066C357.794 156.44 357.392 156.716 356.937 156.856C356.085 156.98 352.209 156.396 348.544 155.65V155.87C351.883 156.91 355.094 158.326 358.114 160.091C358.893 160.589 359.446 161.372 359.655 162.273C359.728 162.869 359.581 163.471 359.243 163.967C358.905 164.464 358.399 164.821 357.817 164.972C356.86 165.115 354.458 164.637 351.979 164.091C349.788 163.651 345.835 162.77 345.433 162.694V164.254L349.108 166.254L348.917 166.598C345.807 165.594 343.959 164.158 343.816 163.201C343.653 162.521 344.16 160.741 344.629 160.674Z" fill="#555555"/>
<path d="M356.995 179.136C357.118 178.404 357.314 177.686 357.578 176.992C358.449 175.7 359.435 174.886 360.641 174.867C361.022 174.853 361.402 174.917 361.757 175.056C362.112 175.195 362.434 175.406 362.704 175.675C362.974 175.945 363.185 176.267 363.324 176.622C363.463 176.978 363.527 177.357 363.512 177.738C363.479 178.966 362.987 180.137 362.134 181.021C360.899 182.495 359.933 182.935 356.918 183.031C355.961 183.031 355.1 183.031 354.315 183.031C354.315 183.605 354.315 184.275 354.315 184.945C354.315 186.103 354.315 187.366 354.315 188.697L360.88 188.582L360.813 184.514L362.431 183.682L362.612 183.816L362.766 192.85L361.148 193.683L360.957 193.549L360.909 190.505L345.5 190.84L345.309 190.678L345.788 188.764H352.487V187.625C352.508 186.102 352.393 184.581 352.142 183.079C350.305 182.61 349.597 181.949 349.587 181.165C349.587 180.677 349.922 180.016 350.984 179.088C351.446 178.618 352.06 178.329 352.717 178.274C353.01 178.272 353.296 178.37 353.526 178.553C353.756 178.736 353.916 178.992 353.98 179.279C354.164 179.886 354.311 180.502 354.42 181.126C355.492 181.184 356.573 181.203 357.818 181.184C361.33 181.126 361.866 180.055 361.856 179.031C361.867 178.773 361.825 178.516 361.733 178.274C361.642 178.033 361.502 177.813 361.324 177.627C361.145 177.441 360.93 177.293 360.693 177.192C360.456 177.092 360.2 177.04 359.942 177.04C358.765 177.04 358.028 178.054 357.454 179.356L356.995 179.136Z" fill="#555555"/>
<path d="M362.306 193.434L362.478 193.577L361.914 200.927L360.22 201.607L360.047 201.463L360.277 198.42L344.907 197.3L344.735 197.118L345.385 195.281L360.43 196.496L360.612 194.113L362.306 193.434Z" fill="#555555"/>
<path d="M361.808 200.908L361.981 201.071L360.382 213.044L358.66 213.627L358.497 213.474L359.042 209.368C358.084 209.424 357.122 209.382 356.171 209.244C354.955 209.126 353.802 208.642 352.866 207.856C351.93 207.071 351.254 206.019 350.927 204.842C348.722 206.46 346.815 208.448 345.29 210.718L343.309 209.282V209.081C345.551 206.73 348.131 204.727 350.965 203.138C351.856 202.599 352.872 202.302 353.913 202.277C354.238 202.311 354.54 202.46 354.764 202.698C354.949 202.927 355.075 203.197 355.133 203.485C355.192 203.773 355.18 204.071 355.099 204.354C355.008 205.062 354.88 205.764 354.717 206.459C355.449 206.958 356.295 207.267 357.176 207.359C357.857 207.465 358.547 207.497 359.234 207.454L360.028 201.492L361.808 200.908Z" fill="#555555"/>
<path d="M360.258 213.358L360.401 213.521L357.061 228.968L355.329 229.427L355.176 229.255L355.827 226.279L340.753 223.082L340.6 222.881L341.5 221.139L351.07 223.293C351.3 222.498 351.482 221.646 351.673 220.756C352.467 217.091 351.51 215.454 350.046 215.138C348.371 214.775 346.094 216.019 343.634 218.603L341.93 216.727V216.584C345.51 214.047 348.63 213.062 351.185 213.607C353.74 214.153 354.851 215.847 353.932 220.096C353.654 221.378 353.377 222.556 353.042 223.704L356.181 224.384L358.478 213.799L360.258 213.358Z" fill="#555555"/>
<path d="M346.323 235.419L343.567 243.391L342.371 242.942L345.156 234.902L346.323 235.419Z" fill="#555555"/>
<path d="M333.442 247.669L332.915 248.865C332.284 250.205 332.398 250.779 333.604 251.535L348.821 260.206C349.162 260.161 349.486 260.035 349.768 259.838C350.049 259.642 350.279 259.381 350.439 259.077L351.233 257.861L351.74 258.014L348.764 263.613L330.149 261.278V261.345L342.438 275.595L339.471 281.108L339.059 280.773L339.911 278.964C340.237 278.122 340.122 277.749 339.959 277.624L323.622 269.374C322.665 268.915 322.359 268.972 321.651 270.083L320.895 271.279L320.397 271.126L324.531 263.345L324.943 263.67L324.187 265.383C323.814 266.235 324.034 266.628 324.933 267.068L340.887 275.069L340.935 274.983L327.154 258.847L327.412 258.359L347.51 260.895C347.832 260.88 348.151 260.842 348.467 260.78L333.212 252.167C332.063 251.478 331.384 251.86 330.465 253.44L329.843 254.397L329.336 254.243L333.03 247.314L333.442 247.669Z" fill="#555555"/>
<path d="M316.55 279.462H316.617C316.282 277.663 316.157 275.806 317.105 274.457C317.359 274.062 317.689 273.721 318.076 273.455C318.463 273.189 318.899 273.003 319.359 272.908C319.819 272.812 320.293 272.81 320.754 272.9C321.215 272.99 321.653 273.171 322.043 273.433C324.043 274.839 324.235 277.376 321.833 283.482L322.79 284.18C325.575 286.267 327.278 285.578 328.417 283.97C329.211 282.85 329.374 281.175 329.106 280.965C328.838 280.754 327.996 281.156 327.297 280.658C327.144 280.544 327.014 280.399 326.918 280.234C326.821 280.068 326.759 279.884 326.734 279.694C326.71 279.504 326.725 279.31 326.777 279.126C326.83 278.941 326.919 278.769 327.039 278.62C327.133 278.455 327.26 278.31 327.412 278.197C327.565 278.083 327.739 278.002 327.924 277.959C328.109 277.916 328.301 277.911 328.488 277.946C328.675 277.981 328.853 278.054 329.01 278.16C330.398 279.117 329.967 283.491 328.388 285.683C326.599 288.219 324.761 288.736 321.421 286.123L315.621 281.615C314.798 280.993 314.272 281.079 313.87 281.615C313.599 282.217 313.548 282.894 313.726 283.529H313.315C312.999 282.429 312.549 280.85 313.315 279.807C314.081 278.763 315.181 278.582 316.55 279.462ZM317.076 279.835L321.402 283.089C323.201 278.505 322.684 276.792 321.191 275.739C320.934 275.528 320.635 275.374 320.314 275.286C319.993 275.198 319.657 275.178 319.328 275.228C318.999 275.277 318.684 275.395 318.403 275.574C318.122 275.753 317.882 275.988 317.698 276.265C317.36 276.788 317.128 277.373 317.017 277.985C316.905 278.598 316.915 279.227 317.047 279.835H317.076Z" fill="#555555"/>
<path d="M305.926 293.053L306.022 292.996C305.806 292.003 305.809 290.975 306.03 289.983C306.252 288.991 306.687 288.06 307.304 287.253C309.573 284.612 313.64 284.516 316.942 287.339C317.773 287.99 318.464 288.801 318.975 289.725C319.485 290.649 319.804 291.666 319.912 292.716C320.02 293.766 319.915 294.826 319.604 295.835C319.293 296.843 318.781 297.779 318.1 298.585C317.287 299.569 316.25 300.343 315.076 300.843V300.901L319.65 304.815C320.435 305.495 320.808 305.581 321.469 304.968L322.761 303.896L323 304.193L320.512 308.634L304.156 294.632C303.658 294.211 303.381 294.154 302.979 294.527L301.648 295.656L301.38 295.388L303.792 291.244L305.926 293.053ZM306.558 293.589L313.075 299.169C313.944 299.367 314.849 299.338 315.703 299.083C316.557 298.828 317.33 298.356 317.947 297.714C319.804 295.541 318.77 292.354 315.841 289.837C312.913 287.32 309.592 287.033 307.659 289.282C307.175 289.871 306.824 290.557 306.627 291.293C306.431 292.029 306.394 292.799 306.52 293.551L306.558 293.589Z" fill="#555555"/>
<path d="M305.563 300.47C308.74 303.772 309.066 308.576 305.946 311.591C303.486 313.965 300.615 313.811 298.777 311.897C298.571 311.681 298.379 311.451 298.203 311.208L305.563 304.27C305.241 303.819 304.889 303.391 304.51 302.987C301.735 300.116 298.155 299.781 295.897 301.934C295.189 302.564 294.669 303.378 294.395 304.285C294.122 305.192 294.105 306.158 294.346 307.074L293.925 307.189C293.15 304.318 293.494 301.762 295.447 299.877C298.27 297.149 302.692 297.427 305.563 300.47ZM300.471 309.888C302.117 311.649 304.299 312.395 305.783 310.931C307.151 309.62 307.123 306.911 305.783 304.691L300.471 309.888Z" fill="#555555"/>
<path d="M285.886 309.954C286.096 310.232 289.972 321.965 290.269 322.903L291.705 322.003L291.523 317.783H291.963C292.624 320.979 292.317 323.401 291.284 324.205C290.865 324.455 290.373 324.553 289.89 324.484C289.407 324.414 288.963 324.18 288.633 323.822C288.164 323.219 284.804 312.567 284.517 311.619L283.063 312.442L283.11 316.596H282.718C282.086 313.419 282.479 311.064 283.264 310.452C283.809 310.04 285.637 309.581 285.886 309.954ZM293.341 328.55C293.664 328.902 293.843 329.363 293.843 329.842C293.843 330.32 293.664 330.781 293.341 331.134C293.188 331.267 293.008 331.366 292.814 331.425C292.62 331.484 292.416 331.501 292.214 331.476C292.013 331.45 291.819 331.383 291.646 331.278C291.472 331.173 291.323 331.032 291.207 330.866C290.879 330.512 290.696 330.047 290.696 329.564C290.696 329.081 290.879 328.616 291.207 328.262C291.36 328.126 291.54 328.024 291.736 327.964C291.931 327.904 292.138 327.887 292.34 327.914C292.543 327.942 292.738 328.012 292.91 328.122C293.083 328.232 293.23 328.378 293.341 328.55Z" fill="#555555"/>
<path d="M272.861 319.475C273.569 321.725 274.163 324.009 274.641 326.318C274.969 328.045 275.429 329.744 276.019 331.4C276.267 331.682 276.611 331.862 276.984 331.905C277.357 331.947 277.733 331.849 278.038 331.63C278.899 331.056 279.043 325.887 278.096 319.064L277.052 315.561L279.072 314.432L280.689 319.973L283.321 327.993L284.623 327.333L284.757 323.112L285.168 323.169C285.628 326.414 285.168 328.768 284.115 329.496C283.674 329.674 283.187 329.712 282.723 329.604C282.259 329.496 281.84 329.248 281.522 328.893C281.043 328.175 279.914 324.423 279.033 320.786L278.823 320.844C279.311 324.332 279.401 327.863 279.091 331.371C278.975 332.288 278.504 333.123 277.78 333.697C277.27 334.018 276.662 334.144 276.067 334.05C275.472 333.957 274.932 333.651 274.545 333.19C273.766 331.376 273.201 329.478 272.861 327.534C272.325 325.361 271.435 321.399 271.339 321.007L269.932 321.696L269.683 325.868H269.291C268.879 322.634 269.396 320.346 270.2 319.81C270.774 319.389 272.593 319.073 272.861 319.475Z" fill="#555555"/>
<path d="M260.227 326.74L258.773 327.62C257.931 328.156 257.701 328.472 257.816 328.682L266.429 345.909C266.544 346.129 266.726 346.11 268.046 345.603L269.358 345.058L269.683 345.479L261.673 349.489L261.539 348.981L262.955 348.12C263.826 347.565 264.056 347.259 263.912 347.039L255.299 329.812C255.193 329.592 254.973 329.63 253.653 330.137L252.37 330.664L252.045 330.242L260.055 326.232L260.227 326.74Z" fill="#555555"/>
<path d="M251.308 331.324L250.494 331.688C249.681 332.08 249.394 332.272 249.537 332.645L253.289 342.024C253.978 343.747 254.332 343.938 255.327 343.766L256.409 343.517L256.505 343.852L252.59 346.723L251.633 344.044H251.518C250.561 345.747 249.413 348.044 247.269 348.896C246.821 349.104 246.335 349.218 245.841 349.231C245.348 349.244 244.856 349.156 244.398 348.972C243.842 348.68 243.348 348.281 242.946 347.799C242.543 347.316 242.24 346.759 242.053 346.159L238.436 337.105C238.34 336.875 238.244 336.808 236.904 337.191L236.1 337.478L235.804 337.038L242.273 334.454L242.369 334.971L241.546 335.334C240.589 335.784 240.522 336.014 240.589 336.291L243.919 344.618C244.829 346.886 246.216 347.403 248.111 346.647C249.543 345.961 250.676 344.777 251.298 343.316L247.327 333.392C247.231 333.143 247.011 333.152 245.824 333.516L244.972 333.813L244.685 333.372L251.212 330.76L251.308 331.324Z" fill="#555555"/>
<path d="M224.683 342.492H224.788C225.158 341.536 225.733 340.672 226.472 339.961C227.211 339.25 228.096 338.709 229.066 338.377C232.416 337.42 235.861 339.611 237.038 343.794C237.376 344.798 237.506 345.861 237.422 346.917C237.339 347.974 237.042 349.002 236.55 349.941C236.058 350.88 235.382 351.709 234.561 352.38C233.74 353.05 232.792 353.548 231.775 353.843C230.551 354.208 229.259 354.277 228.004 354.044H227.937L229.573 359.853C229.851 360.81 230.119 361.126 231.009 360.982L232.674 360.8V361.183L228.128 363.499L222.3 342.77C222.127 342.138 221.927 341.937 221.343 342.023L219.61 342.224L219.543 341.851L223.85 339.745L224.683 342.492ZM224.903 343.286L227.238 351.546C227.85 352.192 228.618 352.669 229.468 352.93C230.318 353.192 231.221 353.229 232.09 353.039C234.847 352.263 235.765 349.038 234.713 345.315C233.708 341.774 231.066 339.506 228.214 340.31C227.479 340.545 226.803 340.934 226.232 341.453C225.661 341.971 225.208 342.606 224.903 343.315V343.286Z" fill="#555555"/>
<path d="M219.132 341.967L218.175 342.197C217.342 342.436 217.017 342.57 217.093 342.934L219.103 352.887C219.467 354.706 219.773 355.002 220.816 354.964H221.898V355.309L217.572 357.376L214.768 343.317C214.71 343.049 214.529 343.02 213.294 343.164L212.442 343.298L212.241 342.81L219.132 341.422V341.967ZM221.706 361.415C221.758 361.64 221.765 361.874 221.725 362.102C221.686 362.331 221.601 362.549 221.477 362.744C221.352 362.939 221.189 363.107 220.999 363.239C220.808 363.371 220.593 363.463 220.367 363.51C220.144 363.553 219.915 363.551 219.693 363.504C219.471 363.457 219.261 363.366 219.075 363.237C218.888 363.108 218.73 362.943 218.608 362.751C218.487 362.56 218.404 362.346 218.366 362.123C218.32 361.903 218.317 361.677 218.358 361.457C218.399 361.236 218.483 361.026 218.605 360.838C218.727 360.65 218.885 360.488 219.07 360.361C219.255 360.234 219.463 360.145 219.682 360.099C219.902 360.052 220.128 360.049 220.348 360.09C220.569 360.131 220.779 360.215 220.967 360.337C221.155 360.46 221.317 360.618 221.444 360.802C221.571 360.987 221.66 361.195 221.706 361.415Z" fill="#555555"/>
<path d="M203.283 346.186H203.36C204.451 344.722 205.733 343.372 207.37 343.162C207.833 343.081 208.307 343.094 208.765 343.198C209.223 343.303 209.656 343.497 210.038 343.771C210.42 344.044 210.744 344.391 210.991 344.791C211.238 345.191 211.403 345.636 211.476 346.1C211.791 348.521 210.059 350.378 203.944 352.751L204.059 353.91C204.413 357.374 206.078 358.168 208.021 357.91C209.389 357.728 210.758 356.752 210.7 356.379C210.643 356.005 209.82 355.69 209.743 354.838C209.722 354.648 209.74 354.455 209.796 354.272C209.852 354.089 209.944 353.92 210.068 353.774C210.192 353.628 210.344 353.508 210.515 353.423C210.686 353.338 210.873 353.288 211.064 353.278C211.249 353.233 211.441 353.228 211.628 353.261C211.815 353.295 211.993 353.367 212.15 353.474C212.308 353.58 212.442 353.718 212.543 353.878C212.644 354.039 212.711 354.219 212.739 354.407C212.959 356.082 209.447 358.704 206.786 359.049C203.714 359.451 202.087 358.455 201.742 354.264L201.13 346.942C201.025 345.909 200.604 345.583 199.915 345.679C199.276 345.874 198.73 346.292 198.374 346.856L198.058 346.579C198.661 345.621 199.513 344.196 200.776 344.033C202.039 343.87 203.006 344.617 203.283 346.186ZM203.369 346.827L203.905 352.216C208.499 350.435 209.408 348.885 209.169 347.076C209.149 346.744 209.06 346.419 208.907 346.124C208.754 345.828 208.541 345.568 208.281 345.359C208.022 345.151 207.721 345 207.399 344.915C207.078 344.829 206.742 344.813 206.413 344.865C205.799 344.979 205.214 345.214 204.692 345.556C204.169 345.897 203.72 346.339 203.369 346.856V346.827Z" fill="#555555"/>
<path d="M191.358 353.978L182.917 354.141V352.887L191.425 352.725L191.358 353.978Z" fill="#555555"/>
<path d="M175.194 362.323L175.041 362.495L158.12 360.82L157.479 359.117L157.632 358.945L160.656 359.251L162.082 343.938L162.274 343.775L164.111 344.464L163.384 351.164L169.71 351.786L169.787 351.03C169.785 350.463 169.97 349.911 170.313 349.46C170.438 349.3 170.603 349.176 170.791 349.1C170.979 349.025 171.184 349 171.385 349.03C172.342 349.116 174.16 351.365 174.045 352.552C174.003 352.754 173.917 352.944 173.793 353.11C173.669 353.275 173.51 353.411 173.328 353.509C172.729 353.79 172.075 353.934 171.414 353.93L170.792 360.275L174.534 360.648L175.194 362.323ZM162.561 359.452L168.954 360.083L169.595 353.623L163.202 352.992L162.561 359.452Z" fill="#555555"/>
<path d="M161.479 360.802C161.814 361.998 162.149 363.185 162.551 364.381C163.221 366.42 163.661 367.319 165.595 367.607C166.598 367.745 167.616 367.745 168.619 367.607L168.743 367.721L169.251 370.133C168.159 370.294 167.05 370.294 165.958 370.133C162.81 369.664 162.465 367.52 160.159 360.821L160.302 360.668L161.479 360.802Z" fill="#555555"/>
<path d="M157.651 360.543L157.489 360.696L142.252 357.72L141.774 355.969L141.946 355.816L145.114 356.428L145.889 352.361L146.1 352.198C147.057 352.409 148.014 352.6 149.114 352.82C152.579 353.5 153.613 352.82 153.833 351.758C153.957 351.107 153.565 350.676 152.723 350.514C151.612 350.293 149.957 350.59 148.358 350.274C147.712 350.18 147.115 349.877 146.658 349.41C146.201 348.943 145.911 348.339 145.832 347.69C145.664 346.947 145.664 346.175 145.832 345.432C146.176 343.652 148.579 342.168 151.115 342.666C154.34 343.288 156.522 346.063 158.034 350.322V350.437L156.972 350.887C155.718 347.499 153.986 345.307 151.488 344.819C149.526 344.436 147.373 345.594 147.114 346.915C147.019 347.451 147.334 347.805 148.071 347.949C149.335 348.188 151.201 347.949 152.435 348.159C153.45 348.36 154.302 349.164 155.019 350.657C155.455 351.426 155.63 352.316 155.517 353.193C155.435 353.715 155.173 354.193 154.776 354.542C154.379 354.892 153.873 355.091 153.345 355.107C152.16 355.193 150.969 355.096 149.813 354.82L147.899 354.447C147.843 354.431 147.783 354.428 147.726 354.438C147.668 354.448 147.613 354.471 147.566 354.505C147.518 354.539 147.478 354.583 147.45 354.634C147.421 354.686 147.405 354.743 147.401 354.801L147.028 356.715L157.221 358.821L157.651 360.543Z" fill="#555555"/>
<path d="M126.978 356.16C126.633 357.241 125.629 357.901 124.873 357.662C124.678 357.609 124.496 357.515 124.34 357.387C124.184 357.259 124.056 357.1 123.966 356.919C123.876 356.739 123.824 356.541 123.816 356.339C123.807 356.137 123.841 355.936 123.915 355.748C124.289 354.676 125.294 354.016 126.05 354.255C126.242 354.31 126.42 354.405 126.573 354.534C126.726 354.662 126.85 354.821 126.938 355.001C127.025 355.18 127.074 355.376 127.081 355.576C127.088 355.776 127.053 355.974 126.978 356.16ZM138.08 339.488C137.974 339.813 130.51 349.661 129.907 350.446L131.457 351.126L134.835 348.58L135.075 348.944C132.816 351.298 130.653 352.418 129.409 352.025C128.964 351.824 128.601 351.474 128.384 351.037C128.166 350.599 128.105 350.1 128.213 349.623C128.442 348.896 135.323 340.053 135.926 339.306L134.424 338.579L131.026 340.971L130.806 340.646C133.055 338.33 135.228 337.315 136.175 337.622C136.807 337.803 138.214 339.048 138.08 339.488Z" fill="#555555"/>
<path d="M122.843 334.137C121.39 335.997 119.841 337.779 118.202 339.478C116.97 340.73 115.834 342.074 114.804 343.497C114.713 343.862 114.76 344.248 114.937 344.581C115.114 344.913 115.408 345.168 115.761 345.297C116.718 345.679 121.044 342.885 126.145 338.214L128.442 335.343L130.519 336.367L126.863 340.837L121.752 347.536L123.025 348.235L126.586 345.957L126.767 346.33C124.356 348.551 122.174 349.527 120.958 349.039C120.565 348.774 120.263 348.396 120.092 347.954C119.921 347.513 119.889 347.029 120.001 346.569C121.564 344.208 123.329 341.986 125.274 339.928L125.112 339.784C122.523 342.156 119.672 344.224 116.613 345.947C115.794 346.367 114.843 346.453 113.962 346.187C113.411 345.948 112.965 345.518 112.704 344.977C112.444 344.435 112.388 343.818 112.546 343.239C113.601 341.568 114.844 340.024 116.249 338.635C117.742 336.97 120.499 333.994 120.767 333.697L119.398 332.922L115.819 335.085L115.627 334.75C118.058 332.568 120.231 331.697 121.121 332.061C121.733 332.357 123.016 333.745 122.843 334.137Z" fill="#555555"/>
<path d="M100.439 335.439C101.006 335.922 101.519 336.465 101.97 337.057C102.631 338.464 102.812 339.727 102.2 340.77C102.015 341.111 101.76 341.409 101.452 341.645C101.144 341.881 100.79 342.05 100.413 342.14C100.036 342.23 99.6437 342.24 99.2623 342.169C98.881 342.098 98.5189 341.947 98.1995 341.727C97.1648 341.068 96.4165 340.042 96.1036 338.856C95.4911 337.038 95.5772 335.985 97.0606 333.353C97.5583 332.511 98.0177 331.793 98.4196 331.133L96.7831 330.176C95.8261 329.592 94.7063 328.941 93.5674 328.262L90.2656 333.927L93.778 335.975L93.6535 337.794L93.443 337.889L85.6431 333.334L85.7675 331.515L85.978 331.42L88.6099 332.961L96.2663 319.562L96.5055 319.485L97.8933 320.873L94.4766 326.615L95.4337 327.19C96.7233 327.993 98.0812 328.682 99.4915 329.247C100.851 327.927 101.779 327.668 102.42 328.041C102.841 328.281 103.234 328.922 103.473 330.31C103.642 330.951 103.57 331.631 103.272 332.224C103.119 332.472 102.886 332.663 102.612 332.763C102.338 332.864 102.037 332.869 101.76 332.779C101.148 332.622 100.548 332.427 99.9605 332.195C99.3384 333.075 98.7737 333.994 98.1421 335.066C96.3716 338.109 97.0032 339.114 97.8933 339.641C98.1086 339.782 98.3502 339.878 98.6036 339.924C98.8571 339.97 99.1171 339.964 99.3682 339.907C99.6193 339.849 99.8563 339.742 100.065 339.591C100.274 339.44 100.45 339.249 100.583 339.028C101.176 338.014 100.707 336.875 99.8935 335.698L100.439 335.439Z" fill="#555555"/>
<path d="M85.6432 332.837L85.4231 332.913L79.3745 328.712L79.6425 326.912L79.8626 326.836L82.3605 328.568L91.0887 315.878L91.3376 315.82L92.5913 317.313L83.9779 329.678L85.9398 331.037L85.6432 332.837Z" fill="#555555"/>
<path d="M79.451 328.645L79.2309 328.712L69.6604 321.285L70.0241 319.505L70.2442 319.438L73.5077 321.984C73.9384 321.139 74.4547 320.34 75.0486 319.601C75.7651 318.61 76.7644 317.858 77.9155 317.445C79.0666 317.031 80.3157 316.976 81.4991 317.285C81.2142 314.567 80.4631 311.919 79.2787 309.456L81.5182 308.499L81.6713 308.623C82.5714 311.732 82.9973 314.958 82.9346 318.194C82.9506 319.234 82.6932 320.261 82.1881 321.17C81.9963 321.43 81.7181 321.614 81.4033 321.687C81.112 321.733 80.814 321.708 80.5343 321.614C80.2546 321.521 80.0013 321.362 79.7955 321.151C79.2322 320.714 78.6923 320.248 78.1781 319.754C77.3744 320.133 76.6773 320.705 76.1492 321.419C75.7179 321.955 75.3457 322.536 75.039 323.151L79.7764 326.846L79.451 328.645Z" fill="#555555"/>
<path d="M69.5168 321.018H69.2871L57.6877 310.395L58.195 308.643H58.4151L60.6641 310.691L70.9811 299.293H71.2299L72.2827 300.93L65.5834 308.146C66.1576 308.739 66.7988 309.323 67.4975 309.935C70.2633 312.471 72.1583 312.471 73.1727 311.371C74.3308 310.108 74.4073 307.543 73.412 304.088L75.8716 303.542L75.9865 303.638C76.3693 308.002 75.6515 311.199 73.8905 313.122C72.1296 315.046 70.1102 315.161 66.9137 312.223C65.9566 311.342 65.057 310.51 64.2339 309.639L62.071 312.012L70.0528 319.324L69.5168 321.018Z" fill="#555555"/>
<path d="M57.4677 297.867L51.9456 291.464L52.9026 290.66L58.4535 297.111L57.4677 297.867Z" fill="#555555"/>
<path d="M53.362 280.582L52.5773 279.52C51.7351 278.304 51.1608 278.094 49.9262 278.783L34.8049 287.607C34.6717 287.922 34.617 288.266 34.6453 288.607C34.6736 288.949 34.7842 289.279 34.9676 289.569L35.6184 290.87L35.2356 291.234L31.8476 285.893L43.1886 270.944V270.887L24.6985 274.38L21.4062 269.088L21.8944 268.906L23.0428 270.542C23.5979 271.251 23.9998 271.337 24.1721 271.26L39.4849 261.259C40.3366 260.685 40.4419 260.359 39.8581 259.192L39.1977 257.938L39.5806 257.584L44.251 265.068L43.7533 265.25L42.6527 263.747C42.1072 262.991 41.6956 262.982 40.8247 263.546L25.8948 273.337L25.9522 273.423L46.8254 269.595L47.1125 270.064L34.8432 286.2C34.6925 286.486 34.5645 286.784 34.4604 287.09L49.5338 278.18C50.711 277.529 50.7206 276.754 49.8114 275.165L49.2946 274.15L49.6774 273.787L53.831 280.486L53.362 280.582Z" fill="#555555"/>
<path d="M34.3264 250.024V250.1C36.049 250.703 37.7239 251.536 38.413 253.038C38.6274 253.456 38.7565 253.912 38.7926 254.38C38.8287 254.848 38.7711 255.319 38.6232 255.764C38.4752 256.21 38.2399 256.621 37.9311 256.975C37.6222 257.329 37.2459 257.617 36.8243 257.823C34.6039 258.847 32.307 257.737 28.2108 252.598L27.1294 253.057C23.9233 254.416 23.6649 256.244 24.4879 258.024C25.0622 259.278 26.402 260.293 26.7466 260.13C27.0911 259.967 27.1389 259.087 27.9142 258.723C28.0915 258.641 28.2839 258.597 28.4791 258.594C28.6744 258.591 28.8682 258.628 29.0483 258.703C29.2283 258.779 29.3906 258.891 29.5249 259.033C29.6592 259.175 29.7625 259.343 29.8282 259.527C29.9236 259.689 29.9842 259.869 30.0063 260.056C30.0284 260.243 30.0115 260.432 29.9566 260.612C29.9017 260.792 29.8101 260.959 29.6875 261.101C29.5649 261.244 29.4141 261.36 29.2444 261.441C27.7132 262.149 24.1721 259.527 23.0524 257.125C21.7508 254.311 22.2293 252.464 26.1628 250.875L32.9769 248.119C33.934 247.717 34.1158 247.219 33.8287 246.597C33.4511 246.072 32.9033 245.693 32.2783 245.525L32.441 245.143C33.5607 245.43 35.1494 245.832 35.6758 246.99C36.2022 248.148 35.7619 249.277 34.3264 250.024ZM33.733 250.291L28.7468 252.397C31.8093 256.225 33.532 256.665 35.2068 255.909C35.5195 255.793 35.8042 255.612 36.0425 255.378C36.2808 255.144 36.4673 254.863 36.59 254.553C36.7127 254.242 36.7689 253.91 36.7548 253.576C36.7407 253.243 36.6568 252.916 36.5084 252.617C35.9304 251.514 34.945 250.68 33.7617 250.291H33.733Z" fill="#555555"/>
<path d="M27.8949 234.001V234.107C28.8733 234.417 29.7715 234.939 30.5258 235.635C31.28 236.331 31.8717 237.185 32.259 238.136C33.4074 241.419 31.4455 244.988 27.3493 246.414C26.3697 246.807 25.321 246.998 24.2659 246.975C23.2108 246.953 22.171 246.718 21.2088 246.285C20.2465 245.852 19.3815 245.229 18.6656 244.453C17.9496 243.678 17.3974 242.766 17.042 241.773C16.6022 240.574 16.4514 239.289 16.6017 238.021V237.954L10.8594 239.945C9.9024 240.289 9.61527 240.557 9.81625 241.438L10.1034 243.093L9.72055 243.151L7.12695 238.768L27.4546 231.666C28.0671 231.446 28.2585 231.236 28.1341 230.709L27.8279 228.986L28.2011 228.9L30.565 233.064L27.8949 234.001ZM27.1196 234.279L19.023 237.083C18.4152 237.734 17.9857 238.53 17.7761 239.395C17.5665 240.26 17.5839 241.165 17.8267 242.021C18.7838 244.73 22.0473 245.438 25.6937 244.165C29.1677 242.95 31.2637 240.174 30.2875 237.38C30.0128 236.666 29.5878 236.02 29.0412 235.485C28.4946 234.949 27.8392 234.538 27.1196 234.279Z" fill="#555555"/>
<path d="M21.6551 229.974C17.2048 231.065 12.8885 228.921 11.8549 224.7C11.051 221.389 12.6301 218.958 15.2046 218.355C15.4976 218.287 15.795 218.239 16.0946 218.212L18.4489 228.002C18.9998 227.954 19.5466 227.867 20.0855 227.744C23.9711 226.787 26.0575 223.916 25.3205 220.863C25.1351 219.933 24.6951 219.073 24.0496 218.378C23.4041 217.684 22.5784 217.182 21.6646 216.929L21.7795 216.518C24.6506 217.302 26.6795 218.862 27.3208 221.513C28.2204 225.322 25.7704 228.969 21.6551 229.974ZM16.0946 220.815C13.7403 221.351 12.008 222.844 12.5057 224.882C12.9555 226.72 15.3098 228.06 17.8939 228.04L16.0946 220.815Z" fill="#555555"/>
<path d="M3.59549 205.214C3.13059 205.321 2.64224 205.252 2.22619 205.018C1.81013 204.784 1.49638 204.403 1.34644 203.95C1.30802 203.751 1.31242 203.545 1.35932 203.348C1.40622 203.15 1.49456 202.965 1.6185 202.803C1.74244 202.642 1.89914 202.51 2.07827 202.414C2.2574 202.318 2.45486 202.261 2.65758 202.247C3.12671 202.152 3.61427 202.232 4.02849 202.472C4.44271 202.712 4.75503 203.095 4.90665 203.548C4.94218 203.746 4.93549 203.948 4.88704 204.142C4.83858 204.337 4.74946 204.519 4.62555 204.676C4.50164 204.833 4.34576 204.963 4.1682 205.055C3.99064 205.148 3.79544 205.202 3.59549 205.214ZM23.4063 208.171C23.0714 208.219 10.9647 205.635 10.0077 205.415L10.0555 207.109L13.788 209.09L13.5679 209.463C10.4671 208.41 8.54342 206.927 8.37115 205.635C8.36842 205.149 8.53219 204.677 8.8352 204.297C9.13821 203.918 9.56217 203.653 10.0364 203.548C10.7925 203.443 21.6837 205.941 22.6503 206.161V204.496L19.0518 202.429L19.2432 202.094C22.3057 203.147 24.1337 204.678 24.2677 205.673C24.3825 206.343 23.8562 208.152 23.4063 208.171Z" fill="#555555"/>
<path d="M21.7892 192.159C19.4902 191.636 17.2191 190.997 14.9846 190.245C13.3267 189.662 11.6282 189.201 9.90271 188.867C9.53456 188.941 9.20636 189.147 8.98051 189.447C8.75466 189.747 8.64688 190.12 8.67768 190.494C8.7351 191.527 13.0992 194.245 19.4923 196.896L23.0334 197.767V200.083L17.4347 198.667L9.13707 196.887L9.05093 198.342L12.6303 200.591L12.3719 200.916C9.32847 199.672 7.51966 198.112 7.4431 196.81C7.51706 196.343 7.73165 195.91 8.05824 195.568C8.38483 195.226 8.8079 194.992 9.27106 194.896C10.1324 194.896 13.9414 195.777 17.5304 196.81L17.5782 196.6C14.3334 195.263 11.251 193.561 8.39058 191.527C7.66534 190.964 7.18817 190.14 7.06029 189.231C7.03805 188.629 7.23558 188.04 7.61599 187.573C7.9964 187.106 8.53368 186.794 9.12749 186.694C11.0894 186.941 13.0163 187.413 14.8698 188.101C17.0136 188.742 20.88 190.015 21.2628 190.092L21.3873 188.532L17.9036 186.206L18.1333 185.881C21.1384 187.163 22.8515 188.752 22.9185 189.709C22.9281 190.398 22.2773 192.102 21.7892 192.159Z" fill="#555555"/>
<path d="M21.9038 177.545V175.852C21.9038 174.894 21.7124 174.493 21.4732 174.483L2.17912 173.239C1.93029 173.239 1.85373 173.392 1.62403 174.789L1.43263 176.196L0.90625 176.263L1.49005 167.324L1.99728 167.458V169.114C1.99728 170.157 2.18869 170.511 2.42795 170.53L21.6742 171.765C21.9134 171.765 21.9995 171.583 22.2292 170.186L22.4206 168.817L22.9375 168.741L22.3632 177.679L21.9038 177.545Z" fill="#555555"/>
<path d="M22.4494 167.536L22.5451 166.646C22.6121 165.756 22.593 165.402 22.2198 165.345L12.2378 163.852C10.4002 163.574 10.0174 163.765 9.70159 164.732L9.36662 165.794L9.03166 165.708L8.57227 160.923L11.386 161.411V161.315C10.4289 159.669 9.00295 157.487 9.34749 155.19C9.39353 154.7 9.53958 154.225 9.77662 153.794C10.0137 153.362 10.3367 152.984 10.7256 152.683C11.2559 152.346 11.8483 152.118 12.4679 152.013C13.0874 151.907 13.7218 151.927 14.3337 152.07L23.9807 153.515C24.22 153.515 24.3253 153.515 24.6698 152.156L24.8325 151.305H25.3589L24.3253 158.186L23.8372 158.004L23.9329 157.114C24.019 156.08 23.8754 155.889 23.5979 155.841L14.7356 154.52C12.3239 154.157 11.1659 155.104 10.9075 157.114C10.753 158.667 11.1642 160.223 12.0655 161.497L22.593 163.076C22.8705 163.076 22.9663 162.923 23.2534 161.717L23.4161 160.837H23.9424L22.9088 167.785L22.4494 167.536Z" fill="#555555"/>
<path d="M26.2296 138.929L26.1721 139.015C26.8083 139.813 27.2621 140.741 27.5018 141.733C27.7416 142.725 27.7614 143.757 27.5599 144.758C26.6889 148.126 23.0713 150.002 18.8603 148.911C17.8303 148.692 16.855 148.268 15.9924 147.663C15.1298 147.059 14.3976 146.288 13.8395 145.395C13.2813 144.502 12.9087 143.506 12.7436 142.465C12.5786 141.425 12.6245 140.363 12.8788 139.341C13.1819 138.099 13.7719 136.945 14.6014 135.972V135.905L8.76348 134.393C7.80643 134.134 7.38533 134.211 7.05994 135.053L6.38043 136.584L6.03589 136.431L6.32301 131.34L27.1675 136.747C27.7991 136.91 28.0671 136.833 28.2681 136.316L28.9763 134.718L29.3304 134.852L28.9763 139.637L26.2296 138.929ZM25.4256 138.719L17.128 136.594C16.2606 136.798 15.4603 137.222 14.8048 137.825C14.1492 138.429 13.6605 139.192 13.386 140.039C12.6682 142.805 14.9938 145.227 18.7263 146.193C22.2961 147.15 25.5883 145.973 26.3253 143.112C26.5021 142.358 26.5132 141.575 26.3579 140.816C26.2026 140.058 25.8845 139.342 25.4256 138.719Z" fill="#555555"/>
<path d="M11.3858 126.832C11.1631 126.766 10.9561 126.655 10.7772 126.507C10.5983 126.359 10.4512 126.176 10.3448 125.969C10.2384 125.763 10.1749 125.537 10.1581 125.305C10.1413 125.073 10.1715 124.841 10.2469 124.621C10.3536 124.292 10.5553 124.002 10.8266 123.788C11.0978 123.573 11.4265 123.444 11.7711 123.416C12.1158 123.388 12.461 123.463 12.7633 123.631C13.0656 123.798 13.3114 124.052 13.4698 124.36C13.6281 124.667 13.6919 125.014 13.6532 125.358C13.6144 125.701 13.4748 126.026 13.2519 126.29C13.0291 126.555 12.7329 126.747 12.4008 126.844C12.0687 126.94 11.7156 126.936 11.3858 126.832ZM29.474 134.421L29.7515 133.464C29.9716 132.631 30.0099 132.277 29.6558 132.163L20.0854 128.889C18.3244 128.287 17.9224 128.401 17.4248 129.32L16.9175 130.277L16.6113 130.095L17.0132 125.31L30.4693 129.923C30.7373 130.009 30.8521 129.875 31.3498 128.727L31.6656 127.923L32.192 127.999L29.9334 134.68L29.474 134.421Z" fill="#555555"/>
<path d="M33.819 118.554L33.7616 118.602C34.4698 120.287 34.9962 122.076 34.355 123.598C34.1904 124.039 33.94 124.442 33.6183 124.785C33.2965 125.128 32.9099 125.404 32.4807 125.596C32.0515 125.788 31.5884 125.893 31.1183 125.905C30.6481 125.917 30.1803 125.836 29.742 125.665C27.4929 124.708 26.756 122.277 27.8279 115.798L26.7656 115.31C23.5978 113.865 22.0761 114.908 21.3104 116.717C20.7745 117.99 20.9276 119.664 21.3104 119.808C21.6932 119.952 22.344 119.387 23.1384 119.722C23.3104 119.801 23.465 119.914 23.5931 120.053C23.7211 120.193 23.8201 120.356 23.8843 120.534C23.9484 120.713 23.9765 120.902 23.9667 121.091C23.9569 121.28 23.9096 121.465 23.8275 121.636C23.7723 121.818 23.6797 121.987 23.5554 122.132C23.4312 122.277 23.2781 122.394 23.106 122.476C22.934 122.558 22.7466 122.603 22.5561 122.608C22.3655 122.614 22.176 122.579 21.9995 122.507C20.4395 121.856 19.9514 117.502 20.9946 115.023C22.2005 112.152 23.8657 111.262 27.6939 113.109L34.3262 116.277C35.2833 116.707 35.7618 116.506 36.0298 115.865C36.1673 115.216 36.076 114.54 35.7714 113.951L36.1638 113.817C36.7093 114.831 37.4845 116.277 36.9868 117.454C36.4892 118.631 35.3407 119.119 33.819 118.554ZM33.2161 118.296L28.2969 116.037C27.5216 120.909 28.3926 122.478 30.077 123.186C30.3745 123.337 30.7004 123.424 31.0335 123.44C31.3667 123.457 31.6996 123.404 32.0108 123.284C32.3221 123.164 32.6046 122.98 32.8403 122.744C33.0759 122.508 33.2594 122.225 33.3788 121.914C33.8005 120.733 33.7421 119.434 33.2161 118.296Z" fill="#555555"/>
<path d="M33.1108 104.362L37.2357 97.002L38.3363 97.6527L34.1731 105.079L33.1108 104.362Z" fill="#555555"/>
<path d="M34.1061 86.1662L34.0295 85.9557L44.0307 72.1934L45.8204 72.4996L45.8873 72.7102L44.0977 75.1793L56.6158 84.166L56.6733 84.4149L55.142 85.6494L49.7538 81.649L46.0118 86.8266L46.6243 87.2668C47.117 87.5521 47.5009 87.9931 47.7153 88.5206C47.7906 88.7096 47.8152 88.915 47.7867 89.1164C47.7581 89.3179 47.6774 89.5084 47.5526 89.669C47.0071 90.4155 44.1264 90.8845 43.1598 90.1858C43.0019 90.0439 42.8765 89.8695 42.7922 89.6746C42.708 89.4796 42.6669 89.2688 42.6717 89.0565C42.7289 88.4012 42.9316 87.7669 43.265 87.1999L38.1066 83.4578L35.8958 86.5012L34.1061 86.1662ZM42.9779 76.7298L39.1976 81.9265L44.4518 85.7547L48.28 80.558L42.9779 76.7298Z" fill="#555555"/>
<path d="M42.375 75.1411C41.1787 74.8253 39.9824 74.5095 38.7478 74.251C36.6519 73.7917 35.647 73.7247 34.4316 75.2081C33.8016 76.005 33.2832 76.884 32.8907 77.8208H32.728L30.3928 77.0456C30.8284 76.0308 31.4016 75.0808 32.0964 74.2223C34.0966 71.7436 36.116 72.5379 43.0641 73.9352L43.1215 74.1267L42.375 75.1411Z" fill="#555555"/>
<path d="M44.4614 71.9467L44.4136 71.7266L54.6731 60.0889L56.4341 60.5674L56.4819 60.7875L54.3477 63.2088L57.4581 65.9364V66.1948C56.8169 66.8743 56.1565 67.6208 55.4004 68.4822C53.0653 71.1332 53.094 72.3103 53.9362 73.0951C54.4338 73.5258 55.0081 73.4014 55.5727 72.7601C56.3192 71.9179 56.903 70.3388 57.9749 69.1138C58.3833 68.6029 58.9487 68.2407 59.5836 68.0833C60.2184 67.9259 60.8875 67.9819 61.4873 68.2429C62.2119 68.4666 62.8806 68.8417 63.4492 69.3435C64.8178 70.5494 64.8848 73.3727 63.1717 75.3155C60.9992 77.7751 57.506 78.2536 53.027 77.3827L52.9409 77.2966L53.094 76.1577C56.6446 76.7798 59.4105 76.3969 61.0949 74.4924C62.4156 72.9898 62.5018 70.5494 61.4969 69.6593C61.0949 69.3052 60.6164 69.4009 60.1283 69.956C59.2861 70.9131 58.5683 72.6645 57.7356 73.6119C57.0561 74.3871 55.9364 74.7125 54.2807 74.569C53.3987 74.5533 52.5443 74.2584 51.8402 73.7268C51.4255 73.3894 51.1426 72.917 51.0411 72.3921C50.9396 71.8672 51.026 71.3233 51.2852 70.8556C51.8091 69.8019 52.49 68.8338 53.3045 67.9845L54.5965 66.5202C54.6397 66.4809 54.6732 66.4322 54.6947 66.378C54.7161 66.3237 54.7249 66.2652 54.7203 66.207C54.7156 66.1489 54.6978 66.0925 54.668 66.0423C54.6383 65.9921 54.5975 65.9493 54.5487 65.9173L53.0748 64.6061L46.2032 72.473L44.4614 71.9467Z" fill="#555555"/>
<path d="M63.7173 47.7043C63.3628 47.3827 63.1416 46.9401 63.0973 46.4635C63.053 45.987 63.1889 45.5111 63.4781 45.1298C63.6193 44.9836 63.7901 44.8692 63.9791 44.7944C64.168 44.7196 64.3708 44.6861 64.5738 44.6961C64.7769 44.706 64.9754 44.7593 65.1561 44.8523C65.3369 44.9452 65.4957 45.0757 65.6219 45.2351C65.9659 45.5681 66.177 46.0149 66.2158 46.4922C66.2545 46.9695 66.1183 47.4445 65.8324 47.8287C65.6917 47.9718 65.522 48.0831 65.3348 48.1552C65.1475 48.2273 64.947 48.2585 64.7466 48.2467C64.5463 48.235 64.3508 48.1805 64.1733 48.0869C63.9957 47.9933 63.8403 47.8629 63.7173 47.7043ZM72.57 65.6776C72.3403 65.4192 67.5838 54.0112 67.2106 53.0924L65.842 54.0973L66.3492 58.2988H65.909C65.0094 55.1501 65.1338 52.7192 66.1004 51.8387C66.4988 51.5582 66.9816 51.4233 67.4677 51.4564C67.9538 51.4895 68.4138 51.6887 68.7705 52.0205C69.2873 52.5852 73.4314 62.9596 73.8046 63.8783L75.1923 62.9213L74.8382 58.7773H75.221C76.1015 61.8877 75.8814 64.2707 75.1445 64.9407C74.6372 65.4383 72.8476 66.0317 72.57 65.6776Z" fill="#555555"/>
<path d="M84.8295 55.1889C83.955 52.9956 83.1916 50.7597 82.5422 48.4896C82.0788 46.7976 81.4869 45.1435 80.7716 43.5416C80.5044 43.278 80.1488 43.1232 79.7738 43.1073C79.3988 43.0914 79.0313 43.2155 78.7427 43.4555C77.9292 44.0967 78.178 49.1978 79.6519 55.9928L80.9535 59.3903L79.0394 60.6728L76.9913 55.2463L73.7565 47.4655L72.5123 48.212L72.7037 52.4326H72.2826C71.5744 49.2265 71.8232 46.853 72.8569 46.0491C73.2806 45.8341 73.7607 45.7563 74.2307 45.8266C74.7006 45.8969 75.137 46.1118 75.4792 46.4415C76.7425 48.9772 77.7801 51.6193 78.58 54.3371L78.7427 54.2893C77.9929 50.8605 77.6365 47.3574 77.6804 43.8479C77.7297 42.9279 78.1346 42.0631 78.8097 41.4362C79.2929 41.0772 79.8898 40.9056 80.4899 40.9531C81.09 41.0006 81.6525 41.264 82.0732 41.6946C82.9832 43.4467 83.6927 45.296 84.1883 47.2071C84.8869 49.3318 86.1024 53.2078 86.1981 53.5906L87.5475 52.8059L87.4709 48.6236H87.8633C88.5237 51.8201 88.1887 54.1361 87.4326 54.7295C86.9254 55.1315 85.1262 55.5717 84.8295 55.1889Z" fill="#555555"/>
<path d="M94.9551 35.1484C94.2537 35.3942 93.529 35.5674 92.7922 35.6652C91.2418 35.5217 90.0551 35.0527 89.4617 34C89.2555 33.6701 89.1214 33.3003 89.0683 32.9149C89.0152 32.5295 89.0443 32.1371 89.1537 31.7638C89.2631 31.3904 89.4502 31.0444 89.7029 30.7486C89.9556 30.4528 90.2681 30.2138 90.6197 30.0474C91.7126 29.487 92.9751 29.3539 94.1608 29.6741C96.0749 30.0569 96.9362 30.6312 98.4196 33.2918C98.9077 34.134 99.3097 34.8805 99.6734 35.5791C100.161 35.2824 100.745 34.9475 101.3 34.6221C102.305 34.0478 103.415 33.4353 104.583 32.8132L101.339 27.071L97.7976 29.0903L96.295 28.0663V27.8366L104.143 23.3672L105.655 24.3912V24.6209L103.004 26.1235L110.66 39.4743L110.612 39.7135L108.698 40.2208L105.54 34.4498L104.583 35.0144C103.236 35.7285 101.954 36.5613 100.755 37.5027C101.224 39.3403 100.985 40.2782 100.343 40.6419C99.9126 40.8811 99.1757 40.9003 97.8454 40.4122C97.2085 40.2367 96.6574 39.8352 96.295 39.2829C96.1576 39.025 96.1103 38.7286 96.1606 38.4408C96.2109 38.153 96.3559 37.8902 96.5726 37.6942C97.0134 37.2428 97.4834 36.8208 97.9794 36.4309C97.52 35.4738 97.0224 34.5168 96.4003 33.4162C94.6585 30.3632 93.4622 30.4015 92.5721 30.9087C92.3405 31.0237 92.1347 31.1845 91.9669 31.3812C91.7992 31.578 91.6731 31.8067 91.5961 32.0536C91.5192 32.3004 91.4931 32.5603 91.5194 32.8175C91.5457 33.0747 91.6238 33.3239 91.749 33.5501C92.3328 34.5742 93.5483 34.7369 94.9743 34.6221L94.9551 35.1484Z" fill="#555555"/>
<path d="M104.583 23.6631V23.443L111.282 20.3135L112.699 21.4428V21.6725L109.942 22.9645L116.546 36.8895L116.47 37.1288L114.555 37.4638L108.201 23.7876L106.038 24.802L104.583 23.6631Z" fill="#555555"/>
<path d="M111.369 20.3899L111.417 20.1698L122.633 15.6621L123.983 16.8775V17.0977L120.154 18.6385C120.672 19.4336 121.105 20.2803 121.446 21.1651C121.945 22.2837 122.094 23.5273 121.871 24.7318C121.649 25.9363 121.067 27.0453 120.202 27.9123C122.696 29.0314 125.363 29.7114 128.088 29.9221L127.811 32.353L127.629 32.4295C124.475 31.6394 121.458 30.3779 118.68 28.6875C117.775 28.1732 117.017 27.4351 116.479 26.5437C116.355 26.2394 116.338 25.9018 116.431 25.5867C116.527 25.1656 116.92 24.7923 117.704 24.4765C118.365 24.2099 119.039 23.9767 119.724 23.7778C119.801 22.8918 119.656 22.0005 119.303 21.1843C119.043 20.5455 118.723 19.9334 118.346 19.3563L112.766 21.5958L111.369 20.3899Z" fill="#555555"/>
<path d="M122.968 15.6225L123.035 15.4024L138.128 10.7129L139.381 12.0336L139.305 12.2537L136.434 13.1533L141.075 27.8536L140.97 28.0737L139.056 28.1503L136.185 18.7329C135.381 18.9339 134.548 19.1923 133.677 19.4603C130.098 20.58 129.141 22.207 129.581 23.6426C130.098 25.2791 132.299 26.6573 135.764 27.4708L134.989 29.8729H134.845C130.883 28.0067 128.481 25.7768 127.705 23.2885C126.93 20.8001 127.849 18.9913 131.993 17.7089C133.247 17.3165 134.414 16.972 135.582 16.6944L134.625 13.6319L124.222 16.9624L122.968 15.6225Z" fill="#555555"/>
<path d="M149.009 16.8867L157.316 15.3555L157.508 16.6188L149.143 18.1596L149.009 16.8867Z" fill="#555555"/>
</svg>
