<?xml version="1.0" encoding="utf-8"?>
<!-- Generator: Adobe Illustrator 22.0.1, SVG Export Plug-In . SVG Version: 6.00 Build 0)  -->
<svg version="1.1" id="Layer_1" xmlns="http://www.w3.org/2000/svg" xmlns:xlink="http://www.w3.org/1999/xlink" x="0px" y="0px"
	 width="402px" height="528px" viewBox="0 0 402 528" style="enable-background:new 0 0 402 528;" xml:space="preserve">
<style type="text/css">
	.st0-menu-menu{fill:#555555;}
</style>
<g>
	<path class="st0-menu" d="M14.1,527.7c-7.1,0-12-5.2-12-12.6c0-2,0.5-4,1.3-5.8l-0.8-2.1l6.8-0.2v0.6l-5.2,2.3c-1,1.6-1.5,3.5-1.4,5.4
		c0,5.8,4.8,9.4,11,9.4c6.7,0,11.3-3.8,11.3-9.4c0-3.6-1.5-5.4-4-7.2l-2.5-1v-0.6l5.9,1.2v1.3c0.8,2.1,1.3,4.3,1.3,6.5
		C25.7,522.5,21.2,527.7,14.1,527.7z"/>
	<path class="st0-menu" d="M17.5,503.9c-1.1,0-2.2-0.2-3.2-0.6c-1-0.4-1.9-1-2.7-1.8c-0.8-0.8-1.4-1.7-1.8-2.7c-0.4-1-0.6-2.1-0.6-3.2
		c0-1.1,0.2-2.1,0.6-3.1c0.4-1,1-1.9,1.7-2.6s1.7-1.3,2.6-1.7c1-0.4,2-0.6,3.1-0.5c1.1,0,2.2,0.1,3.2,0.5c1,0.4,1.9,1,2.7,1.7
		c0.8,0.8,1.4,1.7,1.8,2.7c0.4,1,0.7,2.1,0.7,3.2c0,1.1-0.2,2.1-0.6,3.1c-0.4,1-1,1.9-1.8,2.7c-0.8,0.8-1.7,1.3-2.7,1.7
		C19.7,503.7,18.6,503.9,17.5,503.9L17.5,503.9z M17.8,490.7c-2.7,0-5.2,0.6-6.6,2c-0.4,0.4-0.8,0.9-1,1.5c-0.2,0.6-0.4,1.2-0.4,1.8
		c0,3.1,3.3,5.1,7.2,5.1c2.9,0,5.4-0.6,6.8-2c0.4-0.4,0.8-0.9,1-1.5c0.2-0.6,0.3-1.1,0.3-1.7C25.1,492.8,21.8,490.7,17.8,490.7
		L17.8,490.7z"/>
	<path class="st0-menu" d="M24.6,486V485c-0.1-0.9-0.1-1.3-0.5-1.3H13.5c-2,0-2.3,0.3-2.5,1.3l-0.2,1.1h-0.4l-1.2-4.9l3,0.1v-0.1
		c-1.3-1.6-3.1-3.6-3.1-6c0-0.5,0.1-1,0.2-1.5c0.2-0.5,0.5-0.9,0.8-1.3c0.5-0.4,1.1-0.8,1.7-1c0.6-0.2,1.3-0.3,1.9-0.2h10.2
		c0.3,0,0.4-0.1,0.5-1.5v-0.9l0.5-0.1v7.3l-0.5-0.1V475c-0.1-1.1-0.3-1.3-0.5-1.3h-9.4c-2.5,0-3.6,1.1-3.6,3.3
		c0.1,1.6,0.7,3.2,1.9,4.4h11.2c0.3,0,0.4-0.2,0.5-1.5v-0.9l0.5-0.1v7.3L24.6,486z"/>
	<path class="st0-menu" d="M24.6,467.6v-0.9c-0.1-0.9-0.1-1.3-0.5-1.3H13.5c-2,0-2.3,0.3-2.5,1.3l-0.2,1.1h-0.4l-1.2-4.9l3,0.1v-0.1
		c-1.3-1.5-3.1-3.6-3.1-6c0-0.5,0.1-1,0.2-1.5c0.2-0.5,0.5-0.9,0.8-1.3c0.5-0.4,1.1-0.8,1.7-1c0.6-0.2,1.3-0.3,1.9-0.2h10.2
		c0.3,0,0.4-0.1,0.5-1.5v-0.9l0.5-0.1v7.3l-0.5-0.1v-0.9c-0.1-1.1-0.3-1.3-0.5-1.3h-9.4c-2.5,0-3.6,1.1-3.6,3.3
		c0.1,1.6,0.7,3.2,1.9,4.4h11.2c0.3,0,0.4-0.2,0.5-1.5v-0.9l0.5-0.1v7.3L24.6,467.6z"/>
	<path class="st0-menu" d="M17.8,449.1c-4.8,0-8.6-3.2-8.6-7.8c0-3.6,2.2-5.6,5-5.6c0.3,0,0.6,0,0.9,0.1L15,446.3
		c0.6,0.1,1.2,0.1,1.7,0.1c4.2,0,7-2.4,7-5.7c0-1-0.2-2-0.7-2.8c-0.5-0.9-1.2-1.6-2.1-2.1l0.2-0.4c2.7,1.5,4.4,3.6,4.4,6.4
		C25.7,446,22.3,449.1,17.8,449.1z M14.5,438.4c-2.5,0-4.6,1-4.6,3.2c0,2,2,3.9,4.7,4.5L14.5,438.4z"/>
	<path class="st0-menu" d="M17.8,433.6c-4.8,0-8.6-3.4-8.6-8.1c0-3,1.4-5.1,3.3-5.1c0.2,0,0.4,0,0.6,0.1s0.4,0.2,0.6,0.3
		c0.2,0.2,0.3,0.3,0.4,0.5c0.1,0.2,0.1,0.4,0.1,0.6c0,0.2,0,0.5-0.2,0.7c-0.1,0.2-0.3,0.4-0.5,0.6c-0.2,0.2-0.4,0.3-0.7,0.3
		c-0.2,0.1-0.5,0.1-0.7,0c-0.8,0-1.1-0.5-1.3-0.5c-0.4,0.3-0.7,0.7-0.9,1.1c-0.2,0.4-0.3,0.9-0.3,1.4c0,2.9,2.8,5.3,6.9,5.3
		s7.1-2.4,7.1-5.7c0-1-0.2-1.9-0.7-2.8c-0.5-0.8-1.2-1.5-2.1-2l0.2-0.4c2.7,1.5,4.4,3.5,4.4,6.4C25.7,430.5,22.3,433.6,17.8,433.6z"
		/>
	<path class="st0-menu" d="M21.9,416.7l-10.7-0.2l-0.1,2.8l-0.6-0.1l-4-4.8l0.1-0.4h3.2v-5.3l1.4,0.4v4.9l10.4,0.3c0.3,0.1,0.7,0,1-0.1
		c0.3-0.1,0.6-0.3,0.9-0.5c0.2-0.2,0.4-0.5,0.5-0.9c0.1-0.3,0.1-0.7,0.1-1c-0.1-1.1-0.5-2.2-1.3-3.1l0.4-0.2
		c1.3,1.3,2.5,2.8,2.5,4.6C25.7,415.1,24.7,416.7,21.9,416.7z"/>
	<path class="st0-menu" d="M4.2,405.9c-0.2,0-0.5,0-0.7-0.1s-0.4-0.2-0.6-0.4c-0.2-0.2-0.3-0.4-0.4-0.6c-0.1-0.2-0.1-0.5-0.1-0.7
		c0-0.2,0.1-0.5,0.1-0.7c0.1-0.2,0.2-0.4,0.4-0.6c0.2-0.2,0.4-0.3,0.6-0.4s0.5-0.1,0.7-0.1c0.2,0,0.5,0,0.7,0.1
		c0.2,0.1,0.4,0.2,0.6,0.4c0.2,0.2,0.3,0.4,0.4,0.6c0.1,0.2,0.1,0.5,0.1,0.7s-0.1,0.5-0.1,0.7c-0.1,0.2-0.2,0.4-0.4,0.6
		c-0.2,0.2-0.4,0.3-0.6,0.4C4.7,405.9,4.4,405.9,4.2,405.9L4.2,405.9z M24.6,407.3v-1c-0.1-0.9-0.1-1.3-0.5-1.3H13.5
		c-1.9,0-2.3,0.3-2.5,1.3l-0.2,1.1l-0.4-0.1l-1.2-4.9h14.9c0.3,0,0.4-0.2,0.5-1.5v-0.9l0.5-0.1v7.3L24.6,407.3z"/>
	<path class="st0-menu" d="M24.6,398.7v-0.9c-0.1-0.9-0.1-1.3-0.5-1.3H13.5c-2,0-2.3,0.3-2.5,1.3l-0.2,1.1h-0.4L9.3,394l3,0.1V394
		c-1.3-1.5-3.1-3.6-3.1-6c0-0.5,0.1-1,0.2-1.5c0.2-0.5,0.5-0.9,0.8-1.3c0.5-0.4,1.1-0.8,1.7-1c0.6-0.2,1.3-0.3,1.9-0.2h10.2
		c0.3,0,0.4-0.1,0.5-1.5v-0.9l0.5-0.1v7.3l-0.5-0.1v-0.9c-0.1-1.1-0.3-1.3-0.5-1.3h-9.4c-2.5,0-3.6,1.1-3.6,3.3
		c0.1,1.6,0.7,3.2,1.9,4.4h11.2c0.3,0,0.4-0.2,0.5-1.5v-0.9l0.5-0.1v7.4L24.6,398.7z"/>
	<path class="st0-menu" d="M30.2,380.7c-2.1,0-3.7-2.2-4.4-4h-0.1c-0.2,2-1.2,3.5-2.6,3.5c-1.7,0-3.1-2-3.6-3.8c0,0,0,0-0.1,0
		c-0.3,1-1,1.8-1.8,2.4c-0.8,0.6-1.8,0.9-2.8,0.9c-0.8,0-1.5-0.2-2.2-0.5c-0.7-0.3-1.3-0.8-1.8-1.3c-0.5-0.6-0.9-1.2-1.2-1.9
		c-0.3-0.7-0.4-1.5-0.3-2.2c0-1.4,0.4-2.8,1.2-3.9l-0.6-4.4l1.7,0.2l-0.4,3.5h0.2c0.4-0.4,0.9-0.8,1.5-1c0.6-0.2,1.2-0.4,1.8-0.4
		c3,0,5.4,2.7,5.4,6.2c0,0.7-0.1,1.3-0.2,2c0.3,1.1,1,2.2,2,2.2s1.6-0.9,1.6-2.8c0-0.9-0.1-3-0.1-4.1c0-3.4,1.6-5.3,4.1-5.3
		c3.9,0,6.8,3.7,6.8,9C34.1,378.4,32.6,380.7,30.2,380.7z M14.8,370.1c-3,0-5,1.2-5,3.5c0,2,2,3.4,4.7,3.4c3,0,5-1.4,5-3.4
		C19.5,371.6,17.6,370.1,14.8,370.1L14.8,370.1z M28.9,367.5c-1.9,0-3.1,1.3-3.2,4.4c0,1.1,0.1,2.3,0.2,4.1c0.3,0.7,0.8,1.4,1.4,1.9
		c0.6,0.5,1.4,0.8,2.2,0.8c2.3,0,3.9-2.3,3.9-5.5S31.3,367.5,28.9,367.5z"/>
	<path class="st0-menu" d="M24.6,357l-0.1-1.6c-0.1-1-0.3-1.4-0.5-1.4H3.8c-0.3,0-0.4,0.2-0.5,1.7L3.2,357l-0.5,0.1v-8.7
		c0-5.8,2.2-8.1,4.9-8.1c2.7,0,4.6,1.8,5.3,6.4H13c0.3-5,2.9-7.5,6-7.5c3.8,0,6.2,3.3,6.2,9.2v8.8L24.6,357z M12.7,349
		c-0.1-3.8-2.2-5.7-4.7-5.7c-3.1,0-4.7,1.8-4.7,5.8v2h9.3V349z M24.5,347.6c-0.2-3.6-2.5-5.4-5.3-5.4c-3.5,0-5.8,2.7-5.8,6.6
		c0,0.5,0,1.9,0.1,2.3H24l0.6-2.7C24.6,348.5,24.5,347.6,24.5,347.6L24.5,347.6z"/>
	<path class="st0-menu" d="M24.6,337.1v-0.9c-0.1-0.9-0.1-1.3-0.5-1.3H13.5c-1.9,0-2.3,0.3-2.5,1.3l-0.2,1.1h-0.4l-1.2-4.9l5.6,0.1v-0.1
		c-3.7-1.3-5.7-2.8-5.7-4.9c0-0.3,0-0.5,0.1-0.8c0.1-0.2,0.2-0.5,0.4-0.7c0.2-0.2,0.4-0.3,0.6-0.5c0.2-0.1,0.5-0.2,0.7-0.2
		c0.2,0,0.5,0,0.7,0.1c0.2,0.1,0.4,0.2,0.6,0.4c0.2,0.2,0.3,0.3,0.4,0.5s0.1,0.4,0.1,0.7c0,0.5-0.2,0.9-0.6,1.3
		c-0.3,0.3-0.8,0.5-1.3,0.6c0.4,1.4,2.1,2.5,5.2,3.5h8c0.3,0,0.4-0.1,0.5-1.4v-1.5l0.5-0.1v7.8L24.6,337.1z"/>
	<path class="st0-menu" d="M23,315.7L23,315.7c1.4,1.4,2.6,2.9,2.6,4.6c0,0.5-0.1,1-0.2,1.4c-0.2,0.5-0.4,0.9-0.8,1.2
		c-0.3,0.4-0.7,0.6-1.2,0.8c-0.4,0.2-0.9,0.3-1.4,0.3c-2.6,0-4.3-2.1-5.9-8.7h-1.2c-3.6-0.1-4.7,1.5-4.7,3.6c0,1.4,0.8,3,1.2,3
		c0.4,0,0.8-0.8,1.7-0.8c0.2,0,0.4,0.1,0.6,0.1c0.2,0.1,0.3,0.2,0.5,0.4c0.1,0.1,0.2,0.3,0.3,0.5c0.1,0.2,0.1,0.4,0.1,0.6
		c0,0.2,0,0.4-0.1,0.6c-0.1,0.2-0.2,0.4-0.3,0.5c-0.1,0.1-0.3,0.3-0.5,0.4c-0.2,0.1-0.4,0.1-0.6,0.1c-1.8,0-4-4-4-6.8
		c0-3.2,1.3-4.8,5.7-4.6l7.7,0.4c1.1,0,1.5-0.4,1.5-1.1c-0.1-0.7-0.5-1.3-1-1.7l0.3-0.3c0.9,0.8,2.3,1.8,2.3,3.2
		C25.7,314.9,24.7,315.7,23,315.7z M22.3,315.7l-5.7-0.2c1.2,5,2.7,6.2,4.6,6.2c0.3,0,0.7,0,1-0.1c0.3-0.1,0.6-0.3,0.9-0.5
		c0.3-0.2,0.5-0.5,0.6-0.9c0.1-0.3,0.2-0.7,0.2-1C23.9,317.8,23.3,316.6,22.3,315.7z"/>
	<path class="st0-menu" d="M24.6,309.5v-0.9c-0.1-0.9-0.1-1.3-0.5-1.3H13.5c-1.9,0-2.3,0.3-2.5,1.3l-0.2,1.1h-0.4l-1.2-4.9l3,0.1v-0.1
		c-1.3-1.6-3.1-3.6-3.1-6c0-0.5,0.1-1,0.2-1.5c0.2-0.5,0.5-0.9,0.8-1.3c0.5-0.4,1.1-0.8,1.7-1c0.6-0.2,1.3-0.3,1.9-0.2h10.2
		c0.3,0,0.4-0.1,0.5-1.5v-0.9l0.5-0.1v7.3l-0.5-0.1v-0.9c-0.1-1.1-0.3-1.3-0.5-1.3h-9.4c-2.6,0-3.6,1.1-3.6,3.3
		c0.1,1.6,0.7,3.2,1.9,4.4h11.2c0.3,0,0.4-0.2,0.5-1.5v-0.9l0.5-0.1v7.3L24.6,309.5z"/>
	<path class="st0-menu" d="M22.8,279L22.8,279c0.9,0.7,1.6,1.6,2.1,2.5c0.5,0.9,0.8,2,0.8,3.1c0,3.6-3.2,6.5-7.7,6.5
		c-1.1,0-2.2-0.1-3.2-0.5c-1-0.4-2-1-2.8-1.7s-1.4-1.7-1.9-2.7c-0.4-1-0.7-2.1-0.7-3.2c0-1.3,0.3-2.7,0.9-3.9V279H4
		c-1.1,0-1.4,0.2-1.5,1.1l-0.3,1.7l-0.4-0.1l-1-5.2h22.5c0.7,0,0.9-0.1,1-0.7l0.3-1.8h0.4l0.9,4.9L22.8,279z M21.9,279h-9
		c-0.8,0.4-1.5,1.1-2,1.9c-0.5,0.8-0.8,1.7-0.9,2.6c0,3,3,4.8,7,4.8c3.9,0,6.9-2,6.9-5.1c0-0.8-0.2-1.6-0.5-2.3
		C23,280.1,22.5,279.5,21.9,279L21.9,279z"/>
	<path class="st0-menu" d="M24.9,272.4l-4.4,0.3v-0.6l2.1-0.8c0.7-0.4,1.3-0.9,1.8-1.6c0.4-0.7,0.7-1.4,0.7-2.2c0-2.1-1.3-3.6-3.1-3.6
		s-2.9,1.6-3.7,4c-0.8,2.2-1.8,4.4-4.6,4.4c-2.6,0-4.5-2.2-4.5-5.2c0-1.1,0.2-2.2,0.6-3.2l-0.4-1.2l4.3-0.2v0.6l-3,1.5
		c-0.6,0.7-0.9,1.7-0.9,2.6c0,2,1.1,3.1,2.7,3.1c1.9,0,2.6-1.5,3.4-3.8c0.9-2.4,1.8-4.7,4.9-4.7c2.6,0,5,2.2,5,6
		C25.7,269.4,25.4,271,24.9,272.4L24.9,272.4z"/>
	<path class="st0-menu" d="M19.4,253.5c-3.3,0-6.2-2.5-7.5-6.3c-1.1,2-2.6,3.4-4.6,3.4c-2.5,0-5.2-2.6-5.2-5.8c0-3.6,2.2-5.5,4.2-5.5
		s3.7,1.4,4.7,4.5c1.6-2.7,3.8-4.9,6.5-6.5c-2.2-1.7-4.5-3.3-5.3-3.4c-0.6,0-1,0.6-1.2,2.4L11,237l-0.5,0.1v-8.3l0.5,0.1l0.1,0.7
		c0.1,1.7,0.8,2.3,2.6,3.8l4.4,3.5c4.3-2.2,5.8-3.2,5.8-5c-0.1-0.6-0.2-1.2-0.5-1.7c-0.3-0.5-0.7-1-1.1-1.4l0.4-0.4
		c1.3,1.1,3.1,2.8,3.1,4.8c0,2.2-1.4,3.7-5.5,5.5c3,2.4,5.5,4.8,5.5,8.2c0,0.8-0.1,1.7-0.4,2.5c-0.3,0.8-0.8,1.5-1.4,2.1
		c-0.6,0.6-1.3,1.1-2.1,1.4C21.1,253.3,20.3,253.5,19.4,253.5L19.4,253.5z M6.5,241.6c-1.8,0-3.8,1.2-3.8,3.3c0,0.5,0.1,0.9,0.3,1.3
		c0.2,0.4,0.5,0.8,0.8,1.1c0.3,0.3,0.7,0.5,1.1,0.7c0.4,0.2,0.9,0.2,1.3,0.2c2.1,0,3.3-1.2,4.5-3.8c-0.3-0.9-0.9-1.6-1.7-2.1
		S7.5,241.5,6.5,241.6L6.5,241.6z M19.7,239.1c-3.3,1.5-6,4.2-7.5,7.5c1.5,2.9,3.7,4.3,6,4.3c0.7,0,1.4-0.1,2.1-0.4
		c0.7-0.3,1.3-0.6,1.8-1.1c0.5-0.5,0.9-1.1,1.2-1.8c0.3-0.7,0.4-1.4,0.4-2.1C23.6,243.1,22.1,241.3,19.7,239.1L19.7,239.1z"/>
	<path class="st0-menu" d="M24.6,221.3l-0.1-1.9c-0.1-1-0.3-1.4-0.5-1.4H3.8c-0.3,0-0.3,0.2-0.5,1.7l-0.1,1.6l-0.5,0.1v-9.5
		c0-5.6,2.2-8.4,5.6-8.4c4,0,6.5,3.6,6.5,8.5c0,1-0.1,2.1-0.2,3.1h9.5c0.3,0,0.4-0.2,0.5-1.7l0.1-2.1l0.5-0.1v10.1L24.6,221.3z
		 M8.8,206.4c-3.5,0-5.5,1.8-5.4,6.1v2.6h10.4c0.3-1,0.4-2.1,0.4-3.1C14.2,208.5,12.2,206.4,8.8,206.4L8.8,206.4z"/>
	<path class="st0-menu" d="M17.8,202.7c-4.8,0-8.6-3.2-8.6-7.8c0-3.6,2.2-5.6,5-5.6c0.3,0,0.6,0,0.9,0.1l-0.1,10.5
		c0.6,0.1,1.2,0.1,1.7,0.1c4.2,0,7-2.5,7-5.7c0-1-0.2-2-0.7-2.8c-0.5-0.9-1.2-1.6-2.1-2.1l0.2-0.4c2.7,1.5,4.4,3.6,4.4,6.4
		C25.7,199.6,22.3,202.7,17.8,202.7z M14.5,192c-2.5,0-4.6,1-4.6,3.2c0,2,2,3.9,4.7,4.5L14.5,192z"/>
	<path class="st0-menu" d="M17.5,187c-1.1-0.1-2.1-0.3-3.1-0.8c-1-0.5-1.8-1.2-2.5-2c-0.7-0.8-1.2-1.8-1.6-2.8c-0.3-1-0.5-2.1-0.4-3.2
		c0.1-1.1,0.4-2.1,0.8-3c0.5-0.9,1.2-1.8,2-2.5c0.8-0.7,1.8-1.2,2.8-1.5c1-0.3,2.1-0.4,3.1-0.3c1.1,0.1,2.2,0.3,3.1,0.8
		c1,0.5,1.9,1.1,2.6,2c0.7,0.8,1.3,1.8,1.6,2.8c0.3,1,0.5,2.1,0.4,3.2c-0.1,1.1-0.4,2.1-0.8,3.1c-0.5,1-1.2,1.8-2,2.5
		c-0.8,0.7-1.8,1.2-2.8,1.5C19.6,187,18.5,187.1,17.5,187L17.5,187z M18.9,173.8c-2.7-0.2-5.3,0.2-6.7,1.4c-0.5,0.4-0.9,0.8-1.2,1.4
		c-0.3,0.5-0.5,1.1-0.5,1.7c-0.3,3.1,2.9,5.4,6.7,5.7c2.8,0.2,5.4-0.2,6.9-1.5c0.5-0.4,0.8-0.8,1.1-1.4c0.3-0.5,0.4-1.1,0.5-1.7
		C26,176.5,22.8,174.2,18.9,173.8L18.9,173.8z"/>
	<path class="st0-menu" d="M34.9,172.5l0.1-1c0.1-0.9,0.1-1.3-0.3-1.4l-19.3-3.7c-1.9-0.4-2.3-0.2-2.7,0.8l-0.4,1.1l-0.3-0.1l-0.3-5
		l3,0.6l0.1-0.1c-0.7-0.8-1.3-1.8-1.6-2.8s-0.4-2.1-0.3-3.2c0.7-3.6,4.3-5.8,8.7-4.9c5.2,1,7.8,5.4,7.1,9.4
		c-0.3,1.4-0.8,2.7-1.6,3.8v0.1l8.3,1.6c0.3,0,0.4-0.1,0.7-1.4l0.3-1.5h0.6l-1.5,7.8L34.9,172.5z M21.9,155.8
		c-3.8-0.7-7,0.7-7.5,3.7c-0.1,0.8-0.1,1.6,0.2,2.4c0.2,0.8,0.6,1.5,1.1,2.1l8.8,1.7c0.9-0.3,1.6-0.8,2.3-1.5
		c0.6-0.7,1.1-1.5,1.3-2.4C28.6,158.9,26,156.6,21.9,155.8L21.9,155.8z"/>
	<path class="st0-menu" d="M29.6,153.2l0.2-1c0.2-0.9,0.2-1.3-0.2-1.4l-18.7-5c-1.6-0.4-2-0.3-2.4,0.5l-0.6,1.3l-0.3-0.1l0.2-5.1
		l22.6,6.1c0.3,0.1,0.4,0,0.8-1.3l0.3-0.9H32l-1.9,7L29.6,153.2z"/>
	<path class="st0-menu" d="M25.3,142.9c-4.5-1.6-7.1-5.9-5.6-10.2c1.2-3.4,3.9-4.6,6.5-3.7c0.3,0.1,0.6,0.2,0.9,0.4l-3.5,9.9
		c0.5,0.3,1,0.5,1.6,0.7c4,1.4,7.4,0,8.5-3.1c0.4-0.9,0.5-1.9,0.3-2.9c-0.2-1-0.6-1.9-1.3-2.6l0.3-0.3c2.1,2.3,3,4.8,2,7.5
		C33.7,142.5,29.5,144.3,25.3,142.9z M25.5,131.7c-2.4-0.9-4.7-0.5-5.4,1.6c-0.6,1.9,0.7,4.4,2.9,5.8L25.5,131.7z"/>
	<path class="st0-menu" d="M36,130.3c-0.5-0.2-0.8-0.6-1-1.1c-0.2-0.5-0.2-1,0-1.5c0.1-0.2,0.2-0.4,0.4-0.6c0.2-0.2,0.4-0.3,0.6-0.4
		c0.2-0.1,0.5-0.1,0.7-0.1c0.3,0,0.5,0.1,0.7,0.1c0.2,0.1,0.4,0.2,0.6,0.4s0.3,0.4,0.4,0.6c0.1,0.2,0.1,0.5,0.1,0.7
		c0,0.3-0.1,0.5-0.1,0.7c-0.2,0.5-0.6,0.9-1,1.1C37.1,130.4,36.5,130.4,36,130.3L36,130.3z"/>
	<path class="st0-menu" d="M32.8,113.5c-6.1-3.5-7.8-10.5-4.1-16.9c1-1.7,2.4-3.2,4-4.4l0.3-2.3l6,3.2l-0.3,0.5L33,93.1
		c-1.7,0.9-3,2.3-3.9,4c-2.9,5.1-0.5,10.5,4.9,13.6c5.8,3.3,11.7,2.3,14.5-2.6c1.8-3.1,1.4-5.5,0.1-8.2l-1.7-2.2l0.3-0.5l4.5,3.9
		l-0.6,1.2c-0.3,2.2-1,4.4-2.1,6.3C45.4,114.7,38.9,117,32.8,113.5z"/>
	<path class="st0-menu" d="M47.9,94.4c-0.9-0.6-1.6-1.4-2.2-2.3c-0.6-0.9-1-1.9-1.1-3c-0.2-1.1-0.1-2.2,0.1-3.2c0.3-1.1,0.7-2,1.4-2.9
		c0.6-0.9,1.4-1.6,2.3-2.1c0.9-0.5,1.9-0.9,3-1.1c1-0.1,2.1-0.1,3.1,0.2c1,0.3,2,0.8,2.8,1.4c0.9,0.6,1.7,1.4,2.3,2.3
		c0.6,0.9,1,1.9,1.2,3c0.2,1.1,0.2,2.2-0.1,3.2C60.4,91,60,92,59.3,92.9c-0.6,0.9-1.4,1.6-2.3,2.2c-0.9,0.6-1.9,0.9-3,1.1
		c-1.1,0.1-2.2,0.1-3.2-0.2C49.7,95.6,48.8,95.1,47.9,94.4L47.9,94.4z M56,84c-2.2-1.6-4.6-2.6-6.5-2.3c-0.6,0.1-1.2,0.3-1.7,0.6
		c-0.5,0.3-1,0.7-1.3,1.2c-1.8,2.5-0.4,6.1,2.7,8.4c2.3,1.7,4.7,2.7,6.7,2.4c0.6-0.1,1.2-0.3,1.7-0.6c0.5-0.3,1-0.7,1.3-1.2
		C60.6,90,59.2,86.4,56,84z"/>
	<path class="st0-menu" d="M64.1,84.8l0.6-0.7c0.6-0.7,0.8-1.1,0.5-1.3l-7.8-7.1c-1.4-1.3-1.9-1.4-2.7-0.7l-0.9,0.7l-0.3-0.3l2.4-4.4
		l2.2,2.1l0.1-0.1c0.1-2,0.2-4.7,1.8-6.5c0.3-0.4,0.7-0.7,1.2-1c0.5-0.2,1-0.4,1.5-0.4c0.7,0,1.3,0.2,1.9,0.4
		c0.6,0.3,1.1,0.7,1.6,1.1l7.5,6.9c0.2,0.2,0.3,0.2,1.4-0.8l0.6-0.6l0.5,0.3l-4.9,5.4l-0.3-0.4l0.6-0.7c0.7-0.8,0.7-1.1,0.5-1.3
		L65,69c-1.9-1.7-3.4-1.6-4.9,0c-1,1.3-1.6,2.8-1.5,4.5l8.3,7.5c0.2,0.2,0.4,0.1,1.4-0.8l0.7-0.7l0.5,0.3l-5,5.4L64.1,84.8z"/>
	<path class="st0-menu" d="M76.1,71.6l0.7-0.7c0.6-0.7,0.9-1,0.6-1.3l-7-7.9c-1.3-1.5-1.7-1.5-2.6-1l-1,0.6l-0.2-0.3l2.8-4.2l1.9,2.3h0.1
		c0.3-2,0.6-4.7,2.4-6.3c0.4-0.4,0.8-0.6,1.3-0.8c0.5-0.2,1-0.3,1.5-0.3c1.3,0.2,2.5,0.9,3.3,1.9l6.8,7.6c0.2,0.2,0.3,0.2,1.5-0.6
		l0.7-0.6l0.4,0.3l-5.4,4.9l-0.3-0.5l0.7-0.7c0.8-0.8,0.8-1,0.6-1.3l-6.3-7c-1.7-1.9-3.3-1.9-4.8-0.5c-1.2,1.1-1.9,2.7-2,4.3
		l7.5,8.3c0.2,0.2,0.4,0.1,1.4-0.7l0.7-0.6l0.4,0.3l-5.5,4.9L76.1,71.6z"/>
	<path class="st0-menu" d="M85.6,54.3c-2.8-3.8-2.5-8.9,1.1-11.6c2.9-2.1,5.8-1.6,7.5,0.6c0.2,0.3,0.3,0.5,0.5,0.8l-8.5,6.2
		c0.3,0.5,0.6,1,0.9,1.5c2.5,3.4,6.2,4.2,8.8,2.3c0.8-0.6,1.5-1.3,1.9-2.2c0.4-0.9,0.6-1.9,0.4-2.9l0.4-0.1c0.4,3.1-0.3,5.7-2.6,7.4
		C92.7,58.6,88.2,57.8,85.6,54.3z M92.1,45.2c-1.5-2-3.6-3.1-5.4-1.8c-1.6,1.2-1.9,4-0.9,6.5L92.1,45.2z"/>
	<path class="st0-menu" d="M98.2,45c-2.5-4.1-1.6-9.2,2.3-11.6c2.5-1.5,5.1-1.5,6.1,0.1c0.1,0.2,0.2,0.4,0.2,0.6c0,0.2,0,0.4,0,0.7
		c0,0.2-0.1,0.4-0.3,0.6c-0.1,0.2-0.3,0.3-0.5,0.5c-0.2,0.1-0.4,0.2-0.7,0.3c-0.2,0-0.5,0-0.7-0.1c-0.2-0.1-0.4-0.2-0.6-0.4
		c-0.2-0.2-0.3-0.4-0.4-0.6c-0.4-0.7-0.1-1.2-0.3-1.4c-0.5-0.2-0.9-0.2-1.4-0.2c-0.5,0.1-0.9,0.2-1.3,0.5c-2.5,1.5-3,5.2-0.9,8.7
		c2.1,3.5,5.8,4.7,8.5,3c0.9-0.5,1.6-1.2,2-2c0.5-0.9,0.7-1.8,0.6-2.8h0.5c0.2,3.1-0.7,5.6-3.1,7.1C105,50,100.6,48.7,98.2,45z"/>
	<path class="st0-menu" d="M114.7,39.9l-4.8-9.6l-2.5,1.2l-0.2-0.6l2.4-5.8L110,25l1.4,2.8l4.7-2.5l0.3,1.4l-4.3,2.3c0,0,4.6,9.3,4.6,9.4
		c0.1,0.3,0.3,0.6,0.5,0.9c0.2,0.2,0.5,0.4,0.9,0.5c0.3,0.1,0.7,0.1,1,0.1c0.3,0,0.7-0.2,0.9-0.4c1-0.6,1.7-1.5,2.1-2.5l0.4,0.2
		c-0.6,1.8-1.4,3.5-2.9,4.4C117.8,42.5,116,42.4,114.7,39.9z"/>
	<path class="st0-menu" d="M116.9,18.9c-0.1-0.2-0.2-0.5-0.2-0.7c0-0.2,0-0.5,0.1-0.7c0.1-0.2,0.2-0.4,0.4-0.6c0.2-0.2,0.4-0.3,0.6-0.4
		c0.2-0.1,0.5-0.1,0.7-0.2c0.2,0,0.5,0,0.7,0.1s0.4,0.2,0.6,0.4c0.2,0.2,0.3,0.4,0.4,0.6c0.1,0.2,0.2,0.4,0.2,0.7s0,0.5-0.1,0.7
		c-0.1,0.2-0.2,0.4-0.4,0.6c-0.2,0.2-0.3,0.3-0.6,0.4c-0.2,0.1-0.4,0.2-0.7,0.2c-0.2,0-0.5,0-0.7-0.1c-0.2-0.1-0.4-0.2-0.6-0.4
		C117.1,19.4,117,19.2,116.9,18.9z M124.1,38.1l0.9-0.5c0.8-0.4,1.1-0.7,0.9-1l-4.4-9.6c-0.8-1.8-1.2-2-2.2-1.7l-1.1,0.3l-0.1-0.4
		l3.9-3.1l6.2,13.5c0.1,0.3,0.3,0.3,1.5-0.2l0.8-0.3l0.3,0.5l-6.7,3L124.1,38.1z"/>
	<path class="st0-menu" d="M131.5,34.6l0.9-0.4c0.9-0.4,1.2-0.6,1-1l-3.6-9.9c-0.7-1.8-1-2.1-2.1-1.9l-1.1,0.2l-0.1-0.4l4.2-2.8l1,2.8
		h0.1c1-1.8,2.3-4.1,4.6-4.9c0.5-0.2,1-0.3,1.5-0.3c0.5,0,1,0.1,1.5,0.3c1.2,0.6,2,1.7,2.4,3l3.5,9.6c0.1,0.2,0.2,0.3,1.6,0l0.8-0.3
		l0.3,0.5l-6.8,2.5l-0.1-0.5l0.9-0.4c1-0.4,1.1-0.7,1-0.9l-3.2-8.8c-0.9-2.4-2.3-3-4.3-2.3c-1.5,0.6-2.7,1.8-3.4,3.3l3.9,10.5
		c0.1,0.3,0.3,0.3,1.6-0.1l0.9-0.3l0.3,0.5l-6.9,2.5L131.5,34.6z"/>
	<path class="st0-menu" d="M149.3,34c-0.6-2,1.2-4.1,2.8-5.3v-0.1c-2,0.3-3.7-0.3-4-1.6c-0.4-1.7,1.2-3.5,2.7-4.4c0,0,0-0.1,0-0.1
		c-1-0.1-2-0.5-2.7-1.1c-0.8-0.7-1.3-1.5-1.6-2.5c-0.2-0.7-0.2-1.5-0.1-2.3c0.1-0.8,0.4-1.5,0.8-2.1c0.4-0.6,0.9-1.2,1.6-1.6
		c0.6-0.4,1.3-0.7,2.1-0.9c1.4-0.4,2.8-0.3,4.1,0.2l4.1-1.7l0.2,1.7l-3.5,0.5v0.2c0.5,0.3,1,0.7,1.4,1.2c0.4,0.5,0.7,1,0.8,1.6
		c0.8,2.9-1.2,5.9-4.6,6.8c-0.7,0.2-1.3,0.3-2,0.3c-1,0.5-1.9,1.5-1.6,2.5c0.3,1,1.3,1.3,3.1,0.8c0.9-0.2,2.9-0.9,3.9-1.1
		c3.2-0.9,5.5,0.3,6.2,2.6c1,3.8-1.9,7.5-7,8.9C152.6,37.3,149.9,36.3,149.3,34z M155.7,16.4c-0.8-2.9-2.4-4.6-4.7-4
		c-1.9,0.5-2.8,2.8-2.1,5.4c0.8,2.9,2.6,4.5,4.6,4C155.4,21.3,156.4,19.1,155.7,16.4L155.7,16.4z M161.8,29.4c-0.5-1.8-2-2.7-5.1-2
		c-1.1,0.3-2.3,0.7-3.9,1.2c-0.6,0.5-1.1,1.1-1.4,1.8c-0.3,0.7-0.4,1.5-0.3,2.3c0.6,2.3,3.3,3.2,6.3,2.4
		C160.4,34.3,162.4,31.7,161.8,29.4L161.8,29.4z"/>
	<path class="st0-menu" d="M170.3,23.2l1.5-0.3c1-0.2,1.4-0.5,1.4-0.7l-2.4-20c0-0.3-0.2-0.3-1.7-0.3h-1.3l-0.2-0.5l8.6-1.1
		c5.8-0.7,8.3,1.2,8.6,3.9c0.3,2.5-1.3,4.8-5.7,6.1v0.1c5-0.3,7.8,2,8.2,5.1c0.4,3.8-2.5,6.6-8.4,7.3l-8.7,1.1L170.3,23.2z
		 M176.8,10.4c3.8-0.5,5.3-2.9,5.1-5.3c-0.4-3.1-2.4-4.4-6.3-3.9l-2,0.3l1.1,9.3L176.8,10.4z M179.6,21.9c3.6-0.6,5-3.2,4.7-5.9
		c-0.4-3.4-3.4-5.4-7.3-5c-0.5,0.1-1.9,0.3-2.3,0.4l1.3,10.5l2.7,0.3L179.6,21.9z"/>
	<path class="st0-menu" d="M189.6,21l0.9-0.1c0.9-0.1,1.3-0.2,1.3-0.6l-0.4-10.5c-0.1-1.9-0.3-2.3-1.4-2.4L189,7.3V6.9l4.8-1.4l0.1,5.6
		h0.1c1.2-3.7,2.6-5.8,4.7-5.9c0.3,0,0.5,0,0.8,0.1c0.2,0.1,0.5,0.2,0.7,0.4c0.2,0.2,0.4,0.4,0.5,0.6c0.1,0.2,0.2,0.5,0.2,0.7
		c0,0.2,0,0.5-0.1,0.7c-0.1,0.2-0.2,0.4-0.3,0.6c-0.1,0.2-0.3,0.3-0.5,0.4c-0.2,0.1-0.4,0.2-0.7,0.2c-0.5,0-1-0.2-1.3-0.5
		c-0.4-0.3-0.6-0.8-0.6-1.3c-1.4,0.5-2.4,2.2-3.3,5.3l0.3,8c0,0.3,0.2,0.4,1.4,0.4h1.5l0.1,0.5l-7.8,0.3L189.6,21z"/>
	<path class="st0-menu" d="M210.7,19.4L210.7,19.4c-1.5,1.3-3.1,2.5-4.7,2.4c-0.5,0-1-0.1-1.4-0.3c-0.5-0.2-0.9-0.5-1.2-0.8
		c-0.3-0.3-0.6-0.8-0.8-1.2c-0.2-0.5-0.3-0.9-0.3-1.4c0.1-2.6,2.2-4.2,8.9-5.5l0.1-1.2c0.3-3.6-1.3-4.7-3.4-4.8
		c-1.4-0.1-3,0.7-3,1.1s0.8,0.9,0.8,1.8c0,0.2-0.1,0.4-0.2,0.6c-0.1,0.2-0.2,0.3-0.4,0.5c-0.2,0.1-0.3,0.2-0.5,0.3s-0.4,0.1-0.6,0.1
		c-0.2,0-0.4,0-0.6-0.1c-0.2-0.1-0.4-0.2-0.5-0.3c-0.1-0.1-0.3-0.3-0.3-0.5c-0.1-0.2-0.1-0.4-0.1-0.6c0.1-1.8,4.2-3.8,7-3.7
		c3.2,0.1,4.7,1.5,4.3,5.9l-0.7,7.7c-0.1,1.1,0.3,1.5,1,1.5c0.7-0.1,1.3-0.4,1.7-0.9l0.3,0.3c-0.8,0.9-1.9,2.2-3.3,2.1
		S210.7,21.1,210.7,19.4z M210.7,18.7l0.4-5.6c-5,1-6.3,2.4-6.3,4.3c0,0.3,0,0.7,0.1,1c0.1,0.3,0.3,0.6,0.5,0.9
		c0.2,0.3,0.5,0.5,0.8,0.6c0.3,0.1,0.7,0.2,1,0.2c0.7,0,1.3-0.1,1.9-0.4C209.7,19.5,210.2,19.2,210.7,18.7L210.7,18.7z"/>
	<path class="st0-menu" d="M216.3,21.3l0.9,0.1c0.9,0,1.3,0,1.3-0.4l1.4-10.5c0.3-1.9,0.1-2.3-1-2.6l-1.1-0.3l0.1-0.3l5-0.6l-0.5,3l0.1,0
		c1.7-1.1,4-2.6,6.4-2.3c0.5,0,1,0.2,1.5,0.4c0.5,0.2,0.9,0.6,1.2,1c0.4,0.5,0.6,1.2,0.7,1.8c0.1,0.6,0.1,1.3,0,2L231,22.6
		c0,0.3,0,0.4,1.4,0.7l0.9,0.1V24l-7.2-1l0.2-0.5l0.9,0.1c1.1,0.1,1.3-0.1,1.3-0.4l1.2-9.3c0.3-2.5-0.7-3.7-2.8-4
		c-1.6-0.1-3.3,0.3-4.6,1.3l-1.4,11.1c0,0.3,0.2,0.4,1.4,0.7l0.9,0.1v0.6l-7.3-1L216.3,21.3z"/>
	<path class="st0-menu" d="M246.3,24.6L246.3,24.6c-0.9,0.6-1.9,1.1-2.9,1.4c-1,0.3-2.1,0.3-3.2,0.1c-3.5-0.8-5.6-4.6-4.5-9
		c0.2-1.1,0.6-2.1,1.2-3c0.6-0.9,1.4-1.7,2.3-2.3c0.9-0.6,2-1,3-1.2c1.1-0.2,2.2-0.2,3.3,0.1c1.3,0.3,2.5,0.9,3.6,1.7h0.1l1.4-6.1
		c0.3-1.1,0.2-1.4-0.7-1.8l-1.6-0.7l0.2-0.4l5.3,0.2l-5.1,21.9c-0.1,0.7-0.1,0.9,0.5,1.1l1.7,0.7l-0.1,0.4l-5-0.3L246.3,24.6z
		 M246.5,23.7l2-8.7c-0.2-0.9-0.7-1.7-1.3-2.4c-0.6-0.7-1.5-1.2-2.3-1.4c-2.9-0.7-5.4,1.8-6.3,5.7c-0.9,3.8,0.4,7.2,3.4,7.9
		c0.8,0.2,1.6,0.2,2.4,0C245.1,24.6,245.9,24.2,246.5,23.7L246.5,23.7z"/>
	<path class="st0-menu" d="M251.7,28.2l1-4.2l0.6,0.2l0.1,2.2c0.1,0.8,0.4,1.5,0.9,2.2c0.5,0.6,1.2,1.1,1.9,1.4c2,0.6,3.8-0.1,4.4-1.9
		s-0.6-3.2-2.7-4.7c-1.8-1.4-3.6-3.1-2.8-5.7c0.8-2.4,3.5-3.6,6.4-2.7c1.1,0.3,2,0.9,2.9,1.6h1.2l-1.1,4.2l-0.6-0.2l-0.5-3.3
		c-0.5-0.8-1.3-1.4-2.2-1.7c-1.9-0.6-3.3,0.1-3.8,1.6c-0.6,1.8,0.7,2.9,2.6,4.4c2,1.6,3.9,3.2,3,6.1c-0.8,2.5-3.7,4-7.2,2.9
		C254.3,29.9,252.9,29.1,251.7,28.2L251.7,28.2z"/>
	<path class="st0-menu" d="M271.4,29c1.5-3,5-4.5,9-3.9c-1.3-1.9-1.9-3.8-1-5.6c1.1-2.3,4.7-3.5,7.5-2.1c3.2,1.6,3.9,4.4,3.1,6.2
		c-0.9,1.8-2.9,2.7-6.1,2.2c1.7,2.6,2.7,5.6,2.9,8.7c2.5-1.2,5-2.6,5.3-3.3s-0.1-1.2-1.6-2.1l-0.6-0.4l0.1-0.5l7.4,3.7l-0.3,0.4
		l-0.7-0.3c-1.5-0.6-2.4-0.3-4.5,0.7l-5,2.4c0.1,4.8,0.3,6.6,1.9,7.5c0.6,0.2,1.2,0.3,1.8,0.3c0.6,0,1.2-0.2,1.7-0.4l0.1,0.5
		c-1.6,0.6-3.8,1.5-5.6,0.6c-2-1-2.7-2.9-2.6-7.4c-3.4,1.6-6.7,2.8-9.7,1.3c-0.8-0.3-1.5-0.8-2.1-1.5c-0.6-0.6-1-1.4-1.3-2.2
		c-0.3-0.8-0.4-1.6-0.4-2.5C270.8,30.6,271,29.8,271.4,29L271.4,29z M284.2,35.6c0.1-3.6-1.1-7.2-3.4-10c-3.3,0-5.5,1.4-6.5,3.5
		c-0.3,0.6-0.5,1.3-0.6,2s0,1.4,0.3,2.1c0.2,0.7,0.6,1.3,1.1,1.8c0.5,0.5,1.1,1,1.7,1.2C278.9,37.4,281.2,36.9,284.2,35.6
		L284.2,35.6z M287.7,22.7c0.8-1.6,0.6-3.9-1.3-4.8c-0.4-0.2-0.9-0.3-1.3-0.3c-0.4,0-0.9,0.1-1.3,0.2c-0.4,0.2-0.8,0.4-1.1,0.7
		c-0.3,0.3-0.6,0.7-0.8,1.1c-0.9,1.9-0.4,3.5,1.4,5.7c0.9,0.1,1.8-0.1,2.6-0.6C286.8,24.3,287.4,23.6,287.7,22.7L287.7,22.7z"/>
	<path class="st0-menu" d="M296.8,48.3l1.6,1c0.9,0.5,1.3,0.6,1.5,0.4l11.7-16.5c0.1-0.2,0-0.4-1.1-1.3l-1.3-1l0.2-0.5l7.8,5.5
		c4.6,3.3,5.6,6.6,3.6,9.4c-2.3,3.2-6.7,3.2-10.7,0.4c-0.8-0.6-1.7-1.3-2.4-2l-5.5,7.8c-0.1,0.2-0.1,0.4,1.1,1.3l1.6,1.3l-0.2,0.5
		l-8.3-5.9L296.8,48.3z M318.1,44c2-2.9,1.8-5.5-1.8-8l-2.1-1.5l-6.1,8.5c0.7,0.8,1.4,1.5,2.3,2.1C313.3,47.2,316.1,46.7,318.1,44z"
		/>
	<path class="st0-menu" d="M316,53.7c3.1-3.6,8.1-4.5,11.5-1.5c2.7,2.3,2.8,5.3,1,7.4c-0.2,0.2-0.4,0.5-0.7,0.7l-8-6.9
		c-0.4,0.4-0.8,0.8-1.2,1.2c-2.7,3.2-2.7,6.9-0.2,9c0.7,0.7,1.6,1.1,2.6,1.3c1,0.2,2,0.1,2.9-0.2l0.2,0.4c-2.9,1.1-5.6,1-7.8-0.8
		C313.3,61.7,313.1,57.1,316,53.7z M326.3,58.1c1.7-1.9,2.2-4.2,0.6-5.6c-1.5-1.3-4.3-1-6.5,0.6L326.3,58.1z"/>
	<path class="st0-menu" d="M328.1,63.7c0.8-0.8,1.7-1.4,2.7-1.8s2.1-0.6,3.2-0.6c1.1,0,2.2,0.2,3.2,0.6c1,0.4,1.9,1,2.7,1.8
		c0.8,0.7,1.3,1.6,1.7,2.6c0.4,1,0.6,2,0.6,3.1c0,1.1-0.3,2.1-0.7,3.1c-0.4,1-1.1,1.8-1.8,2.5c-0.8,0.8-1.7,1.4-2.6,1.8
		c-1,0.4-2.1,0.7-3.2,0.7c-1.1,0-2.2-0.2-3.2-0.6s-1.9-1-2.7-1.8c-0.8-0.8-1.3-1.7-1.7-2.6c-0.4-1-0.6-2.1-0.6-3.1
		c0-1.1,0.3-2.1,0.7-3.1C326.7,65.3,327.3,64.4,328.1,63.7L328.1,63.7z M337.1,73.4c2-1.9,3.3-4.1,3.3-6c0-0.6-0.1-1.2-0.3-1.8
		c-0.2-0.6-0.5-1.1-1-1.5c-2.2-2.2-5.9-1.4-8.7,1.3c-2,2-3.4,4.2-3.4,6.2c0,0.6,0.1,1.2,0.3,1.7c0.2,0.6,0.6,1.1,1,1.5
		C330.4,76.9,334.3,76.1,337.1,73.4z"/>
	<path class="st0-menu" d="M327.7,86.4l0.6,0.7c0.6,0.7,0.9,0.9,1.2,0.7l15.4-12.2c1.5-1.2,1.6-1.6,1.1-2.5l-0.6-1l0.3-0.2l4,3.1
		l-2.4,1.9v0.1c1.1,0,2.2,0.2,3.2,0.6c1,0.4,1.9,1.1,2.6,1.9c2.3,2.9,1.6,7-1.9,9.8c-4.1,3.3-9.2,2.4-11.8-0.8
		c-0.9-1.1-1.5-2.4-1.8-3.7v-0.1l-6.6,5.3c-0.2,0.2-0.2,0.4,0.6,1.4l0.9,1.2l-0.4,0.4l-5-6.2L327.7,86.4z M348.8,87.5
		c3-2.4,4-5.7,2.1-8.1c-0.5-0.6-1.2-1.1-1.9-1.5c-0.7-0.3-1.6-0.5-2.4-0.5l-7,5.6c-0.3,0.9-0.5,1.8-0.3,2.7c0.1,0.9,0.4,1.8,1,2.5
		C342.1,90.5,345.6,90,348.8,87.5L348.8,87.5z"/>
	<path class="st0-menu" d="M345.8,95l0.6,0.8c0.6,0.7,0.8,1,1.2,0.7l16-10.9c1.4-0.9,1.5-1.3,1.2-2.2l-0.5-1.3l0.3-0.2l3.8,3.4
		l-19.4,13.2c-0.2,0.2-0.2,0.3,0.4,1.5l0.5,0.8l-0.4,0.4l-4.1-6L345.8,95z"/>
	<path class="st0-menu" d="M356.4,98.4c4.1-2.4,9.1-1.6,11.4,2.3c1.8,3.1,1,6-1.4,7.4c-0.3,0.2-0.6,0.3-0.8,0.4l-5.3-9.1
		c-0.5,0.2-1.1,0.5-1.6,0.8c-3.6,2.1-4.8,5.7-3.2,8.5c0.5,0.9,1.2,1.6,2,2.1c0.9,0.5,1.8,0.8,2.8,0.7v0.5c-3.1,0.1-5.6-0.9-7-3.3
		C351.2,105,352.6,100.6,356.4,98.4z M364.7,105.9c2.2-1.3,3.5-3.3,2.4-5.2c-1-1.7-3.8-2.3-6.3-1.5L364.7,105.9z"/>
	<path class="st0-menu" d="M359,114.8c0.5-0.2,1-0.2,1.5-0.1c0.5,0.2,0.9,0.5,1.1,1c0.1,0.2,0.2,0.5,0.2,0.7c0,0.3,0,0.5-0.1,0.8
		c-0.1,0.2-0.2,0.5-0.4,0.7c-0.2,0.2-0.4,0.4-0.6,0.5c-0.2,0.1-0.5,0.2-0.7,0.2c-0.3,0-0.5,0-0.8-0.1c-0.2-0.1-0.5-0.2-0.7-0.4
		c-0.2-0.2-0.3-0.4-0.5-0.6c-0.2-0.5-0.3-1-0.1-1.5C358.2,115.4,358.5,115,359,114.8z"/>
	<path class="st0-menu" d="M373.9,123.2c6.6-2.4,13,0.8,15.5,7.8c0.7,1.9,0.9,3.9,0.7,5.9l1.5,1.7l-6.3,2.5l-0.2-0.6l4.1-4
		c0.4-1.8,0.2-3.8-0.5-5.5c-2-5.5-7.7-7.2-13.5-5.1c-6.3,2.3-9.3,7.4-7.4,12.7c1.2,3.4,3.3,4.6,6.2,5.4l2.7,0.1l0.2,0.6l-5.9,0.9
		l-0.5-1.2c-1.5-1.7-2.7-3.6-3.5-5.7C364.7,132,367.3,125.5,373.9,123.2z"/>
	<path class="st0-menu" d="M378.5,147.1c1.1-0.3,2.1-0.3,3.2-0.1c1.1,0.2,2.1,0.5,3,1.1c0.9,0.6,1.7,1.3,2.4,2.2c0.6,0.9,1.1,1.9,1.3,2.9
		c0.3,1,0.3,2.1,0.1,3.1c-0.2,1-0.6,2-1.1,2.9c-0.6,0.9-1.3,1.7-2.2,2.3c-0.9,0.6-1.9,1-2.9,1.2c-1.1,0.3-2.1,0.3-3.2,0.2
		c-1.1-0.2-2.1-0.5-3-1.1c-0.9-0.6-1.7-1.3-2.4-2.2c-0.6-0.9-1.1-1.9-1.3-2.9c-0.3-1-0.3-2.1-0.1-3.2s0.6-2.1,1.1-3
		c0.6-0.9,1.3-1.7,2.2-2.3C376.5,147.7,377.5,147.3,378.5,147.1L378.5,147.1z M381.2,160c2.7-0.6,5-1.8,6-3.4
		c0.3-0.5,0.6-1.1,0.7-1.7c0.1-0.6,0.1-1.2,0-1.8c-0.7-3-4.4-4.3-8.1-3.4c-2.8,0.6-5.1,1.8-6.1,3.5c-0.3,0.5-0.5,1.1-0.7,1.6
		c-0.1,0.6-0.1,1.2,0.1,1.8C373.6,159.6,377.3,160.9,381.2,160L381.2,160z"/>
	<path class="st0-menu" d="M375.4,165.6l0.1,0.9c0.2,0.9,0.3,1.3,0.7,1.2l10.5-1.3c1.9-0.2,2.3-0.5,2.3-1.6v-1.2h0.4l1.8,4.7l-3,0.3v0.1
		c1.5,1.4,3.5,3.2,3.8,5.6c0.1,0.5,0.1,1-0.1,1.5c-0.1,0.5-0.3,1-0.7,1.4c-0.4,0.5-1,0.9-1.6,1.2c-0.6,0.3-1.2,0.4-1.9,0.5
		l-10.1,1.2c-0.3,0-0.4,0.1-0.3,1.6l0.1,0.9l-0.5,0.2l-0.9-7.2l0.5,0.1l0.1,0.9c0.2,1.1,0.4,1.2,0.7,1.2l9.3-1.1
		c2.5-0.3,3.4-1.6,3.2-3.7c-0.3-1.6-1.1-3.1-2.4-4.1l-11.1,1.3c-0.3,0-0.3,0.3-0.3,1.6l0.1,0.9l-0.5,0.2l-0.9-7.3L375.4,165.6z"/>
	<path class="st0-menu" d="M377.4,183.4l0.1,0.9c0.1,0.9,0.2,1.3,0.6,1.3l10.5-0.2c2,0,2.3-0.3,2.5-1.3l0.2-1.2h0.4l1.3,4.9h-3v0.1
		c1.3,1.5,3.1,3.5,3.2,6c0,0.5,0,1-0.2,1.5c-0.2,0.5-0.4,0.9-0.8,1.3c-0.5,0.4-1.1,0.8-1.7,1c-0.6,0.2-1.3,0.3-1.9,0.3l-10.2,0.2
		c-0.3,0-0.4,0.1-0.5,1.5v0.9l-0.5,0.1l-0.1-7.3l0.5,0.1v0.9c0.1,1.1,0.3,1.3,0.6,1.3l9.4-0.2c2.6,0,3.6-1.2,3.5-3.3
		c-0.1-1.6-0.8-3.2-2-4.3l-11.1,0.2c-0.3,0-0.4,0.2-0.5,1.5v0.9l-0.5,0.1l-0.1-7.3L377.4,183.4z"/>
	<path class="st0-menu" d="M384.3,201.8c4.8,0,8.6,3.2,8.6,7.8c0,3.6-2.2,5.6-5,5.6c-0.3,0-0.6,0-0.9-0.1l0.1-10.5
		c-0.6-0.1-1.2-0.1-1.7-0.1c-4.2,0-7,2.5-7,5.7c0,1,0.2,2,0.7,2.8c0.5,0.9,1.2,1.6,2.1,2.1l-0.2,0.4c-2.7-1.5-4.4-3.6-4.4-6.5
		C376.5,204.9,379.9,201.8,384.3,201.8z M387.7,212.4c2.5,0,4.6-1,4.6-3.2c0-2-2-3.9-4.7-4.5L387.7,212.4z"/>
	<path class="st0-menu" d="M384.3,217.3c4.8,0,8.6,3.4,8.6,8.1c0,3-1.4,5.2-3.3,5.2c-0.2,0-0.4,0-0.6-0.1c-0.2-0.1-0.4-0.2-0.6-0.3
		c-0.2-0.2-0.3-0.3-0.4-0.5c-0.1-0.2-0.1-0.4-0.1-0.6c0-0.2,0-0.5,0.2-0.7c0.1-0.2,0.3-0.4,0.5-0.6c0.2-0.2,0.4-0.3,0.7-0.3
		c0.2-0.1,0.5-0.1,0.7,0c0.8,0,1.1,0.5,1.3,0.5c0.4-0.3,0.7-0.7,0.9-1.1c0.2-0.4,0.3-0.9,0.3-1.4c0-2.9-2.8-5.3-6.9-5.3
		c-4.1,0-7.1,2.4-7.1,5.7c0,1,0.2,1.9,0.7,2.8c0.5,0.8,1.2,1.5,2.1,2l-0.2,0.4c-2.7-1.5-4.4-3.5-4.4-6.4
		C376.5,220.4,379.9,217.3,384.3,217.3z"/>
	<path class="st0-menu" d="M380.3,234.2l10.7,0.2l0.1-2.8l0.6,0.1l4,4.8l-0.1,0.4h-3.2v5.3l-1.4-0.4v-4.9l-10.4-0.3c-0.3-0.1-0.7,0-1,0.1
		c-0.3,0.1-0.6,0.3-0.9,0.5c-0.2,0.2-0.4,0.5-0.5,0.8c-0.1,0.3-0.1,0.7-0.1,1c0.1,1.1,0.5,2.2,1.3,3.1l-0.4,0.2
		c-1.3-1.3-2.5-2.8-2.5-4.6C376.5,235.7,377.5,234.2,380.3,234.2z"/>
	<path class="st0-menu" d="M377.5,243.6v1c0.1,0.9,0.1,1.3,0.5,1.3h10.5c2,0,2.3-0.3,2.5-1.3l0.2-1.1l0.4,0.1l1.2,4.9h-14.8
		c-0.3,0-0.4,0.2-0.5,1.5v0.9l-0.5,0.1v-7.4L377.5,243.6z M398,244.9c0.2,0,0.5,0,0.7,0.1c0.2,0.1,0.4,0.2,0.6,0.4
		c0.2,0.2,0.3,0.4,0.4,0.6c0.1,0.2,0.1,0.5,0.1,0.7c0,0.5-0.2,0.9-0.6,1.2c-0.3,0.3-0.8,0.5-1.3,0.5c-0.5,0-0.9-0.2-1.3-0.5
		c-0.3-0.3-0.5-0.8-0.6-1.2c0-0.2,0-0.5,0.1-0.7c0.1-0.2,0.2-0.4,0.4-0.6c0.2-0.2,0.4-0.3,0.6-0.4C397.5,245,397.8,244.9,398,244.9
		L398,244.9z"/>
	<path class="st0-menu" d="M377.5,252.1v0.9c0.1,0.9,0.1,1.3,0.5,1.3h10.5c2,0,2.3-0.3,2.5-1.3l0.2-1.2h0.4l1.2,4.9l-3-0.1v0.1
		c1.3,1.5,3.1,3.6,3.1,6c0,0.5,0,1-0.2,1.5c-0.2,0.5-0.4,0.9-0.8,1.3c-0.5,0.4-1.1,0.8-1.7,1c-0.6,0.2-1.3,0.3-1.9,0.2h-10.2
		c-0.3,0-0.4,0.1-0.5,1.5v0.9l-0.5,0.1v-7.2l0.5,0.1v0.9c0.1,1.1,0.3,1.3,0.5,1.3h9.4c2.6,0,3.6-1.2,3.6-3.3
		c-0.1-1.6-0.7-3.2-1.9-4.4h-11.1c-0.3,0-0.4,0.2-0.5,1.5v0.9l-0.5,0.1V252L377.5,252.1z"/>
	<path class="st0-menu" d="M372,270.1c2.1,0,3.7,2.2,4.4,4h0.1c0.2-2.1,1.2-3.5,2.6-3.5c1.7,0,3.1,2,3.6,3.8c0,0,0,0,0.1,0
		c0.4-1,1-1.8,1.8-2.4c0.8-0.6,1.8-0.9,2.8-0.9c0.8,0,1.5,0.2,2.2,0.5c0.7,0.3,1.3,0.8,1.8,1.3c0.5,0.6,0.9,1.2,1.2,1.9
		c0.3,0.7,0.4,1.5,0.3,2.3c0,1.4-0.4,2.8-1.2,3.9l0.6,4.4l-1.7-0.2l0.4-3.5h-0.2c-0.4,0.4-0.9,0.8-1.5,1c-0.6,0.2-1.2,0.4-1.8,0.4
		c-3,0-5.4-2.7-5.4-6.1c0-0.7,0.1-1.3,0.2-2c-0.3-1.1-1-2.2-2-2.2s-1.6,0.9-1.6,2.8c0,0.9,0.1,3,0.1,4.1c0,3.3-1.6,5.3-4.1,5.3
		c-3.9,0-6.8-3.7-6.8-9C368.1,272.4,369.6,270.1,372,270.1z M373.3,283.3c1.9,0,3.1-1.3,3.2-4.4c0-1.1-0.1-2.3-0.2-4.1
		c-0.3-0.7-0.8-1.4-1.4-1.9c-0.6-0.5-1.4-0.8-2.2-0.8c-2.3,0-3.9,2.3-3.9,5.5S370.8,283.3,373.3,283.3z M387.4,280.7
		c3,0,5-1.1,5-3.5c0-2-2-3.4-4.6-3.4c-3,0-5,1.4-5,3.4C382.7,279.2,384.6,280.7,387.4,280.7z"/>
	<path class="st0-menu" d="M377.5,293.9l0.1,1.5c0.1,1.1,0.3,1.4,0.5,1.4h20.1c0.3,0,0.4-0.2,0.5-1.7l0.1-1.3l0.5-0.1v8.7
		c0,5.8-2.2,8.1-4.9,8.1c-2.7,0-4.6-1.8-5.3-6.4h-0.1c-0.3,5-2.9,7.5-6,7.5c-3.8,0-6.2-3.3-6.2-9.2v-8.8L377.5,293.9z M377.7,303.2
		c0.2,3.6,2.5,5.4,5.3,5.4c3.5,0,5.8-2.7,5.8-6.6c0-0.5,0-1.9-0.1-2.3h-10.5l-0.6,2.7L377.7,303.2L377.7,303.2z M389.5,301.8
		c0.1,3.8,2.2,5.6,4.7,5.6c3.1,0,4.7-1.8,4.7-5.8v-2.1h-9.4V301.8z"/>
	<path class="st0-menu" d="M377.5,313.7v0.9c0.1,0.9,0.1,1.3,0.5,1.3h10.5c2,0,2.3-0.3,2.5-1.3l0.2-1.1h0.4l1.2,4.9l-5.6-0.1v0.1
		c3.7,1.3,5.7,2.8,5.7,4.9c0,0.3,0,0.5-0.1,0.7c-0.1,0.2-0.2,0.5-0.4,0.6c-0.2,0.2-0.4,0.3-0.6,0.4c-0.2,0.1-0.5,0.2-0.7,0.2
		c-0.2,0-0.5,0-0.7-0.1c-0.2-0.1-0.4-0.2-0.6-0.4c-0.2-0.2-0.3-0.3-0.4-0.5c-0.1-0.2-0.1-0.4-0.1-0.7c0-0.5,0.2-0.9,0.5-1.3
		c0.3-0.3,0.8-0.5,1.3-0.6c-0.4-1.4-2.1-2.5-5.2-3.5h-8c-0.3,0-0.4,0.1-0.5,1.4v1.5l-0.5,0.1v-7.8L377.5,313.7z"/>
	<path class="st0-menu" d="M379.2,335.1L379.2,335.1c-1.4-1.4-2.6-2.9-2.6-4.6c0-0.5,0.1-1,0.2-1.4c0.2-0.5,0.4-0.9,0.8-1.2
		c0.3-0.4,0.7-0.6,1.2-0.8c0.4-0.2,0.9-0.3,1.4-0.3c2.6,0,4.3,2,5.9,8.7h1.2c3.6,0.1,4.7-1.5,4.7-3.6c0-1.4-0.8-3-1.2-3
		s-0.8,0.8-1.7,0.8c-0.2,0-0.4,0-0.6-0.1c-0.2-0.1-0.3-0.2-0.5-0.4c-0.1-0.1-0.2-0.3-0.3-0.5c-0.1-0.2-0.1-0.4-0.1-0.6
		c0-0.2,0-0.4,0.1-0.6c0.1-0.2,0.2-0.4,0.3-0.5c0.1-0.1,0.3-0.3,0.5-0.4c0.2-0.1,0.4-0.1,0.6-0.1c1.8,0,4,4,4,6.8
		c0,3.2-1.3,4.8-5.7,4.6l-7.7-0.4c-1.1,0-1.5,0.4-1.5,1.1c0.1,0.7,0.5,1.3,1,1.7l-0.3,0.3c-0.9-0.8-2.3-1.8-2.3-3.2
		C376.5,336,377.5,335.3,379.2,335.1z M379.8,335.1l5.7,0.2c-1.2-5-2.7-6.1-4.6-6.1c-0.3,0-0.7,0-1,0.1c-0.3,0.1-0.6,0.3-0.9,0.5
		c-0.3,0.2-0.4,0.5-0.6,0.9c-0.1,0.3-0.2,0.7-0.2,1C378.3,333,378.9,334.3,379.8,335.1z"/>
	<path class="st0-menu" d="M377.5,341.3v0.9c0.1,0.9,0.1,1.3,0.5,1.3h10.5c2,0,2.3-0.3,2.5-1.3l0.2-1.1h0.4l1.2,4.9l-3-0.1v0.1
		c1.3,1.5,3.1,3.6,3.1,6c0,0.5,0,1-0.2,1.5c-0.2,0.5-0.4,0.9-0.8,1.3c-1,0.9-2.3,1.3-3.6,1.2h-10.2c-0.3,0-0.4,0.1-0.5,1.5v0.9
		l-0.5,0.1v-7.3l0.5,0.1v0.9c0.1,1.1,0.3,1.3,0.5,1.3h9.4c2.6,0,3.6-1.2,3.6-3.3c-0.1-1.6-0.7-3.2-1.9-4.4h-11.1
		c-0.3,0-0.4,0.2-0.5,1.5v0.9l-0.5,0.1v-7.3L377.5,341.3z"/>
	<path class="st0-menu" d="M379.4,371.9v-0.1c-0.9-0.6-1.6-1.5-2.1-2.4c-0.5-0.9-0.8-2-0.9-3.1c0-3.6,3.2-6.5,7.7-6.5
		c1.1,0,2.2,0.1,3.2,0.5c1,0.4,2,1,2.8,1.7c0.8,0.8,1.4,1.7,1.9,2.7c0.4,1,0.7,2.1,0.7,3.2c0,1.3-0.3,2.7-0.9,3.9v0.1h6.3
		c1.1,0,1.4-0.2,1.5-1.1l0.3-1.7l0.4,0.1l1,5.2h-22.5c-0.7,0-0.9,0.2-1,0.7l-0.3,1.8h-0.4l-0.9-4.9L379.4,371.9z M380.3,371.9h9
		c0.8-0.4,1.5-1.1,2-1.9c0.5-0.8,0.8-1.7,0.9-2.6c0-3-3-4.8-7-4.8c-3.9,0-6.9,2-6.9,5.1c0,0.8,0.2,1.6,0.5,2.3
		S379.7,371.4,380.3,371.9L380.3,371.9z"/>
	<path class="st0-menu" d="M377.3,378.4l4.4-0.3v0.6l-2.1,0.8c-0.7,0.3-1.3,0.9-1.8,1.5c-0.4,0.7-0.7,1.4-0.7,2.2c0,2.1,1.3,3.6,3.1,3.6
		s2.9-1.6,3.7-4c0.8-2.2,1.8-4.4,4.6-4.4c2.6,0,4.5,2.2,4.5,5.2c0,1.1-0.2,2.2-0.6,3.2l0.4,1.1l-4.3,0.2v-0.6l3-1.5
		c0.6-0.7,0.9-1.7,0.9-2.6c0-1.9-1.1-3.1-2.7-3.1c-1.9,0-2.6,1.6-3.4,3.8c-0.9,2.4-1.8,4.7-4.9,4.7c-2.6,0-5-2.2-5-6
		C376.5,381.4,376.8,379.9,377.3,378.4L377.3,378.4z"/>
	<path class="st0-menu" d="M382.8,397.4c3.3,0,6.2,2.5,7.5,6.3c1.1-2,2.6-3.4,4.6-3.4c2.5,0,5.2,2.6,5.2,5.8c0,3.6-2.2,5.5-4.2,5.5
		c-2,0-3.7-1.4-4.7-4.5c-1.6,2.7-3.8,4.9-6.5,6.5c2.2,1.7,4.5,3.3,5.3,3.4c0.6,0,1-0.6,1.2-2.4l0.1-0.7l0.5-0.1v8.3l-0.5-0.1
		l-0.1-0.7c-0.1-1.6-0.8-2.3-2.6-3.8l-4.4-3.5c-4.3,2.2-5.8,3.2-5.8,5c0.1,1.2,0.7,2.3,1.7,3l-0.4,0.4c-1.3-1.1-3.1-2.8-3.1-4.8
		c0-2.2,1.4-3.7,5.5-5.6c-2.9-2.4-5.5-4.8-5.5-8.2c0-0.8,0.1-1.7,0.4-2.5c0.3-0.8,0.8-1.5,1.4-2.1c0.6-0.6,1.3-1.1,2.1-1.4
		C381.1,397.6,381.9,397.4,382.8,397.4z M382.5,411.8c3.3-1.5,6-4.2,7.4-7.5c-1.5-2.9-3.7-4.2-6-4.2c-0.7,0-1.4,0.1-2.1,0.3
		c-0.7,0.3-1.3,0.6-1.8,1.1c-0.5,0.5-0.9,1.1-1.2,1.8c-0.3,0.7-0.4,1.4-0.4,2.1C378.6,407.8,380.1,409.6,382.5,411.8z M395.7,409.3
		c1.8,0,3.8-1.2,3.8-3.3c0-0.5-0.1-0.9-0.3-1.3c-0.2-0.4-0.5-0.8-0.8-1.1c-0.3-0.3-0.7-0.5-1.1-0.7c-0.4-0.2-0.9-0.2-1.3-0.2
		c-2.1,0-3.3,1.2-4.5,3.8c0.3,0.8,0.9,1.6,1.7,2.1S394.7,409.3,395.7,409.3L395.7,409.3z"/>
	<path class="st0-menu" d="M377.5,429.6l0.1,1.9c0.1,1,0.3,1.4,0.5,1.4h20.2c0.3,0,0.3-0.2,0.5-1.7l0.1-1.6l0.5-0.1v9.5
		c0,5.6-2.2,8.4-5.6,8.4c-4,0-6.5-3.6-6.5-8.5c0-1.1,0.1-2.1,0.2-3.1h-9.5c-0.3,0-0.4,0.2-0.5,1.7l-0.1,2.1l-0.5,0.1v-10.2
		L377.5,429.6z M393.4,444.4c3.5,0,5.5-1.8,5.4-6.1v-2.6h-10.4c-0.3,1-0.4,2.1-0.4,3.1C388,442.4,390,444.4,393.4,444.4z"/>
	<path class="st0-menu" d="M384.3,448.2c4.8,0,8.6,3.2,8.6,7.8c0,3.6-2.2,5.6-5,5.6c-0.3,0-0.6,0-0.9-0.1l0.1-10.5
		c-0.6-0.1-1.2-0.1-1.7-0.1c-4.2,0-7,2.4-7,5.7c0,1,0.2,2,0.7,2.8c0.5,0.9,1.2,1.6,2.1,2.1l-0.2,0.4c-2.7-1.5-4.4-3.6-4.4-6.4
		C376.5,451.3,379.9,448.2,384.3,448.2z M387.7,458.8c2.5,0,4.6-1,4.6-3.2c0-2-2-3.9-4.7-4.5L387.7,458.8z"/>
	<path class="st0-menu" d="M384.7,463.7c1.1,0,2.2,0.2,3.2,0.6c1,0.4,1.9,1,2.7,1.8c0.8,0.8,1.4,1.7,1.8,2.7c0.4,1,0.6,2.1,0.6,3.2
		c0,1.1-0.2,2.1-0.6,3.1c-0.4,1-1,1.9-1.7,2.6c-0.8,0.7-1.6,1.3-2.6,1.7c-1,0.4-2,0.6-3.1,0.5c-1.1,0-2.2-0.1-3.2-0.5
		c-1-0.4-1.9-1-2.7-1.7c-0.8-0.8-1.4-1.7-1.8-2.7c-0.4-1-0.7-2.1-0.7-3.2c0-1.1,0.2-2.1,0.6-3.1c0.4-1,1-1.9,1.8-2.6
		c0.8-0.8,1.7-1.3,2.7-1.7C382.5,463.9,383.6,463.7,384.7,463.7L384.7,463.7z M384.4,476.9c2.7,0,5.2-0.6,6.6-2
		c0.4-0.4,0.8-0.9,1-1.5c0.2-0.6,0.4-1.2,0.4-1.8c0-3.1-3.3-5.1-7.2-5.1c-2.9,0-5.4,0.6-6.8,2.1c-0.4,0.4-0.8,0.9-1,1.5
		c-0.2,0.6-0.3,1.1-0.3,1.7C377.1,474.9,380.4,476.9,384.4,476.9L384.4,476.9z"/>
	<path class="st0-menu" d="M368.5,481.1v1c0.1,0.9,0.1,1.3,0.5,1.3h19.6c1.9,0,2.3-0.3,2.5-1.3l0.2-1.1h0.4l1.2,4.9h-3l-0.1,0.1
		c0.9,0.6,1.6,1.5,2.1,2.4c0.5,1,0.8,2,0.9,3.1c0,3.7-3.1,6.5-7.6,6.5c-5.3,0-8.7-3.9-8.7-8c0-1.4,0.3-2.7,0.9-4v-0.1H369
		c-0.3,0-0.4,0.2-0.4,1.5v1.5l-0.5,0.1v-8L368.5,481.1z M384.3,495.1c3.8,0,6.7-2,6.7-5c0-0.8-0.2-1.6-0.6-2.3
		c-0.4-0.7-0.9-1.4-1.5-1.9h-9c-0.8,0.5-1.5,1.1-2,1.9c-0.5,0.8-0.8,1.7-0.8,2.6C377.2,493.3,380.2,495.1,384.3,495.1z"/>
	<path class="st0-menu" d="M377.5,499.5v1c0.1,0.9,0.1,1.3,0.5,1.3h19.3c1.7,0,2-0.2,2.2-1.1l0.3-1.4h0.4l1.2,5h-23.4
		c-0.3,0-0.4,0.1-0.5,1.5v0.9l-0.5,0.1v-7.3L377.5,499.5z"/>
	<path class="st0-menu" d="M384.3,508.2c4.8,0,8.6,3.2,8.6,7.8c0,3.6-2.2,5.6-5,5.6c-0.3,0-0.6,0-0.9-0.1l0.1-10.5
		c-0.6-0.1-1.1-0.1-1.7-0.1c-4.2,0-7,2.4-7,5.7c0,1,0.2,2,0.7,2.8c0.5,0.9,1.2,1.6,2.1,2.1l-0.2,0.4c-2.7-1.5-4.4-3.6-4.4-6.4
		C376.5,511.3,379.9,508.2,384.3,508.2z M387.7,518.8c2.5,0,4.6-1,4.6-3.2c0-2-2-3.9-4.7-4.5L387.7,518.8z"/>
	<path class="st0-menu" d="M378.5,523.9c0.5,0,1,0.2,1.3,0.6c0.4,0.4,0.6,0.9,0.6,1.4c0,0.3,0,0.5-0.1,0.8c-0.1,0.3-0.2,0.5-0.4,0.7
		c-0.2,0.2-0.4,0.3-0.6,0.5c-0.2,0.1-0.5,0.2-0.8,0.2c-0.3,0-0.5-0.1-0.8-0.2c-0.2-0.1-0.5-0.3-0.6-0.5c-0.2-0.2-0.3-0.4-0.4-0.7
		c-0.1-0.3-0.1-0.5-0.1-0.8c0-0.5,0.2-1,0.6-1.4C377.5,524.1,378,523.9,378.5,523.9z"/>
</g>
</svg>
