<svg width="158" height="40" viewBox="0 0 158 40" fill="none" xmlns="http://www.w3.org/2000/svg">
<g clip-path="url(#clip0_1792_4983)">
<path d="M81.2921 37.6594V38.5601L73.4033 39.9369C71.9643 40.1483 71.9106 38.9315 71.9106 38.9315V34.2773C70.6326 37.2957 66.2082 39.9903 62.9047 39.9903C58.6892 39.9903 56.1982 38.2421 56.1982 31.8855V20.5511C56.1982 17.3729 56.3036 16.8968 53.2129 16.4721V15.5733L62.807 14.5659V31.7275C62.807 34.6944 64.1924 36.1245 67.2831 36.1245C68.7758 36.1245 70.8012 34.7915 71.9202 32.6815V20.7111C71.9202 17.4738 72.1348 16.7901 69.4158 16.4721V15.5733L78.5826 14.5659V34.6411C78.5731 37.1833 79.0636 37.3947 81.2921 37.6594Z" fill="#515151"/>
<path d="M94.8805 38.6135V39.5143H83.9585V38.6135C85.9838 38.0308 86.0892 35.8066 86.0892 33.1044V6.30324C86.0892 4.44845 85.5565 3.65435 83.4258 2.86026V1.95953L92.7478 0V33.1044C92.7478 36.018 93.0142 38.1375 94.8805 38.6135Z" fill="#515151"/>
<path d="M113.855 34.3764L114.654 34.8524C113.589 37.3413 110.337 39.994 106.765 39.994C102.55 39.994 100.059 38.2992 100.059 31.8893V15.9427H97.3934L97.2324 15.042H100.059V7.94463L106.719 6.83252V15.0439H113.064L112.849 15.9446H106.717V31.7294C106.717 34.6963 107.997 36.2311 110.663 36.2311C112.201 36.2292 113.374 35.1704 113.855 34.3764Z" fill="#515151"/>
<path d="M128.19 38.6136V39.5143H117.268V38.6136C119.293 37.9775 119.401 35.7571 119.401 33.0511V21.292C119.401 19.4925 118.868 18.7498 116.682 17.5843V16.6855L126.009 14.566V33.0511C126.009 36.018 126.272 38.0861 128.19 38.6136ZM122.177 10.3289C121.23 10.3073 120.33 9.91832 119.668 9.24517C119.006 8.57203 118.635 7.66818 118.635 6.72697C118.635 5.78575 119.006 4.8819 119.668 4.20875C120.33 3.5356 121.23 3.14661 122.177 3.12498C122.66 3.11394 123.14 3.19895 123.59 3.375C124.039 3.55106 124.449 3.81461 124.794 4.15018C125.14 4.48575 125.414 4.88656 125.602 5.32907C125.789 5.77157 125.886 6.24685 125.886 6.72697C125.886 7.20708 125.789 7.68235 125.602 8.12486C125.414 8.56736 125.14 8.96817 124.794 9.30374C124.449 9.63931 124.039 9.90286 123.59 10.0789C123.14 10.255 122.66 10.34 122.177 10.3289Z" fill="#515151"/>
<path d="M156.917 35.858L157.824 36.2389C157.398 37.9337 154.95 39.9999 151.589 39.9999C151.589 39.9999 146.844 39.9999 146.258 35.7095C145.459 38.0403 142.314 39.9999 138.53 39.9999C138.53 39.9999 132.398 39.9999 132.398 34.5974C132.398 28.8235 136.875 28.2941 146.195 25.9633V22.6707C146.195 17.1616 143.102 14.408 139.425 16.3142C137.72 17.1616 137.509 18.0623 137.881 18.1156C138.274 18.1574 138.654 18.2829 138.994 18.4837C139.334 18.6845 139.627 18.9558 139.852 19.2792C140.079 19.6057 140.238 19.9737 140.32 20.3618C140.403 20.75 140.407 21.1505 140.332 21.5402C140.258 21.9298 140.106 22.301 139.886 22.632C139.666 22.963 139.383 23.2474 139.051 23.4686C138.384 23.9106 137.569 24.075 136.78 23.9266C135.992 23.7781 135.294 23.3286 134.836 22.6745C134.196 21.6672 134.142 20.3894 134.677 19.4963C135.211 18.6031 135.901 17.1654 138.833 15.6286C141.232 14.3584 144.006 14.5698 144.006 14.5698C150.989 14.5698 152.907 18.9135 152.907 25.1635V33.0549C152.907 33.0549 152.855 36.7626 155.465 36.7626C155.478 36.753 156.599 36.753 156.917 35.858ZM146.206 26.9078C140.983 28.0732 139.224 30.5621 139.224 33.2644C139.224 33.2644 139.224 36.7588 142.688 36.7588C144.501 36.7588 145.725 35.3286 146.206 34.0584V26.9078Z" fill="#515151"/>
<path d="M28.4217 29.0787L15.5835 2.22803H2.1475V3.12876C3.47922 3.2354 6.14458 3.2354 8.16994 6.78311V26.1118C8.16994 26.1118 8.16994 38.6135 0.175781 38.6135V39.5124H16.3231V38.6135C8.96897 38.6135 9.07628 26.1118 9.07628 26.1118V8.21134L23.9992 39.9903H24.9055L28.893 30.0651L28.4217 29.0787Z" fill="#515151"/>
<path d="M46.7564 33.104V7.77682C46.7564 4.53951 48.5672 3.11509 50.8589 3.11509V2.21436H39.0803V33.104C39.0803 36.7051 37.4823 38.6132 35.248 38.6132V39.512H51.3437V38.6132C49.0481 38.6132 46.7564 36.7051 46.7564 33.104Z" fill="#515151"/>
</g>
<defs>
<clipPath id="clip0_1792_4983">
<rect width="157.647" height="40" fill="white" transform="translate(0.175781)"/>
</clipPath>
</defs>
</svg>
