<svg width="88" height="35" viewBox="0 0 88 35" fill="none" xmlns="http://www.w3.org/2000/svg">
<path d="M76.673 15.7862C75.5888 13.9679 74.0981 12.5223 72.2007 11.4494C70.3033 10.3765 68.1575 9.8457 65.7745 9.8457C63.4141 9.8457 61.2909 10.3991 59.4161 11.4946C57.5414 12.6014 56.0506 14.0696 54.9438 15.9218C53.837 17.7739 53.2949 19.7955 53.2949 22.0091C53.2949 24.2453 53.7806 26.2894 54.7631 28.1416C55.7457 29.9938 57.0896 31.462 58.795 32.5688C60.5003 33.6756 62.4768 34.229 64.7129 34.229C66.6329 34.229 68.2818 33.8111 69.6483 32.9979C70.5857 32.4333 71.365 31.7217 72.02 30.8634V34.2177H78.3106V22.0091C78.2993 19.6713 77.7572 17.6045 76.673 15.7862ZM70.9132 25.0358C70.405 25.9393 69.7048 26.6621 68.8126 27.2042C67.9317 27.7463 66.9152 28.0174 65.7632 28.0174C64.6452 28.0174 63.64 27.7463 62.7591 27.2042C61.8782 26.6621 61.178 25.9393 60.6585 25.0358C60.1502 24.1323 59.8905 23.1385 59.8905 22.0543C59.8905 20.9701 60.1502 19.9762 60.6585 19.0727C61.1667 18.1692 61.8669 17.4464 62.7591 16.9043C63.64 16.3622 64.6452 16.0912 65.7632 16.0912C66.9152 16.0912 67.9317 16.3622 68.8126 16.9043C69.6935 17.4464 70.3937 18.1692 70.9132 19.0727C71.4214 19.9762 71.6812 20.9701 71.6812 22.0543C71.6925 23.1385 71.4327 24.1323 70.9132 25.0358Z" fill="#515151"/>
<path d="M12.333 16.2489C11.0907 16.2489 10.0629 16.5538 9.26108 17.1524C8.44792 17.7623 7.86065 18.5528 7.48795 19.5241C7.11526 20.5067 6.93456 21.6022 6.93456 22.8106V24.7418H0.316406V22.02C0.316406 19.7839 0.756863 17.7397 1.64907 15.8875C2.52999 14.0353 3.86265 12.5671 5.63577 11.4604C7.3976 10.3649 9.63377 9.82275 12.333 9.82275C15.0322 9.82275 17.2797 10.3761 19.0641 11.4829C20.8485 12.5897 22.1924 14.0579 23.0959 15.8875C23.9995 17.7171 24.4512 19.7726 24.4512 22.0426V34.2173H17.8331V22.8219C17.8331 21.636 17.6298 20.5518 17.2232 19.558C16.8166 18.5641 16.218 17.7623 15.4275 17.1524C14.6482 16.5538 13.6092 16.2489 12.333 16.2489Z" fill="#515151"/>
<path d="M3.64807 34.2253C3.03821 34.2253 2.48481 34.0785 1.9653 33.7849C1.44578 33.4912 1.03921 33.096 0.756863 32.5764C0.463225 32.0569 0.316406 31.4922 0.316406 30.8937C0.316406 30.2838 0.463225 29.7304 0.756863 29.2222C1.0505 28.714 1.44578 28.3074 1.9653 28.0138C2.48481 27.7088 3.0495 27.562 3.64807 27.562C4.25793 27.562 4.81133 27.7088 5.31955 28.0138C5.82777 28.3187 6.22305 28.7253 6.51669 29.2222C6.81033 29.7304 6.95714 30.2838 6.95714 30.8937C6.95714 31.5035 6.81033 32.0682 6.51669 32.5764C6.22305 33.096 5.82777 33.5025 5.31955 33.7849C4.81133 34.0785 4.25793 34.2253 3.64807 34.2253Z" fill="#515151"/>
<path d="M84.3766 7.01098C83.7667 7.01098 83.2133 6.86416 82.6938 6.57053C82.1743 6.27689 81.7677 5.88161 81.4854 5.36209C81.1917 4.84258 81.0449 4.27789 81.0449 3.67932C81.0449 3.08075 81.1917 2.51606 81.4854 2.00784C81.779 1.49962 82.1743 1.09305 82.6938 0.799407C83.2133 0.494475 83.778 0.347656 84.3766 0.347656C84.9864 0.347656 85.5398 0.494475 86.0481 0.799407C86.5563 1.10434 86.9516 1.51092 87.2452 2.00784C87.5388 2.51606 87.6857 3.06946 87.6857 3.67932C87.6857 4.28918 87.5388 4.85387 87.2452 5.36209C86.9516 5.88161 86.5563 6.28818 86.0481 6.57053C85.5398 6.86416 84.9864 7.01098 84.3766 7.01098Z" fill="#515151"/>
<path d="M87.6728 9.81201H81.0547V34.2179H87.6728V9.81201Z" fill="#515151"/>
<path d="M38.9518 27.7804C40.1941 27.7804 41.2218 27.4755 42.0237 26.8769C42.8368 26.267 43.4241 25.4765 43.7968 24.5052C44.1695 23.5227 44.3502 22.4272 44.3502 21.2187V19.2649H50.9684V22.0093C50.9684 24.2455 50.5279 26.2896 49.6357 28.1418C48.7548 29.994 47.4221 31.4622 45.649 32.569C43.8759 33.6758 41.6397 34.2292 38.9405 34.2292C36.2413 34.2292 33.9938 33.6758 32.2094 32.569C30.425 31.4622 29.081 29.994 28.1775 28.1644C27.274 26.3348 26.8223 24.2793 26.8223 22.0093V9.81201H33.4404V21.2074C33.4404 22.3933 33.6437 23.4775 34.0503 24.4713C34.4569 25.4652 35.0554 26.267 35.846 26.8769C36.6366 27.4868 37.6756 27.7804 38.9518 27.7804Z" fill="#515151"/>
<path d="M47.6372 9.81201C48.2471 9.81201 48.8005 9.95883 49.32 10.2525C49.8395 10.5461 50.2461 10.9414 50.5284 11.4609C50.822 11.9804 50.9689 12.5451 50.9689 13.1437C50.9689 13.7535 50.822 14.3069 50.5284 14.8152C50.2348 15.3234 49.8395 15.7299 49.32 16.0236C48.8005 16.3285 48.2358 16.4753 47.6372 16.4753C47.0273 16.4753 46.4739 16.3285 45.9657 16.0236C45.4575 15.7187 45.0622 15.3121 44.7686 14.8152C44.4749 14.3069 44.3281 13.7535 44.3281 13.1437C44.3281 12.5338 44.4749 11.9691 44.7686 11.4609C45.0622 10.9414 45.4575 10.5348 45.9657 10.2525C46.4739 9.95883 47.0273 9.81201 47.6372 9.81201Z" fill="#515151"/>
</svg>
