<svg width="278" height="26" viewBox="0 0 278 26" fill="none" xmlns="http://www.w3.org/2000/svg">
<path d="M33.6253 24.6409V25.2319H23.1977V24.6409C24.6509 24.6409 25.6936 23.392 25.6936 21.0281V2.38426L16.4862 25.5441H15.8761L6.19168 4.68128V16.434C6.19168 16.434 6.12515 24.6409 10.8952 24.6409V25.2319H0.412109V24.6409C5.60375 24.6409 5.60374 16.434 5.60374 16.434V3.73347C5.25046 2.99928 4.69443 2.38282 4.00201 1.95771C3.30959 1.53259 2.51007 1.31681 1.69893 1.3361V0.745117H10.4071L18.7492 18.3742L25.6714 0.745117H33.3147V1.3361C31.8282 1.3361 30.6523 2.27274 30.6523 4.39136V21.0169C30.6745 23.392 32.161 24.6409 33.6253 24.6409Z" fill="#515151"/>
<path d="M59.7269 1.34691C54.5131 1.34691 54.5797 6.55426 54.5797 6.55426V16.8797C54.5797 24.3283 49.033 25.5438 46.0268 25.5438C41.3232 25.5438 37.4517 22.3435 37.4517 16.679V4.41333C37.5057 4.0232 37.4737 3.62593 37.3581 3.24961C37.2424 2.87328 37.0458 2.52711 36.7823 2.23561C36.5187 1.94411 36.1947 1.7144 35.833 1.56276C35.4714 1.41111 35.081 1.34124 34.6895 1.35807V0.76709H45.6829V1.35807C44.1964 1.35807 42.4658 1.90444 42.4658 4.41333V16.9355C42.4658 21.0389 44.9951 23.4698 48.2787 23.4698C50.9078 23.4698 53.9917 21.2396 53.9917 16.8909V6.56542C53.9917 6.56542 54.0583 1.32462 49.2882 1.35807V0.76709H59.7269V1.34691Z" fill="#515151"/>
<path d="M81.2164 17.6825V25.2315H61.5703V24.6405C63.0568 24.6405 64.0219 23.1129 64.0219 20.7489V4.43558C64.0219 2.31697 62.7795 1.34684 61.293 1.34684V0.755859H72.2531V1.34684C70.7666 1.34684 69.0361 1.93784 69.0361 4.43558V24.6405H70.2896C70.2896 24.6405 79.4526 24.6405 80.6285 17.6825H81.2164Z" fill="#515151"/>
<path d="M103.602 0.755859V7.73615H103.014C102.737 1.51411 95.3712 1.34684 95.3712 1.34684H94.7167V21.0277C94.7167 23.3916 96.2032 24.6405 97.6564 24.6405V25.2315H86.7518V24.6405C88.205 24.6405 89.6915 23.3916 89.6915 21.0277V1.34684H89.0925C89.0925 1.34684 81.7598 1.51411 81.4825 7.73615H80.8945V0.755859H103.602Z" fill="#515151"/>
<path d="M116.58 0.755859V1.34684C116.177 1.32779 115.774 1.39565 115.399 1.54584C115.024 1.69604 114.686 1.92512 114.406 2.21768C114.127 2.51023 113.913 2.85948 113.779 3.24202C113.645 3.62456 113.594 4.03153 113.629 4.43558V21.0277C113.629 23.3916 115.126 24.6405 116.58 24.6405V25.2315H105.73V24.6405C107.217 24.6405 108.67 23.3916 108.67 21.0277V4.43558C108.709 4.03172 108.661 3.62419 108.529 3.24079C108.397 2.85739 108.184 2.50715 107.905 2.21397C107.626 1.92078 107.287 1.69154 106.912 1.54189C106.536 1.39225 106.134 1.32571 105.73 1.34684V0.755859H116.58Z" fill="#515151"/>
<path d="M143.904 0.755859V1.34684C142.318 1.34684 140.72 1.34685 137.248 9.65406L131.025 25.2649H130.437C121.962 4.78124 121.562 4.19027 121.562 4.19027C120.453 1.41376 119.177 1.38033 118.234 1.38033V0.78931H129.228V1.38033C126.388 1.38033 127.708 5.40568 127.708 5.40568L132.999 18.6526L136.627 9.5091C136.627 9.5091 139.777 1.38033 134.076 1.38033V0.78931L143.904 0.755859Z" fill="#515151"/>
<path d="M165.046 17.6491V25.2315H145.566V24.6405C147.02 24.6405 147.574 22.8341 147.574 20.4702V5.55064C147.574 3.38742 147.086 1.34684 145.566 1.34684V0.755859H164.591V7.35704H164.003C163.205 1.34686 153.831 1.34684 153.831 1.34684H152.588V12.5755H153.831C153.831 12.5755 159.089 12.5755 159.444 8.95157H160.087V16.757H159.5C159.145 13.1442 153.886 13.1442 153.886 13.1442H152.644V24.6182H153.886C153.886 24.6182 163.06 24.6182 164.514 17.6267L165.046 17.6491Z" fill="#515151"/>
<path d="M192.17 24.6405V25.2315H188.986C182.829 25.2315 183.728 25.2315 181.31 17.6491C181.055 16.6708 180.5 15.7982 179.723 15.1556C178.946 14.5129 177.987 14.1329 176.983 14.0697H175.353V21.0277C175.353 23.3916 176.462 24.6405 177.915 24.6405V25.2315H167.854V24.6405C169.34 24.6405 170.338 23.3916 170.338 21.0277V4.43558C170.338 2.28351 169.373 1.34684 167.854 1.34684V0.755859H176.429C183.306 0.755859 188.154 1.58102 188.154 7.39049C188.154 11.6389 185.525 13.2 181.409 13.6906C183.628 13.4453 186.424 14.9729 188.065 21.2284C188.321 22.1506 188.851 22.9721 189.585 23.5821C190.319 24.1922 191.221 24.5616 192.17 24.6405ZM182.519 7.39049C182.519 1.34686 179.779 1.34684 176.429 1.34684H175.319V13.4787H176.429C179.779 13.4787 182.519 13.4453 182.519 7.39049Z" fill="#515151"/>
<path d="M210.673 22.6894C210.673 22.6894 209.054 25.544 203.485 25.544C196.773 25.544 194 23.3919 194 23.3919V16.7015H194.588C195.353 18.8201 197.328 24.9418 203.463 24.9418C207.157 24.9418 208.299 19.9018 204.084 16.8019L198.759 13.4567C193.845 10.3568 192.014 6.87783 194.876 3.09777C194.876 3.09777 196.574 0.455078 202.043 0.455078C207.955 0.455078 210.917 2.11651 210.917 2.11651V7.95945H210.329C209.675 6.1196 207.567 1.0349 202.032 1.0349C198.293 1.0349 196.94 5.62897 201.444 8.58389L206.768 12.1298C211.372 15.1516 213.269 18.8982 210.673 22.6894Z" fill="#515151"/>
<path d="M225.972 0.755859V1.34684C225.57 1.32943 225.168 1.39853 224.795 1.54945C224.421 1.70037 224.084 1.92966 223.806 2.22203C223.528 2.5144 223.315 2.86308 223.181 3.24481C223.048 3.62653 222.997 4.03251 223.032 4.43558V21.0277C223.032 23.3916 224.518 24.6405 225.972 24.6405V25.2315H215.078V24.6405C216.565 24.6405 218.018 23.3916 218.018 21.0277V4.43558C218.057 4.03172 218.008 3.62419 217.876 3.24079C217.744 2.85739 217.531 2.50715 217.252 2.21397C216.973 1.92078 216.635 1.69154 216.259 1.54189C215.884 1.39225 215.481 1.32571 215.078 1.34684V0.755859H225.972Z" fill="#515151"/>
<path d="M250.631 0.755859V7.73615H250.043C249.765 1.51411 242.399 1.34684 242.399 1.34684H241.745V21.0277C241.745 23.3916 243.231 24.6405 244.685 24.6405V25.2315H233.791V24.6405C235.244 24.6405 236.731 23.3916 236.731 21.0277V1.34684H236.076C236.076 1.34684 228.732 1.51411 228.466 7.73615H227.867V0.755859H250.631Z" fill="#515151"/>
<path d="M277.588 0.755859V1.34684C276.689 1.34684 273.295 1.41376 269.423 9.02963L267.138 13.8578V21.0277C267.138 23.3916 268.624 24.6405 270.078 24.6405V25.2315H259.184V24.6405C260.637 24.6405 262.124 23.3916 262.124 21.0277V15.6308C257.043 6.58766 255.379 4.05647 255.379 4.05647C253.859 1.41377 252.539 1.31339 251.674 1.31339V0.755859H262.767V1.31339C262.035 1.31339 259.617 1.31341 261.968 5.27188L266.849 13.2668L269.168 8.43865C269.168 8.43865 272.241 1.34684 267.26 1.34684V0.755859H277.588Z" fill="#515151"/>
</svg>
