<svg width="109" height="101" viewBox="0 0 109 101" fill="none" xmlns="http://www.w3.org/2000/svg">
<path d="M55.8646 72.7274C55.452 72.4808 54.9819 72.348 54.5018 72.3423C54.0274 72.3462 53.5624 72.4757 53.1536 72.7176C48.4589 75.3111 54.5018 82.5114 54.5018 82.5114C54.5018 82.5114 60.5253 75.3306 55.8646 72.7274Z" fill="white"/>
<path d="M55.8646 50.5995C55.4529 50.3507 54.9822 50.2177 54.5018 50.2144C54.0282 50.2191 53.5638 50.3467 53.1536 50.5848C48.4589 53.1832 54.5018 60.3785 54.5018 60.3785C54.5018 60.3785 60.5253 53.2027 55.8646 50.5995Z" fill="white"/>
<path d="M68.6639 46.0124C68.6639 46.0124 61.4668 40.0211 58.9206 44.7303C58.6748 45.1418 58.5449 45.6128 58.5449 46.0928C58.5449 46.5728 58.6748 47.0438 58.9206 47.4553C61.5589 52.1499 68.6639 46.0124 68.6639 46.0124Z" fill="white"/>
<path d="M50.1123 47.6365C50.3459 47.2151 50.4647 46.7392 50.4567 46.2569C50.4381 45.7807 50.2978 45.3173 50.0493 44.9114C47.3382 40.2705 40.3496 46.5397 40.3496 46.5397C40.3496 46.5397 47.6486 52.3896 50.1123 47.6365Z" fill="white"/>
<path d="M58.7638 62.4562C58.45 62.3416 58.111 62.3155 57.7836 62.3809C57.4562 62.4462 57.1528 62.6003 56.9063 62.8267C54.0497 65.2641 59.1809 69.3444 59.1809 69.3444C59.1809 69.3444 62.309 63.5871 58.7638 62.4562Z" fill="white"/>
<path d="M65.0399 59.2721C64.7074 59.2975 64.3882 59.4134 64.1164 59.6075C63.8447 59.8017 63.6307 60.0666 63.4976 60.3739C61.8826 63.7863 68.2262 65.3804 68.2262 65.3804C68.2262 65.3804 68.7403 58.8383 65.0399 59.2721Z" fill="white"/>
<path d="M74.8469 58.0345C74.8469 58.0345 72.6451 51.858 69.4442 53.7739C69.1519 53.9382 68.9077 54.177 68.7361 54.4661C68.5723 54.7557 68.487 55.0835 68.4888 55.4167C68.4209 59.1753 74.8469 58.0345 74.8469 58.0345Z" fill="white"/>
<path d="M71.2636 46.939C71.0616 47.2092 70.9359 47.5292 70.8999 47.8653C70.867 48.1987 70.9222 48.535 71.0599 48.8402C72.5149 52.3063 77.9224 48.6111 77.9224 48.6111C77.9224 48.6111 73.3927 43.8727 71.2636 46.939Z" fill="white"/>
<path d="M70.6989 41.7716C73.4391 44.3358 76.8679 38.7345 76.8679 38.7345C76.8679 38.7345 70.8153 36.2971 70.1121 39.963C70.0415 40.2862 70.0566 40.6224 70.1557 40.938C70.2619 41.2584 70.4491 41.5457 70.6989 41.7716Z" fill="white"/>
<path d="M38.1732 42.2499C38.4215 42.0215 38.6041 41.7302 38.7019 41.4065C38.7902 41.0876 38.7902 40.7505 38.7019 40.4315C37.9114 36.7558 31.9121 39.3834 31.9121 39.3834C31.9121 39.3834 35.5107 44.8628 38.1732 42.2499Z" fill="white"/>
<path d="M38.0227 49.3182C38.1523 49.0108 38.1991 48.6745 38.1585 48.3432C38.1107 48.0151 37.9805 47.7047 37.7802 47.4413C35.559 44.414 31.1602 49.284 31.1602 49.284C31.1602 49.284 36.655 52.7988 38.0227 49.3182Z" fill="white"/>
<path d="M34.4805 58.6099C34.4805 58.6099 40.9356 59.5849 40.7853 55.8263C40.7824 55.4822 40.6868 55.1453 40.5088 54.8513C40.3316 54.5714 40.0862 54.3415 39.7959 54.1835C36.532 52.3602 34.4805 58.6099 34.4805 58.6099Z" fill="white"/>
<path d="M45.2624 59.8771C44.987 59.6915 44.6671 59.5837 44.336 59.5652C40.6114 59.2239 41.3098 65.7612 41.3098 65.7612C41.3098 65.7612 47.5854 63.9721 45.9026 60.6376C45.7598 60.3317 45.5389 60.0693 45.2624 59.8771Z" fill="white"/>
<path d="M52.5813 62.8998C52.3256 62.679 52.0159 62.5309 51.6841 62.4708C51.3579 62.4161 51.0231 62.4498 50.7141 62.5683C47.1786 63.7919 50.4813 69.4663 50.4813 69.4663C50.4813 69.4663 55.4767 65.2495 52.5813 62.8998Z" fill="white"/>
<path d="M62.4017 82.5356C62.176 82.4542 61.9327 82.4352 61.6972 82.4807C61.4618 82.5261 61.2428 82.6343 61.0631 82.794C59.0116 84.5343 62.6781 87.4787 62.6781 87.4787C62.6781 87.4787 64.943 83.3546 62.4017 82.5356Z" fill="white"/>
<path d="M75.6513 76.7248C75.4111 76.7395 75.1787 76.8167 74.9772 76.949C74.7807 77.082 74.6232 77.2655 74.5213 77.4804C73.2846 79.874 77.7949 81.1853 77.7949 81.1853C77.7949 81.1853 78.3139 76.5054 75.6513 76.7248Z" fill="white"/>
<path d="M85.6869 66.2633C85.467 66.374 85.2809 66.5424 85.1485 66.7508C85.0178 66.9498 84.9424 67.1804 84.9303 67.4186C84.6975 70.1096 89.363 69.5831 89.363 69.5831C89.363 69.5831 88.0633 65.0348 85.6869 66.2633Z" fill="white"/>
<path d="M90.9733 52.7352C90.812 52.9138 90.7015 53.1327 90.6532 53.3689C90.6088 53.6032 90.6255 53.8451 90.7017 54.0709C91.5117 56.6449 95.6243 54.3634 95.6243 54.3634C95.6243 54.3634 92.7047 50.6877 90.9733 52.7352Z" fill="white"/>
<path d="M90.9684 39.5436C92.6949 41.6106 95.6242 37.9203 95.6242 37.9203C95.6242 37.9203 91.5261 35.6437 90.7065 38.203C90.6263 38.4313 90.6078 38.677 90.6532 38.9148C90.7008 39.1488 90.8096 39.3658 90.9684 39.5436Z" fill="white"/>
<path d="M18.0299 39.5539C18.1902 39.3728 18.3005 39.1526 18.35 38.9153C18.3955 38.6808 18.377 38.4382 18.2966 38.2133C17.4867 35.6394 13.3789 37.9209 13.3789 37.9209C13.3789 37.9209 16.2985 41.6014 18.0299 39.5539Z" fill="white"/>
<path d="M18.2966 54.0808C18.3747 53.852 18.3931 53.607 18.35 53.3691C18.3023 53.135 18.1935 52.918 18.0347 52.7402C16.3082 50.6781 13.3789 54.3635 13.3789 54.3635C13.3789 54.3635 17.477 56.6401 18.2966 54.0808Z" fill="white"/>
<path d="M24.0743 67.4043C24.0658 67.1636 23.9911 66.9299 23.8584 66.7294C23.7256 66.5289 23.5402 66.3693 23.3226 66.2684C20.9413 65.0204 19.6367 69.559 19.6367 69.559C19.6367 69.559 24.2926 70.0806 24.0743 67.4043Z" fill="white"/>
<path d="M34.4865 77.4903C34.3758 77.2696 34.2083 77.0828 34.0015 76.9491C33.8035 76.817 33.5743 76.7397 33.3371 76.7249C30.6842 76.4958 31.1983 81.2098 31.1983 81.2098C31.1983 81.2098 35.7038 79.879 34.4865 77.4903Z" fill="white"/>
<path d="M47.3097 82.4818C47.0766 82.4373 46.8361 82.4541 46.6113 82.5306C44.0506 83.3447 46.3204 87.4786 46.3204 87.4786C46.3204 87.4786 49.982 84.5537 47.945 82.8036C47.7648 82.6424 47.5458 82.5315 47.3097 82.4818Z" fill="white"/>
<path d="M65.8848 70.1778C65.4092 70.1107 64.9244 70.1695 64.4784 70.3484C64.042 70.5333 63.6622 70.831 63.3774 71.2113C60.0262 75.4183 68.3485 79.7424 68.3485 79.7424C68.3485 79.7424 71.1808 70.7921 65.8848 70.1778Z" fill="white"/>
<path d="M74.1673 63.972C73.7012 64.0909 73.2746 64.3314 72.9306 64.6692C72.5982 65.0092 72.3607 65.4312 72.242 65.8927C70.7482 71.0601 80.0841 71.8596 80.0841 71.8596C80.0841 71.8596 79.2936 62.4998 74.1673 63.972Z" fill="white"/>
<path d="M79.4595 55.0514C79.0726 55.333 78.7703 55.7162 78.5855 56.159C78.4007 56.6018 78.3407 57.0871 78.4119 57.5619C79.0036 62.9243 87.9273 60.0579 87.9273 60.0579C87.9273 60.0579 83.6352 51.7218 79.4595 55.0514Z" fill="white"/>
<path d="M90.6803 46.1443C90.6803 46.1443 83.5413 40.0897 80.9466 44.7696C80.7037 45.1869 80.5733 45.6608 80.5684 46.1443C80.5714 46.6191 80.6985 47.0848 80.937 47.4946C83.5219 52.2136 90.6803 46.1443 90.6803 46.1443Z" fill="white"/>
<path d="M28.051 47.5144C28.2983 47.1034 28.4291 46.6322 28.4291 46.1518C28.4291 45.6715 28.2983 45.2003 28.051 44.7893C25.4709 40.0704 18.3125 46.1445 18.3125 46.1445C18.3125 46.1445 25.4612 52.1991 28.051 47.5144Z" fill="white"/>
<path d="M10.6399 47.5144C10.8845 47.0993 11.0166 46.6269 11.023 46.1445C11.0191 45.6676 10.8903 45.2002 10.6496 44.7893C8.06945 40.0704 0.90625 46.1445 0.90625 46.1445C0.90625 46.1445 8.04519 52.1991 10.6399 47.5144Z" fill="white"/>
<path d="M13.4716 61.7594C9.29103 58.3957 4.98438 66.761 4.98438 66.761C4.98438 66.761 13.8887 69.6031 14.4997 64.2846C14.5721 63.8095 14.5146 63.3236 14.3335 62.8789C14.1524 62.4341 13.8545 62.0471 13.4716 61.7594Z" fill="white"/>
<path d="M23.7541 77.0464C23.4168 76.7135 22.9989 76.4749 22.5417 76.3542C17.396 74.8527 16.6055 84.2321 16.6055 84.2321C16.6055 84.2321 25.9123 83.4423 24.4525 78.2895C24.3344 77.8199 24.0932 77.3906 23.7541 77.0464Z" fill="white"/>
<path d="M37.862 86.5181C37.4222 86.3413 36.9442 86.2825 36.4749 86.3475C31.1401 86.9374 33.9918 95.9121 33.9918 95.9121C33.9918 95.9121 42.2899 91.5978 38.9774 87.4005C38.6882 87.0139 38.3037 86.7098 37.862 86.5181Z" fill="white"/>
<path d="M55.8646 90.2328C55.4529 89.984 54.9822 89.851 54.5018 89.8477C54.0282 89.8524 53.5638 89.98 53.1536 90.2182C48.4589 92.8165 54.5018 100.012 54.5018 100.012C54.5018 100.012 60.5253 92.836 55.8646 90.2328Z" fill="white"/>
<path d="M72.5469 86.3477C72.0713 86.2806 71.5865 86.3394 71.1405 86.5184C70.7042 86.7033 70.3243 87.001 70.0396 87.3812C66.6883 91.5883 75.0106 95.9123 75.0106 95.9123C75.0106 95.9123 77.8429 86.9669 72.5469 86.3477Z" fill="white"/>
<path d="M86.4866 76.3346C86.0205 76.4534 85.5938 76.6939 85.2499 77.0317C84.9077 77.3782 84.6647 77.811 84.5466 78.2846C83.0529 83.452 92.3888 84.2466 92.3888 84.2466C92.3888 84.2466 91.608 74.8721 86.4866 76.3346Z" fill="white"/>
<path d="M95.5464 61.7492C95.1627 62.0338 94.8628 62.4174 94.6784 62.8594C94.4939 63.3014 94.4319 63.7853 94.4988 64.2598C95.0905 69.6222 104.014 66.7607 104.014 66.7607C104.014 66.7607 99.7221 58.4197 95.5464 61.7492Z" fill="white"/>
<path d="M108.091 46.1443C108.091 46.1443 100.952 40.0897 98.3625 44.7696C98.1151 45.1806 97.9844 45.6518 97.9844 46.1321C97.9844 46.6125 98.1151 47.0837 98.3625 47.4946C100.933 52.2136 108.091 46.1443 108.091 46.1443Z" fill="white"/>
<path d="M30.5867 57.5857C30.6601 57.1106 30.6032 56.6244 30.422 56.1794C30.2408 55.7344 29.9423 55.3476 29.5585 55.0605C25.378 51.6968 21.0762 60.0573 21.0762 60.0573C21.0762 60.0573 29.9756 62.9043 30.5867 57.5857Z" fill="white"/>
<path d="M36.765 65.9125C36.6447 65.4437 36.4039 65.015 36.0666 64.6694C35.7293 64.3365 35.3114 64.0979 34.8542 63.9772C29.7085 62.4757 28.918 71.8599 28.918 71.8599C28.918 71.8599 38.2248 71.0653 36.765 65.9125Z" fill="white"/>
<path d="M45.6415 71.2309C45.3537 70.8429 44.9689 70.5385 44.526 70.3486C44.0868 70.1695 43.6082 70.1106 43.139 70.1779C37.8042 70.7678 40.6559 79.7425 40.6559 79.7425C40.6559 79.7425 48.9539 75.4282 45.6415 71.2309Z" fill="white"/>
<path d="M61.9022 41.26C61.8014 41.2598 61.7027 41.2314 61.617 41.178C61.5314 41.1246 61.4622 41.0484 61.4172 40.9577C56.5043 30.969 57.1833 14.4528 57.9253 11.3524C58.8177 7.64258 61.4754 3.06503 66.2719 1.34906C66.4072 1.30722 66.5533 1.31963 66.6797 1.38367C66.8061 1.44771 66.9029 1.55842 66.95 1.69262C66.997 1.82682 66.9905 1.9741 66.9319 2.10361C66.8733 2.23313 66.7671 2.33483 66.6356 2.38742C62.2708 3.95227 59.8119 8.17882 58.9874 11.6108C58.2891 14.5357 57.6877 30.891 62.3823 40.4702C62.4462 40.6009 62.4561 40.7517 62.4098 40.8896C62.3634 41.0275 62.2646 41.1414 62.135 41.2063C62.0624 41.2417 61.9828 41.26 61.9022 41.26Z" fill="white"/>
<path d="M68.4119 37.5405C68.2972 37.5402 68.1855 37.5045 68.0918 37.4381C63.4505 34.128 59.5367 22.7159 61.6366 13.5072C62.5678 9.43174 65.0849 4.33745 71.797 3.21135C71.8707 3.19194 71.9476 3.18819 72.0228 3.20033C72.098 3.21246 72.1699 3.24023 72.2338 3.28184C72.2978 3.32346 72.3524 3.37803 72.3942 3.44205C72.436 3.50607 72.464 3.57813 72.4765 3.65366C72.489 3.72918 72.4858 3.80651 72.4669 3.88069C72.448 3.95487 72.414 4.02428 72.3669 4.08449C72.3199 4.1447 72.2609 4.1944 72.1936 4.2304C72.1264 4.2664 72.0524 4.28792 71.9765 4.29358C65.8608 5.32219 63.5572 10.007 62.7036 13.7509C60.7637 22.321 64.3816 33.4456 68.7271 36.5411C68.812 36.6115 68.8739 36.7059 68.9047 36.8121C68.9355 36.9183 68.9338 37.0313 68.8998 37.1365C68.8658 37.2417 68.801 37.3342 68.714 37.4019C68.627 37.4696 68.5217 37.5094 68.4119 37.5161V37.5405Z" fill="white"/>
<path d="M46.994 41.2594C46.9101 41.2609 46.827 41.2425 46.7515 41.2057C46.6218 41.1408 46.523 41.0269 46.4767 40.889C46.4304 40.751 46.4402 40.6003 46.5041 40.4696C51.2133 30.8904 50.6119 14.5254 49.899 11.6102C49.0794 8.19772 46.6351 3.95167 42.2508 2.38682C42.183 2.36249 42.1206 2.32498 42.0672 2.27641C42.0138 2.22785 41.9704 2.16918 41.9396 2.10377C41.9087 2.03836 41.891 1.96748 41.8874 1.89518C41.8838 1.82288 41.8944 1.75058 41.9186 1.6824C41.9428 1.61422 41.9801 1.5515 42.0285 1.49782C42.0768 1.44414 42.1351 1.40055 42.2002 1.36954C42.2653 1.33854 42.3358 1.32071 42.4077 1.31709C42.4797 1.31348 42.5516 1.32414 42.6194 1.34846C47.4159 3.06443 50.0736 7.64198 50.966 11.3518C51.708 14.4571 52.387 30.9684 47.4741 40.9571C47.4286 41.0463 47.36 41.1215 47.2755 41.1748C47.1909 41.228 47.0937 41.2572 46.994 41.2594Z" fill="white"/>
<path d="M40.4862 37.54C40.3763 37.5333 40.2711 37.4935 40.184 37.4258C40.097 37.3581 40.0323 37.2656 39.9983 37.1604C39.9642 37.0552 39.9625 36.9422 39.9933 36.836C40.0241 36.7298 40.086 36.6354 40.1709 36.565C44.5358 33.4695 48.1489 22.3449 46.1944 13.7748C45.336 10.0309 43.0372 5.34611 36.9216 4.31751C36.8456 4.31184 36.7716 4.29032 36.7044 4.25432C36.6372 4.21832 36.5782 4.16863 36.5311 4.10842C36.4841 4.0482 36.45 3.97879 36.4311 3.90461C36.4123 3.83043 36.409 3.75311 36.4215 3.67759C36.434 3.60206 36.4621 3.52999 36.5039 3.46597C36.5457 3.40195 36.6003 3.34739 36.6642 3.30577C36.7281 3.26415 36.8 3.23639 36.8752 3.22425C36.9504 3.21211 37.0273 3.21587 37.101 3.23528C43.8132 4.36138 46.3157 9.45566 47.2565 13.5311C49.3614 22.7398 45.4476 34.152 40.8014 37.462C40.707 37.5203 40.5968 37.5476 40.4862 37.54Z" fill="white"/>
<path d="M54.512 28.0052C54.4403 28.0058 54.3691 27.9922 54.3027 27.965C54.2362 27.9379 54.1758 27.8978 54.1248 27.847C54.0738 27.7962 54.0334 27.7358 54.0058 27.6693C53.9782 27.6027 53.964 27.5313 53.964 27.4592V13.3658C53.9252 12.8783 53.6682 6.87731 60.6083 0.16943C60.6599 0.119495 60.7207 0.0802655 60.7874 0.0539762C60.8541 0.027687 60.9252 0.0148528 60.9968 0.0162108C61.0684 0.0175689 61.1391 0.0330922 61.2047 0.0618908C61.2704 0.0906894 61.3297 0.132199 61.3794 0.184054C61.4291 0.235908 61.4681 0.297094 61.4942 0.364111C61.5204 0.431127 61.5332 0.502667 61.5318 0.574643C61.5305 0.646619 61.515 0.717622 61.4864 0.783599C61.4577 0.849576 61.4164 0.909236 61.3648 0.95917C54.6672 7.43305 55.0601 13.2391 55.0601 13.2976V27.4592C55.0601 27.5313 55.0458 27.6027 55.0182 27.6693C54.9906 27.7358 54.9502 27.7962 54.8993 27.847C54.8483 27.8978 54.7878 27.9379 54.7214 27.965C54.6549 27.9922 54.5838 28.0058 54.512 28.0052Z" fill="white"/>
<path d="M54.4773 28.0049C54.3328 28.0049 54.1941 27.9476 54.0915 27.8453C53.9888 27.7431 53.9305 27.6042 53.9293 27.459V13.3217C53.9293 13.2486 54.3172 7.44256 47.6245 0.968679C47.5678 0.919724 47.5217 0.859634 47.4889 0.792103C47.4562 0.724571 47.4376 0.651024 47.4342 0.575984C47.4308 0.500944 47.4427 0.425999 47.4691 0.355752C47.4956 0.285504 47.5361 0.221439 47.5881 0.167497C47.6401 0.113555 47.7025 0.0708786 47.7716 0.0420838C47.8406 0.0132889 47.9147 -0.00101608 47.9894 5.61066e-05C48.0642 0.00112829 48.1379 0.0175538 48.2061 0.0483173C48.2742 0.0790807 48.3354 0.123533 48.3859 0.178945C55.326 6.88682 55.0641 12.8537 55.0302 13.3753V27.4687C55.0264 27.6131 54.9663 27.7502 54.8629 27.8505C54.7595 27.9508 54.621 28.0063 54.4773 28.0049Z" fill="white"/>
<path d="M83.0617 41.2595C82.9172 41.2595 82.7785 41.2021 82.6759 41.0998C82.5732 40.9976 82.515 40.8587 82.5137 40.7135V23.8463C82.5137 23.7002 82.5714 23.5601 82.6742 23.4568C82.777 23.3535 82.9164 23.2954 83.0617 23.2954C83.2071 23.2954 83.3465 23.3535 83.4492 23.4568C83.552 23.5601 83.6097 23.7002 83.6097 23.8463V40.7135C83.6085 40.8587 83.5501 40.9976 83.4475 41.0998C83.3449 41.2021 83.2062 41.2595 83.0617 41.2595Z" fill="white"/>
<path d="M86.0012 41.2595C85.8566 41.2595 85.718 41.2022 85.6154 41.0999C85.5127 40.9977 85.4544 40.8588 85.4531 40.7136V31.734C85.4531 31.5879 85.5109 31.4478 85.6136 31.3444C85.7164 31.2411 85.8558 31.1831 86.0012 31.1831C86.1465 31.1831 86.2859 31.2411 86.3887 31.3444C86.4915 31.4478 86.5492 31.5879 86.5492 31.734V40.7136C86.5479 40.8588 86.4896 40.9977 86.387 41.0999C86.2843 41.2022 86.1457 41.2595 86.0012 41.2595Z" fill="white"/>
<path d="M57.1836 45.8274C57.0964 45.828 57.0104 45.8075 56.9327 45.7676C56.855 45.7277 56.7881 45.6696 56.7375 45.5982C53.9876 41.7276 53.9634 36.9355 53.9634 36.7356V18.7813C53.9562 18.705 53.965 18.6279 53.9891 18.5552C54.0133 18.4824 54.0523 18.4155 54.1037 18.3588C54.155 18.3021 54.2176 18.2568 54.2874 18.2257C54.3572 18.1947 54.4327 18.1787 54.509 18.1787C54.5853 18.1787 54.6608 18.1947 54.7305 18.2257C54.8003 18.2568 54.8629 18.3021 54.9143 18.3588C54.9656 18.4155 55.0046 18.4824 55.0288 18.5552C55.053 18.6279 55.0617 18.705 55.0546 18.7813V36.7356C55.0546 36.7844 55.0837 41.3814 57.625 44.9596C57.6677 45.0178 57.6983 45.0841 57.7151 45.1544C57.7319 45.2247 57.7345 45.2977 57.7227 45.3691C57.711 45.4404 57.6851 45.5087 57.6467 45.5698C57.6082 45.6309 57.558 45.6837 57.4989 45.725C57.4067 45.7907 57.2967 45.8264 57.1836 45.8274Z" fill="white"/>
<path d="M51.8334 45.8274C51.7204 45.8264 51.6104 45.7907 51.5182 45.725C51.4591 45.6837 51.4089 45.6309 51.3704 45.5698C51.332 45.5087 51.3061 45.4404 51.2943 45.3691C51.2826 45.2977 51.2852 45.2247 51.302 45.1544C51.3188 45.0841 51.3494 45.0178 51.3921 44.9596C53.9383 41.3717 53.9625 36.7844 53.9625 36.7356V18.7813C53.9553 18.705 53.9641 18.6279 53.9883 18.5552C54.0124 18.4824 54.0514 18.4155 54.1028 18.3588C54.1542 18.3021 54.2167 18.2568 54.2865 18.2257C54.3563 18.1947 54.4318 18.1787 54.5081 18.1787C54.5844 18.1787 54.6599 18.1947 54.7297 18.2257C54.7995 18.2568 54.8621 18.3021 54.9134 18.3588C54.9648 18.4155 55.0038 18.4824 55.028 18.5552C55.0521 18.6279 55.0609 18.705 55.0537 18.7813V36.7356C55.0537 36.9355 55.0537 41.7276 52.2796 45.5982C52.2293 45.6699 52.1624 45.7282 52.0847 45.7681C52.0069 45.8081 51.9207 45.8284 51.8334 45.8274Z" fill="white"/>
</svg>
