<svg width="90" height="50" viewBox="0 0 90 50" fill="none" xmlns="http://www.w3.org/2000/svg">
<path d="M89.7959 24.2971C87.1759 29.2024 83.9604 33.4197 80.1196 36.9192C70.8602 45.4136 59.2784 49.7804 45.3743 49.9898C31.4703 50.2291 19.7098 46.2511 10.1526 38.0557C6.19275 34.6759 2.79868 30.5782 0 25.7627C2.64982 20.8574 5.89515 16.6102 9.7359 13.0809C19.0251 4.5864 30.6069 0.219552 44.5408 0.0101822C58.4449 -0.229098 70.1755 3.74891 79.7029 11.9443C83.6628 15.354 87.027 19.4816 89.7959 24.2971ZM61.4818 24.7457C61.4222 20.2592 59.7251 16.4606 56.4203 13.3201C53.1154 10.1795 49.1853 8.65419 44.63 8.71401C42.2184 8.74392 39.9557 9.2823 37.812 10.2992L36.0255 6.38094C23.4017 8.77374 14.2316 15.1746 8.5449 25.6132C10.3015 28.6042 12.4154 31.2363 14.8568 33.5692C20.7817 39.1026 27.9868 42.5422 36.4722 43.8881C32.7803 42.3029 29.803 39.8503 27.5104 36.5303C25.2179 33.2103 24.0567 29.5014 23.9674 25.3738C23.9376 22.8913 24.3247 20.4686 25.1584 18.1057L29.3563 19.362C28.612 21.3061 28.2548 23.2802 28.3144 25.314C28.3739 29.8305 30.071 33.6589 33.3758 36.7695C36.6807 39.8802 40.6106 41.4056 45.1659 41.3458C49.751 41.286 53.6216 39.611 56.8073 36.4106C59.9931 33.2103 61.5711 29.3219 61.4818 24.8055V24.7457ZM57.4623 24.8055C57.5218 28.2153 56.3309 31.1465 53.9192 33.5991C51.5076 36.0517 48.5602 37.308 45.1065 37.3678C41.623 37.4276 38.6457 36.2611 36.1447 33.8982C33.6735 31.5353 32.3932 28.6341 32.3337 25.2243C32.3337 23.7288 32.542 22.2632 33.0482 20.8575L45.9698 26.4805L39.7472 13.7987C41.2954 13.0808 42.9628 12.692 44.6896 12.6621C48.1433 12.6022 51.1206 13.7687 53.6216 16.1316C56.1225 18.4945 57.4027 21.3958 57.4623 24.8055ZM81.2808 24.4168C79.5242 21.4258 77.4103 18.7637 74.9093 16.4308C68.9547 10.8376 61.6901 7.39789 53.0857 6.11176C56.8371 7.66708 59.874 10.0899 62.1963 13.38C64.5484 16.7897 65.769 20.5584 65.8285 24.686C65.8881 28.7836 64.846 32.5223 62.6428 35.9321C60.4395 39.3418 57.5218 41.8842 53.8894 43.589C66.4835 41.1962 75.5941 34.8255 81.2808 24.4168Z" fill="#121212"/>
</svg>
