<?xml version="1.0" encoding="utf-8"?>
<!-- Generator: Adobe Illustrator 22.0.1, SVG Export Plug-In . SVG Version: 6.00 Build 0)  -->
<svg version="1.1" id="Layer_1" xmlns="http://www.w3.org/2000/svg" xmlns:xlink="http://www.w3.org/1999/xlink" x="0px" y="0px"
	 width="45px" height="45px" viewBox="0 0 45 45" style="enable-background:new 0 0 45 45;" xml:space="preserve">
<style type="text/css">
	.st0{fill:#FFFFFF;}
</style>
<g>
	<path class="st0" d="M16,21.7v1.6h5.7v0h1.6l0,0H29v-1.6h-5.7l0,0h-1.6v0H16z"/>
</g>
<g>
	<path class="st0" d="M22.5,45C10.1,45,0,34.9,0,22.5S10.1,0,22.5,0S45,10.1,45,22.5S34.9,45,22.5,45z M22.5,1.3
		c-11.7,0-21.2,9.5-21.2,21.2s9.5,21.2,21.2,21.2s21.2-9.5,21.2-21.2S34.2,1.3,22.5,1.3z"/>
</g>
</svg>
