<svg width="160" height="138" viewBox="0 0 160 138" fill="none" xmlns="http://www.w3.org/2000/svg">
<path d="M53.2815 68.5048C53.2815 43.1489 63.9957 21.0081 79.9223 9.16442C87.7592 3.33694 96.8597 0 106.563 0H53.2815C23.8549 0 0 30.6719 0 68.5048C0 106.338 23.8549 137.01 53.2815 137.01H106.563C96.8597 137.01 87.7592 133.661 79.9223 127.845C64.0048 115.998 53.2815 93.8607 53.2815 68.5048Z" fill="white"/>
<path d="M106.563 68.5048C106.563 43.1489 95.8486 21.0081 79.922 9.16442C72.0851 3.33694 62.9846 0 53.2812 0H106.563C135.989 0 159.844 30.6719 159.844 68.5048C159.844 106.338 135.989 137.01 106.563 137.01H53.2812C62.9846 137.01 72.0851 133.661 79.922 127.845C95.8486 115.998 106.563 93.8607 106.563 68.5048Z" fill="#555555"/>
<path d="M79.8396 9.21701C72.0352 3.35609 62.9726 0 53.3096 0H106.37C96.7067 0 87.644 3.35609 79.8396 9.21701Z" fill="white"/>
</svg>
