<svg width="138" height="36" viewBox="0 0 138 36" fill="none" xmlns="http://www.w3.org/2000/svg">
<g clip-path="url(#clip0_2398_68)">
<path d="M70.5382 33.4522V34.2404L63.6782 35.4451C62.4268 35.63 62.3802 34.5653 62.3802 34.5653V30.4929C61.2688 33.134 57.4214 35.4917 54.5487 35.4917C50.8829 35.4917 48.7168 33.9621 48.7168 28.4001V18.4824C48.7168 15.7014 48.8084 15.2849 46.1207 14.9133V14.1268L54.4637 13.2454V28.2618C54.4637 30.8578 55.6685 32.1092 58.3561 32.1092C59.6542 32.1092 61.4154 30.9428 62.3885 29.0966V18.6224C62.3885 15.7898 62.5751 15.1916 60.2107 14.9133V14.1268L68.1821 13.2454V30.8112C68.1738 33.0356 68.6004 33.2206 70.5382 33.4522Z" fill="white"/>
<path d="M82.3555 34.287V35.0751H72.8577V34.287C74.619 33.7771 74.7106 31.8309 74.7106 29.4664V6.01536C74.7106 4.39241 74.2474 3.69757 72.3945 3.00274V2.21459L80.5009 0.5V29.4664C80.5009 32.0158 80.7326 33.8704 82.3555 34.287Z" fill="white"/>
<path d="M98.8548 30.5795L99.5496 30.9961C98.6232 33.1739 95.7955 35.495 92.6896 35.495C89.0238 35.495 86.8577 34.0121 86.8577 28.4034V14.45H84.5399L84.3999 13.6619H86.8577V7.45171L92.6496 6.47861V13.6636H98.1666L97.98 14.4517H92.6479V28.2634C92.6479 30.8595 93.761 32.2025 96.0788 32.2025C97.4168 32.2008 98.4366 31.2744 98.8548 30.5795Z" fill="white"/>
<path d="M111.32 34.287V35.0751H101.823V34.287C103.584 33.7305 103.677 31.7876 103.677 29.4198V19.1306C103.677 17.556 103.214 16.9061 101.313 15.8864V15.0999L109.424 13.2453V29.4198C109.424 32.0159 109.652 33.8254 111.32 34.287ZM106.091 9.53788C105.268 9.51895 104.485 9.17858 103.909 8.58958C103.334 8.00057 103.011 7.2097 103.011 6.38614C103.011 5.56257 103.334 4.7717 103.909 4.18269C104.485 3.59369 105.268 3.25332 106.091 3.23438C106.511 3.22473 106.929 3.29911 107.32 3.45316C107.711 3.60721 108.067 3.83782 108.367 4.13144C108.668 4.42507 108.907 4.77578 109.07 5.16297C109.233 5.55017 109.317 5.96603 109.317 6.38614C109.317 6.80624 109.233 7.2221 109.07 7.60929C108.907 7.99649 108.668 8.3472 108.367 8.64082C108.067 8.93445 107.711 9.16506 107.32 9.31911C106.929 9.47316 106.511 9.54754 106.091 9.53788Z" fill="white"/>
<path d="M136.301 31.876L137.089 32.2092C136.719 33.6922 134.59 35.5001 131.667 35.5001C131.667 35.5001 127.541 35.5001 127.032 31.746C126.337 33.7855 123.602 35.5001 120.311 35.5001C120.311 35.5001 114.979 35.5001 114.979 30.7729C114.979 25.7208 118.872 25.2576 126.977 23.218V20.3371C126.977 15.5165 124.287 13.1071 121.09 14.775C119.607 15.5165 119.423 16.3047 119.747 16.3513C120.089 16.3879 120.419 16.4977 120.715 16.6734C121.011 16.8491 121.265 17.0865 121.461 17.3694C121.658 17.6552 121.797 17.9772 121.868 18.3168C121.94 18.6564 121.943 19.0068 121.879 19.3478C121.814 19.6888 121.682 20.0135 121.491 20.3032C121.3 20.5928 121.053 20.8417 120.765 21.0352C120.184 21.422 119.475 21.5658 118.79 21.4359C118.105 21.306 117.498 20.9127 117.099 20.3404C116.542 19.4589 116.496 18.3409 116.961 17.5594C117.425 16.7779 118.025 15.5199 120.575 14.1752C122.661 13.0638 125.074 13.2487 125.074 13.2487C131.146 13.2487 132.813 17.0495 132.813 22.5182V29.4232C132.813 29.4232 132.768 32.6675 135.038 32.6675C135.05 32.6591 136.024 32.6591 136.301 31.876ZM126.987 24.0445C122.444 25.0643 120.915 27.2421 120.915 29.6065C120.915 29.6065 120.915 32.6641 123.927 32.6641C125.504 32.6641 126.568 31.4128 126.987 30.3013V24.0445Z" fill="white"/>
<path d="M24.5625 25.944L13.3985 2.44955H1.7146V3.2377C2.87266 3.33101 5.19044 3.33101 6.95168 6.43527V23.3479C6.95168 23.3479 6.95168 34.287 0 34.287V35.0735H14.0417V34.287C7.64652 34.287 7.73983 23.3479 7.73983 23.3479V7.68497L20.7167 35.4917H21.5049L24.9724 26.8071L24.5625 25.944Z" fill="white"/>
<path d="M40.507 29.4663V7.30495C40.507 4.47229 42.0816 3.22592 44.0745 3.22592V2.43777H33.8319V29.4663C33.8319 32.6173 32.4423 34.2869 30.4994 34.2869V35.0733H44.4961V34.2869C42.4999 34.2869 40.507 32.6173 40.507 29.4663Z" fill="white"/>
</g>
<defs>
<clipPath id="clip0_2398_68">
<rect width="137.089" height="35.0001" fill="white" transform="translate(0 0.5)"/>
</clipPath>
</defs>
</svg>
