<svg width="46" height="34" viewBox="0 0 46 34" fill="none" xmlns="http://www.w3.org/2000/svg">
<path d="M25.4185 24.076L14.2545 0.581543H2.57062V1.36969C3.72867 1.463 6.04645 1.463 7.8077 4.56726V21.4799C7.8077 21.4799 7.8077 32.419 0.856018 32.419V33.2054H14.8977V32.419C8.50253 32.419 8.59584 21.4799 8.59584 21.4799V5.81696L21.5728 33.6237H22.3609L25.8284 24.9391L25.4185 24.076Z" fill="white"/>
<path d="M41.363 27.5983V5.43694C41.363 2.60428 42.9376 1.35791 44.9305 1.35791V0.569763H34.6879V27.5983C34.6879 30.7492 33.2982 32.4188 31.3554 32.4188V33.2053H45.352V32.4188C43.3559 32.4188 41.363 30.7492 41.363 27.5983Z" fill="white"/>
</svg>
