<svg width="308" height="308" viewBox="0 0 308 308" fill="none" xmlns="http://www.w3.org/2000/svg">
<path d="M153.913 305.698C237.848 305.698 305.892 237.655 305.892 153.719C305.892 69.7835 237.848 1.74023 153.913 1.74023C69.9771 1.74023 1.93384 69.7835 1.93384 153.719C1.93384 237.655 69.9771 305.698 153.913 305.698Z" fill="#121212" stroke="#222222" stroke-width="3"/>
<path d="M159.952 171.903L130.858 110.652H100.424V112.71C103.438 112.949 109.477 112.949 114.061 121.036V165.06C114.061 165.06 114.061 193.571 95.9541 193.571V195.619H132.542V193.686C115.88 193.686 116.119 165.175 116.119 165.175V124.319L149.932 196.786H151.989L161.024 174.152L159.952 171.903Z" fill="white"/>
<path d="M201.497 181.081V123.333C201.497 115.954 205.603 112.7 210.79 112.7V110.652H184.098V181.081C184.098 189.293 180.48 193.647 175.417 193.647V195.695H211.891V193.686C206.655 193.686 201.497 189.293 201.497 181.081Z" fill="white"/>
</svg>
